{"glyphs":{"0":{"ha":907,"x_min":61,"x_max":842,"o":"m 547 607 l 547 614 l 422 614 q 397 608 409 614 q 375 594 385 603 q 361 573 366 585 q 355 547 355 561 l 355 301 l 363 301 l 484 301 q 529 319 511 301 q 547 364 547 338 l 547 607 m 279 237 q 229 291 248 258 q 211 364 211 324 l 211 607 q 223 666 211 639 q 255 714 235 694 q 303 746 275 734 q 363 758 331 758 l 484 758 q 557 740 524 758 q 610 690 590 722 l 648 652 q 680 605 668 632 q 692 547 692 578 l 692 304 q 681 245 692 273 q 649 199 669 218 q 603 168 629 179 q 545 157 576 157 l 422 157 q 365 168 392 157 q 318 199 338 179 l 279 237 m 697 729 q 656 856 697 802 q 603 878 631 870 q 545 886 576 886 l 422 886 q 268 821 334 886 q 205 668 205 758 l 205 182 q 212 123 205 151 q 235 69 219 95 q 294 39 262 50 q 363 29 327 29 l 484 29 q 636 92 574 29 q 697 243 697 154 l 697 729 m 184 -3 q 166 12 175 3 q 149 29 157 20 q 82 127 104 74 q 61 243 61 180 l 61 729 q 82 844 61 792 q 149 942 104 897 q 363 1031 237 1031 l 484 1031 q 599 1009 547 1031 q 696 942 651 987 q 713 924 705 932 q 728 904 720 915 l 754 879 q 842 668 842 791 l 842 182 q 821 67 842 119 q 755 -29 800 15 q 545 -115 669 -115 l 422 -115 q 308 -94 361 -115 q 211 -29 255 -73 l 184 -3 m 606 607 q 596 654 606 632 q 569 693 586 677 q 531 720 553 710 q 484 729 509 729 l 363 729 q 315 720 338 729 q 276 693 293 710 q 250 654 260 677 q 240 607 240 632 l 240 364 q 250 317 240 339 q 276 278 260 295 q 315 252 293 262 q 363 243 338 243 l 484 243 q 532 252 509 243 q 570 278 554 262 q 596 316 587 294 q 606 364 606 338 l 606 607 m 726 243 q 709 149 726 192 q 656 71 692 106 q 484 0 584 0 l 363 0 q 189 71 262 0 q 136 150 153 106 q 119 243 119 193 l 119 729 q 189 900 119 830 q 269 954 226 936 q 363 972 312 972 l 484 972 q 576 954 534 972 q 656 900 619 936 q 726 729 726 828 l 726 243 m 755 243 l 755 729 q 675 921 755 842 q 484 1002 597 1002 l 363 1002 q 170 921 248 1002 q 110 833 129 881 q 90 729 90 786 l 90 243 q 110 138 90 186 q 170 50 129 90 q 257 -10 210 9 q 363 -29 305 -29 l 484 -29 q 589 -10 541 -29 q 676 50 637 9 q 736 138 717 90 q 755 243 755 185 m 576 364 q 569 328 576 345 q 550 299 562 311 q 520 279 537 286 q 484 272 503 272 l 363 272 q 326 279 343 272 q 297 299 309 287 q 277 329 284 312 q 269 364 269 345 l 269 607 q 277 643 269 626 q 297 673 284 660 q 326 693 309 686 q 363 700 343 700 l 484 700 q 519 693 503 700 q 549 673 536 686 q 569 643 562 660 q 576 607 576 626 l 576 364 z "},"1":{"ha":907,"x_min":243,"x_max":660,"o":"m 387 758 l 392 758 l 392 751 l 449 694 l 449 157 l 387 157 l 387 29 l 515 29 l 515 160 l 461 214 l 454 214 l 454 886 l 387 886 l 387 758 m 277 -53 q 252 -31 262 -45 q 243 0 243 -17 l 243 243 q 248 266 243 255 q 260 284 252 276 q 278 297 268 292 q 301 301 289 301 l 304 301 l 304 648 l 277 676 q 252 697 262 684 q 243 729 243 711 l 243 972 q 248 995 243 985 q 260 1014 252 1006 q 278 1026 268 1021 q 301 1031 289 1031 l 484 1031 q 517 1020 503 1031 q 538 993 531 1010 l 582 949 q 594 932 589 941 q 599 911 599 922 l 599 264 l 643 220 q 655 203 650 212 q 660 182 660 193 l 660 -61 q 655 -82 660 -72 q 644 -99 651 -92 q 626 -111 636 -106 q 606 -115 616 -115 l 363 -115 q 323 -100 339 -115 l 277 -53 m 301 0 l 301 243 l 363 243 l 363 729 l 301 729 l 301 972 l 484 972 l 484 243 l 545 243 l 545 0 l 301 0 m 545 -29 q 565 -20 556 -29 q 574 0 574 -12 l 574 243 q 565 263 574 254 q 545 272 556 272 l 513 272 l 513 972 q 504 993 513 984 q 484 1002 496 1002 l 301 1002 q 281 993 290 1002 q 272 972 272 984 l 272 729 q 281 709 272 718 q 301 700 290 700 l 334 700 l 334 272 l 301 272 q 281 263 290 272 q 272 243 272 254 l 272 0 q 281 -20 272 -12 q 301 -29 290 -29 l 545 -29 z "},"2":{"ha":907,"x_min":61,"x_max":842,"o":"m 205 29 l 697 29 l 697 157 l 277 157 l 218 214 l 211 214 l 211 297 q 207 270 208 283 q 205 243 205 256 l 205 29 m 205 758 l 453 758 q 515 741 488 758 q 558 694 543 724 l 596 659 q 621 621 612 642 q 631 578 631 601 q 622 533 631 554 q 596 495 612 511 q 559 470 581 479 q 514 461 538 461 l 422 461 q 395 459 409 461 q 370 454 382 458 l 484 454 q 635 518 571 454 q 681 586 665 549 q 697 668 697 624 l 697 729 q 656 856 697 802 q 603 878 631 870 q 545 886 576 886 l 205 886 l 205 758 m 393 310 q 379 307 386 310 q 368 301 372 304 l 726 301 q 760 291 745 301 q 781 264 774 281 l 825 220 q 837 203 833 212 q 842 182 842 193 l 842 -61 q 837 -82 842 -72 q 825 -99 833 -92 q 808 -111 818 -106 q 787 -115 798 -115 l 179 -115 q 158 -111 169 -115 q 140 -100 148 -107 l 93 -53 q 70 -31 79 -45 q 61 0 61 -17 l 61 304 q 150 517 61 428 q 363 606 237 606 l 453 606 q 464 607 459 606 q 473 614 469 608 l 179 614 q 158 618 169 614 q 140 629 148 622 l 93 676 q 70 697 79 684 q 61 729 61 711 l 61 972 q 66 995 61 985 q 78 1014 71 1006 q 97 1026 86 1021 q 119 1031 107 1031 l 484 1031 q 599 1009 547 1031 q 696 942 651 987 q 713 924 705 932 q 728 904 720 915 l 754 879 q 842 668 842 791 l 842 607 q 754 397 842 485 q 545 310 667 310 l 393 310 m 119 0 l 119 304 q 191 475 119 404 q 363 547 262 547 l 453 547 q 488 554 471 547 q 517 574 505 562 q 537 602 530 586 q 545 637 545 618 q 537 673 545 656 q 517 702 530 690 q 488 722 505 715 q 453 729 471 729 l 119 729 l 119 972 l 484 972 q 576 954 534 972 q 656 900 619 936 q 726 729 726 828 l 726 668 q 656 497 726 569 q 576 444 619 462 q 484 425 534 425 l 332 425 q 297 418 313 425 q 268 398 280 410 q 248 370 255 386 q 240 335 240 353 l 240 243 l 726 243 l 726 0 l 119 0 m 726 -29 q 747 -20 739 -29 q 755 0 755 -12 l 755 243 q 747 263 755 254 q 726 272 739 272 l 269 272 l 269 335 q 274 358 269 347 q 287 378 279 370 q 307 391 296 387 q 332 396 319 396 l 484 396 q 675 476 597 396 q 755 668 755 555 l 755 729 q 675 921 755 842 q 484 1002 597 1002 l 119 1002 q 99 993 107 1002 q 90 972 90 984 l 90 729 q 99 709 90 718 q 119 700 107 700 l 453 700 q 477 695 466 700 q 497 682 489 690 q 511 662 506 673 q 515 637 515 650 q 511 614 515 625 q 497 594 506 603 q 477 581 489 586 q 453 576 466 576 l 363 576 q 258 556 305 576 q 170 496 210 536 q 110 408 130 455 q 90 304 90 361 l 90 0 q 99 -20 90 -12 q 119 -29 107 -29 l 726 -29 z "},"3":{"ha":907,"x_min":61,"x_max":842,"o":"m 697 243 q 684 311 697 277 q 644 374 670 345 q 595 402 621 389 q 538 425 568 416 l 501 461 l 326 461 l 326 454 l 453 454 q 515 437 488 454 q 558 392 543 420 l 596 354 q 593 355 595 355 q 591 357 593 355 l 596 354 q 621 318 612 338 q 631 273 631 298 q 622 228 631 250 q 596 191 612 207 q 559 166 581 175 q 514 157 538 157 l 205 157 l 205 29 l 484 29 q 565 45 528 29 q 635 92 603 61 q 681 161 665 123 q 697 243 697 199 m 205 758 l 453 758 q 515 741 488 758 q 558 694 543 724 l 596 659 q 621 621 612 642 q 631 578 631 601 l 631 566 q 644 578 638 572 q 656 591 650 585 q 687 651 677 619 q 697 717 697 682 l 697 729 q 656 856 697 802 q 603 878 631 870 q 545 886 576 886 l 205 886 l 205 758 m 93 676 q 70 697 79 684 q 61 729 61 711 l 61 972 q 66 995 61 985 q 78 1014 71 1006 q 97 1026 86 1021 q 119 1031 107 1031 l 484 1031 q 599 1009 547 1031 q 696 942 651 987 q 713 924 705 932 q 728 904 720 915 l 754 879 q 842 668 842 791 l 842 656 q 834 588 842 620 q 811 524 827 555 l 812 522 l 799 500 q 791 491 794 496 q 783 481 787 486 l 782 481 q 757 452 769 465 q 733 427 745 438 l 753 406 q 819 305 797 363 q 842 182 842 248 q 754 -28 842 60 q 545 -115 667 -115 l 179 -115 q 158 -111 169 -115 q 140 -100 148 -107 l 93 -53 q 70 -31 79 -45 q 61 0 61 -17 l 61 243 q 66 266 61 255 q 78 284 71 276 q 97 297 86 292 q 119 301 107 301 l 453 301 q 473 310 465 301 l 301 310 q 262 325 277 310 l 215 374 q 191 395 201 381 q 182 425 182 408 l 182 547 q 186 569 182 559 q 199 588 191 580 q 217 601 207 596 q 240 606 228 606 l 453 606 q 464 607 459 606 q 473 614 469 608 l 179 614 q 158 618 169 614 q 140 629 148 622 l 93 676 m 726 243 q 656 72 726 144 q 484 0 583 0 l 119 0 l 119 243 l 453 243 q 488 250 471 243 q 517 270 505 258 q 537 299 530 283 q 545 335 545 316 q 537 370 545 353 q 517 398 530 386 q 488 418 505 410 q 453 425 471 425 l 240 425 l 240 547 l 453 547 q 488 554 471 547 q 517 574 505 562 q 537 602 530 586 q 545 637 545 618 q 537 673 545 656 q 517 702 530 690 q 488 722 505 715 q 453 729 471 729 l 119 729 l 119 972 l 484 972 q 576 954 534 972 q 656 900 619 936 q 726 729 726 828 l 726 717 q 715 642 726 678 q 679 575 703 606 q 626 520 656 543 q 558 486 596 498 q 630 450 598 473 q 683 394 661 426 q 715 323 704 362 q 726 243 726 285 m 755 243 q 723 385 755 321 q 628 486 690 448 q 704 558 673 513 l 703 558 q 743 634 730 595 q 755 717 755 673 l 755 729 q 675 921 755 842 q 484 1002 597 1002 l 119 1002 q 99 993 107 1002 q 90 972 90 984 l 90 729 q 99 709 90 718 q 119 700 107 700 l 453 700 q 477 695 466 700 q 497 682 489 690 q 511 662 506 673 q 515 637 515 650 q 511 614 515 625 q 497 594 506 603 q 477 581 489 586 q 453 576 466 576 l 240 576 q 220 568 229 576 q 211 547 211 559 l 211 425 q 220 405 211 414 q 240 396 229 396 l 453 396 q 477 391 466 396 q 497 378 489 387 q 511 358 506 370 q 515 335 515 347 q 511 310 515 321 q 497 290 506 299 q 477 277 489 281 q 453 272 466 272 l 119 272 q 99 263 107 272 q 90 243 90 254 l 90 0 q 99 -20 90 -12 q 119 -29 107 -29 l 484 -29 q 675 52 597 -29 q 755 243 755 130 z "},"4":{"ha":907,"x_min":61,"x_max":842,"o":"m 635 192 l 692 135 l 692 29 l 697 29 l 697 886 l 692 886 l 692 326 l 277 326 l 218 383 l 211 383 l 211 643 l 205 643 l 205 199 l 635 199 l 635 192 m 355 471 l 547 471 l 547 972 q 552 995 547 985 q 565 1014 557 1006 q 583 1026 572 1021 q 606 1031 593 1031 l 726 1031 q 760 1020 745 1031 q 781 993 774 1010 l 825 949 q 837 932 833 941 q 842 911 842 922 l 842 -61 q 837 -82 842 -72 q 825 -99 833 -92 q 808 -111 818 -106 q 787 -115 798 -115 l 665 -115 q 645 -111 655 -115 q 627 -100 634 -107 l 579 -53 q 556 -31 564 -45 q 547 0 547 -17 l 547 54 l 179 54 q 158 59 169 54 q 140 71 148 63 l 93 118 q 70 139 79 125 q 61 170 61 153 l 61 729 q 66 752 61 741 q 78 770 71 762 q 97 783 86 778 q 119 787 107 787 l 240 787 q 274 777 259 787 q 294 750 288 767 l 339 705 q 351 689 347 698 q 355 668 355 680 l 355 471 m 606 0 l 606 170 l 119 170 l 119 729 l 240 729 l 240 412 l 606 412 l 606 972 l 726 972 l 726 0 l 606 0 m 726 -29 q 747 -20 739 -29 q 755 0 755 -12 l 755 972 q 747 993 755 984 q 726 1002 739 1002 l 606 1002 q 585 993 593 1002 q 576 972 576 984 l 576 441 l 269 441 l 269 729 q 261 749 269 741 q 240 758 253 758 l 119 758 q 99 749 107 758 q 90 729 90 741 l 90 170 q 99 149 90 158 q 119 140 107 140 l 576 140 l 576 0 q 585 -20 576 -12 q 606 -29 593 -29 l 726 -29 z "},"5":{"ha":907,"x_min":61,"x_max":842,"o":"m 697 304 q 656 431 697 375 q 603 453 631 446 q 545 461 576 461 l 277 461 l 218 518 l 211 518 l 211 758 l 636 758 l 636 886 l 205 886 l 205 454 l 453 454 q 515 437 488 454 q 558 392 543 420 l 596 354 q 621 318 612 338 q 631 273 631 298 q 622 228 631 250 q 596 191 612 207 q 559 166 581 175 q 514 157 538 157 l 205 157 l 205 29 l 484 29 q 565 45 528 29 q 635 92 603 61 q 681 161 665 123 q 697 243 697 199 l 697 304 m 355 606 l 484 606 q 599 584 547 606 q 696 517 651 562 q 713 498 705 507 q 728 479 720 489 l 754 453 q 842 243 842 366 l 842 182 q 754 -28 842 60 q 545 -115 667 -115 l 179 -115 q 158 -111 169 -115 q 140 -100 148 -107 l 93 -53 q 70 -31 79 -45 q 61 0 61 -17 l 61 243 q 66 266 61 255 q 78 284 71 276 q 97 297 86 292 q 119 301 107 301 l 453 301 q 473 310 465 301 l 179 310 q 158 314 169 310 q 140 325 148 317 l 93 374 q 70 395 79 381 q 61 425 61 408 l 61 972 q 66 995 61 985 q 78 1014 71 1006 q 97 1026 86 1021 q 119 1031 107 1031 l 665 1031 q 699 1020 684 1031 q 720 993 713 1010 l 764 949 q 777 932 771 941 q 782 911 782 922 l 782 668 q 777 647 782 657 q 765 630 772 637 q 747 618 758 623 q 726 614 737 614 l 355 614 l 355 606 m 726 243 q 656 72 726 144 q 484 0 583 0 l 119 0 l 119 243 l 453 243 q 488 250 471 243 q 517 270 505 258 q 537 299 530 283 q 545 335 545 316 q 537 370 545 353 q 517 398 530 386 q 488 418 505 410 q 453 425 471 425 l 119 425 l 119 972 l 665 972 l 665 729 l 240 729 l 240 547 l 484 547 q 576 529 534 547 q 656 475 619 511 q 726 304 726 404 l 726 243 m 755 243 l 755 304 q 675 496 755 415 q 484 576 595 576 l 269 576 l 269 700 l 665 700 q 686 709 678 700 q 694 729 694 718 l 694 972 q 686 993 694 984 q 665 1002 678 1002 l 119 1002 q 99 993 107 1002 q 90 972 90 984 l 90 425 q 99 405 90 414 q 119 396 107 396 l 453 396 q 477 391 466 396 q 497 378 489 387 q 511 358 506 370 q 515 335 515 347 q 511 310 515 321 q 497 290 506 299 q 477 277 489 281 q 453 272 466 272 l 119 272 q 99 263 107 272 q 90 243 90 254 l 90 0 q 99 -20 90 -12 q 119 -29 107 -29 l 484 -29 q 675 52 597 -29 q 755 243 755 130 z "},"6":{"ha":907,"x_min":61,"x_max":842,"o":"m 363 253 q 365 250 364 251 q 367 248 365 249 l 363 253 m 306 309 q 308 306 307 307 q 311 304 309 306 l 306 309 m 393 310 q 379 307 386 310 q 368 301 372 304 l 514 301 q 534 310 526 301 l 393 310 m 697 304 q 656 431 697 375 q 603 453 631 446 q 545 461 576 461 l 399 461 q 370 454 383 461 l 514 454 q 575 437 547 454 q 618 392 602 420 l 656 354 q 682 318 671 338 q 692 273 692 298 q 682 228 692 250 q 657 191 673 207 q 620 166 641 175 q 575 157 598 157 l 393 157 q 347 166 369 157 q 310 191 326 175 l 268 232 q 227 275 243 248 q 211 335 211 302 q 220 380 211 358 q 245 418 230 401 l 218 446 l 211 446 l 211 607 q 222 667 211 640 q 254 715 234 695 q 302 747 275 736 q 363 758 330 758 l 636 758 l 636 886 l 422 886 q 268 822 332 886 q 205 668 205 760 l 205 182 q 236 71 205 118 q 295 39 263 50 q 363 29 327 29 l 484 29 q 636 92 574 29 q 697 243 697 154 l 697 304 m 422 614 q 405 611 413 614 q 389 606 396 609 l 484 606 q 599 584 547 606 q 696 517 651 562 q 713 498 705 507 q 728 479 720 489 l 754 453 q 842 243 842 366 l 842 182 q 821 67 842 119 q 755 -29 800 15 q 545 -115 669 -115 l 422 -115 q 212 -28 300 -115 l 186 -1 q 168 13 176 5 q 150 31 159 21 q 61 243 61 119 l 61 729 q 82 846 61 793 q 149 943 104 899 q 245 1009 193 988 q 363 1031 298 1031 l 665 1031 q 699 1020 684 1031 q 720 993 713 1010 l 764 949 q 777 932 771 941 q 782 911 782 922 l 782 668 q 777 647 782 657 q 765 630 772 637 q 747 618 758 623 q 726 614 737 614 l 422 614 m 606 335 q 598 370 606 353 q 578 398 591 386 q 549 418 566 410 q 514 425 532 425 l 332 425 q 297 418 313 425 q 268 398 280 410 q 248 370 255 386 q 240 335 240 353 q 248 299 240 316 q 268 270 255 283 q 297 250 280 258 q 332 243 313 243 l 514 243 q 549 250 532 243 q 578 270 566 258 q 598 299 591 283 q 606 335 606 316 m 726 243 q 709 149 726 192 q 656 71 692 106 q 484 0 584 0 l 363 0 q 191 72 260 0 q 119 243 119 143 l 119 729 q 189 901 119 832 q 363 972 261 972 l 665 972 l 665 729 l 363 729 q 314 720 336 729 q 275 694 292 710 q 250 655 259 677 q 240 607 240 633 l 240 450 q 248 488 240 470 q 269 518 256 505 q 300 539 282 532 q 338 547 318 547 l 484 547 q 576 529 534 547 q 656 475 619 511 q 726 304 726 404 l 726 243 m 755 243 l 755 304 q 675 496 755 415 q 484 576 595 576 l 338 576 q 301 571 319 576 q 269 555 284 565 l 269 607 q 276 644 269 627 q 296 673 283 661 q 326 693 309 686 q 363 700 343 700 l 665 700 q 686 709 678 700 q 694 729 694 718 l 694 972 q 686 993 694 984 q 665 1002 678 1002 l 363 1002 q 257 982 305 1002 q 170 922 210 963 q 110 834 129 882 q 90 729 90 787 l 90 243 q 170 52 90 131 q 258 -9 210 11 q 363 -29 305 -29 l 484 -29 q 589 -10 541 -29 q 676 50 637 9 q 736 138 717 90 q 755 243 755 185 m 576 335 q 572 310 576 321 q 558 290 567 299 q 538 277 550 281 q 514 272 527 272 l 332 272 q 307 277 319 272 q 287 290 296 281 q 274 310 279 299 q 269 335 269 321 q 274 358 269 347 q 287 378 279 370 q 307 391 296 387 q 332 396 319 396 l 514 396 q 538 391 527 396 q 558 378 550 387 q 572 358 567 370 q 576 335 576 347 z "},"7":{"ha":907,"x_min":60,"x_max":842,"o":"m 604 751 l 663 694 l 264 29 l 271 29 l 697 741 l 697 886 l 205 886 l 205 758 l 608 758 l 604 751 m 93 676 q 70 697 79 684 q 61 729 61 711 l 61 972 q 66 995 61 985 q 78 1014 71 1006 q 97 1026 86 1021 q 119 1031 107 1031 l 726 1031 q 760 1020 745 1031 q 781 993 774 1010 l 825 949 q 837 932 833 941 q 842 911 842 922 l 842 653 l 397 -89 q 388 -99 394 -94 q 375 -107 382 -104 q 361 -113 368 -111 q 350 -115 355 -115 l 179 -115 q 140 -100 155 -115 l 93 -54 q 68 -33 77 -47 q 60 -1 60 -18 q 61 13 60 4 q 68 31 62 21 l 418 614 l 179 614 q 158 618 169 614 q 140 629 148 622 l 93 676 m 289 0 l 119 0 l 557 729 l 119 729 l 119 972 l 726 972 l 726 729 l 289 0 m 755 721 l 755 972 q 747 993 755 984 q 726 1002 739 1002 l 119 1002 q 99 993 107 1002 q 90 972 90 984 l 90 729 q 99 709 90 718 q 119 700 107 700 l 504 700 l 93 14 q 89 -1 89 6 q 93 -15 89 -9 q 103 -25 96 -21 q 119 -29 110 -29 l 289 -29 q 303 -25 294 -29 q 315 -16 312 -21 l 755 721 z "},"8":{"ha":907,"x_min":61,"x_max":842,"o":"m 306 612 q 311 607 308 609 l 306 612 m 306 309 q 308 306 307 307 q 311 304 309 306 l 306 309 m 363 253 q 365 250 364 251 q 367 248 365 249 l 363 253 m 363 557 q 365 554 364 555 q 367 551 365 553 l 363 557 m 393 310 q 379 307 386 310 q 368 301 372 304 l 514 301 q 534 310 526 301 l 393 310 m 393 614 q 379 611 386 614 q 368 606 372 609 l 514 606 q 525 607 519 606 q 534 614 530 608 l 393 614 m 697 279 q 644 412 697 349 q 634 418 639 414 q 624 425 629 422 l 587 461 l 393 461 q 347 469 369 461 q 310 494 326 477 l 268 536 q 227 579 243 552 q 211 637 211 606 q 221 685 211 663 q 247 723 231 707 q 285 749 263 739 q 332 758 307 758 l 514 758 q 575 741 547 758 q 618 694 602 724 l 656 659 q 670 639 664 649 q 682 618 677 629 q 694 655 690 637 q 697 693 697 673 l 697 729 q 688 797 697 765 q 657 856 678 828 q 604 878 632 870 q 545 886 576 886 l 422 886 q 268 822 332 886 q 205 668 205 760 l 205 632 q 212 577 205 604 q 233 528 218 551 q 260 506 246 516 q 292 486 275 496 q 286 482 289 485 l 315 453 q 322 454 319 453 q 332 454 326 454 l 514 454 q 575 437 547 454 q 618 392 602 420 l 656 354 q 682 318 671 338 q 692 273 692 298 q 682 228 692 250 q 657 191 673 207 q 620 166 641 175 q 575 157 598 157 l 393 157 q 347 166 369 157 q 310 191 326 175 l 268 232 q 218 292 233 253 q 208 256 211 274 q 205 218 205 238 l 205 182 q 212 122 205 151 q 235 69 219 94 q 363 29 289 29 l 484 29 q 636 92 574 29 q 697 243 697 154 l 697 279 m 184 -3 q 166 12 175 3 q 149 29 157 20 q 82 126 104 74 q 61 243 61 179 l 61 279 q 82 393 61 342 q 143 486 103 444 q 61 693 61 570 l 61 729 q 82 846 61 793 q 149 943 104 899 q 245 1009 193 988 q 363 1031 298 1031 l 484 1031 q 600 1009 547 1031 q 697 943 652 988 q 715 924 707 934 q 729 905 723 915 l 754 880 l 753 880 l 755 879 q 821 783 800 835 q 842 668 842 732 l 842 632 q 820 517 842 568 q 758 425 799 466 l 760 424 q 842 218 842 342 l 842 182 q 821 67 842 119 q 755 -29 800 15 q 545 -115 669 -115 l 422 -115 q 307 -94 359 -115 q 211 -29 255 -73 l 184 -3 m 606 335 q 598 370 606 353 q 578 398 591 386 q 549 418 566 410 q 514 425 532 425 l 332 425 q 297 418 313 425 q 268 398 280 410 q 248 370 255 386 q 240 335 240 353 q 248 299 240 316 q 268 270 255 283 q 297 250 280 258 q 332 243 313 243 l 514 243 q 549 250 532 243 q 578 270 566 258 q 598 299 591 283 q 606 335 606 316 m 606 637 q 598 673 606 656 q 578 702 591 690 q 549 722 566 715 q 514 729 532 729 l 332 729 q 297 722 313 729 q 268 702 280 715 q 248 673 255 690 q 240 637 240 656 q 248 602 240 618 q 268 574 255 586 q 297 554 280 562 q 332 547 313 547 l 514 547 q 549 554 532 547 q 578 574 566 562 q 598 602 591 586 q 606 637 606 618 m 726 243 q 709 149 726 192 q 656 71 692 106 q 484 0 584 0 l 363 0 q 189 71 262 0 q 119 243 119 140 l 119 279 q 235 486 119 415 q 119 693 119 557 l 119 729 q 189 901 119 832 q 363 972 261 972 l 484 972 q 656 901 585 972 q 709 823 692 866 q 726 729 726 781 l 726 693 q 611 486 726 557 q 726 279 726 415 l 726 243 m 755 243 l 755 279 q 660 486 755 407 q 755 693 755 564 l 755 729 q 736 834 755 787 q 676 922 717 882 q 589 982 637 963 q 484 1002 541 1002 l 363 1002 q 257 982 305 1002 q 170 922 210 963 q 110 834 129 882 q 90 729 90 787 l 90 693 q 184 486 90 564 q 114 395 138 446 q 90 279 90 345 l 90 243 q 110 138 90 185 q 170 50 129 90 q 257 -10 210 9 q 363 -29 305 -29 l 484 -29 q 589 -10 541 -29 q 676 50 637 9 q 736 138 717 90 q 755 243 755 185 m 576 335 q 572 310 576 321 q 558 290 567 299 q 538 277 550 281 q 514 272 527 272 l 332 272 q 307 277 319 272 q 287 290 296 281 q 274 310 279 299 q 269 335 269 321 q 274 358 269 347 q 287 378 279 370 q 307 391 296 387 q 332 396 319 396 l 514 396 q 538 391 527 396 q 558 378 550 387 q 572 358 567 370 q 576 335 576 347 m 576 637 q 572 614 576 625 q 558 594 567 603 q 538 581 550 586 q 514 576 527 576 l 332 576 q 307 581 319 576 q 287 594 296 586 q 274 614 279 603 q 269 637 269 625 q 274 662 269 650 q 287 682 279 673 q 307 695 296 690 q 332 700 319 700 l 514 700 q 538 695 527 700 q 558 682 550 690 q 572 662 567 673 q 576 637 576 650 z "},"9":{"ha":907,"x_min":61,"x_max":842,"o":"m 363 557 q 365 554 364 555 q 367 551 365 553 l 363 557 m 306 612 q 311 607 308 609 l 306 612 m 393 614 q 379 611 386 614 q 368 606 372 609 l 514 606 q 525 607 519 606 q 534 614 530 608 l 393 614 m 697 729 q 656 856 697 802 q 603 878 631 870 q 545 886 576 886 l 422 886 q 268 822 332 886 q 205 668 205 760 l 205 607 q 213 549 205 576 q 236 496 220 521 q 295 465 263 476 q 363 454 327 454 l 509 454 q 522 456 516 454 q 534 461 528 457 l 393 461 q 347 469 369 461 q 310 494 326 477 l 268 536 q 227 579 243 552 q 211 637 211 606 q 221 685 211 663 q 247 723 231 707 q 285 749 263 739 q 332 758 307 758 l 514 758 q 575 741 547 758 q 618 694 602 724 l 656 659 q 682 621 671 642 q 692 578 692 601 q 682 533 692 554 q 657 496 673 511 l 692 461 l 692 304 q 681 245 692 273 q 649 199 669 218 q 603 168 629 179 q 545 157 576 157 l 267 157 l 267 29 l 484 29 q 636 92 574 29 q 697 243 697 154 l 697 729 m 186 422 q 168 438 176 430 q 150 456 159 446 q 61 668 61 545 l 61 729 q 82 846 61 793 q 149 943 104 899 q 245 1009 193 988 q 363 1031 298 1031 l 484 1031 q 599 1009 547 1031 q 696 942 651 987 q 713 924 705 932 q 728 904 720 915 l 754 879 q 842 668 842 791 l 842 182 q 821 67 842 119 q 755 -29 800 15 q 545 -115 669 -115 l 240 -115 q 219 -111 230 -115 q 201 -100 209 -107 l 154 -53 q 130 -31 140 -45 q 121 0 121 -17 l 121 243 q 125 266 121 255 q 138 284 130 276 q 157 297 146 292 q 179 301 168 301 l 484 301 q 500 303 492 301 q 515 310 509 306 l 422 310 q 212 397 300 310 l 186 422 m 606 637 q 598 673 606 656 q 578 702 591 690 q 549 722 566 715 q 514 729 532 729 l 332 729 q 297 722 313 729 q 268 702 280 715 q 248 673 255 690 q 240 637 240 656 q 248 602 240 618 q 268 574 255 586 q 297 554 280 562 q 332 547 313 547 l 514 547 q 549 554 532 547 q 578 574 566 562 q 598 602 591 586 q 606 637 606 618 m 726 243 q 709 149 726 192 q 656 71 692 106 q 484 0 584 0 l 179 0 l 179 243 l 484 243 q 532 252 509 243 q 570 278 554 262 q 596 316 587 294 q 606 364 606 338 l 606 522 q 598 485 606 503 q 577 454 590 467 q 546 433 564 441 q 509 425 528 425 l 363 425 q 269 444 312 425 q 191 497 226 462 q 119 668 119 568 l 119 729 q 189 901 119 832 q 363 972 261 972 l 484 972 q 576 954 534 972 q 656 900 619 936 q 726 729 726 828 l 726 243 m 755 243 l 755 729 q 675 921 755 842 q 484 1002 597 1002 l 363 1002 q 257 982 305 1002 q 170 922 210 963 q 110 834 129 882 q 90 729 90 787 l 90 668 q 170 476 90 555 q 258 416 210 435 q 363 396 305 396 l 509 396 q 544 401 526 396 q 576 415 562 406 l 576 364 q 569 328 576 345 q 550 299 562 311 q 520 279 537 286 q 484 272 503 272 l 179 272 q 159 263 168 272 q 150 243 150 254 l 150 0 q 159 -20 150 -12 q 179 -29 168 -29 l 484 -29 q 589 -10 541 -29 q 676 50 637 9 q 736 138 717 90 q 755 243 755 185 m 576 637 q 572 614 576 625 q 558 594 567 603 q 538 581 550 586 q 514 576 527 576 l 332 576 q 307 581 319 576 q 287 594 296 586 q 274 614 279 603 q 269 637 269 625 q 274 662 269 650 q 287 682 279 673 q 307 695 296 690 q 332 700 319 700 l 514 700 q 538 695 527 700 q 558 682 550 690 q 572 662 567 673 q 576 637 576 650 z "}," ":{"ha":547,"x_min":0,"x_max":0,"o":""},"!":{"ha":469,"x_min":61,"x_max":404,"o":"m 205 29 l 260 29 l 260 83 l 205 83 l 205 29 m 229 566 l 252 886 l 207 886 l 229 566 m 93 -53 q 70 -31 79 -45 q 61 0 61 -17 l 61 170 q 66 192 61 182 q 78 211 71 203 q 97 223 86 218 q 119 228 107 228 l 154 228 l 144 237 q 120 257 130 243 q 110 286 111 271 l 61 968 l 61 972 q 66 995 61 985 q 78 1014 71 1006 q 97 1026 86 1021 q 119 1031 107 1031 l 289 1031 q 322 1020 308 1031 q 343 993 337 1010 l 387 949 q 399 932 395 941 q 404 911 404 922 l 404 908 l 355 227 q 342 195 353 208 q 343 192 343 193 q 345 189 343 191 l 387 147 q 399 130 395 140 q 404 110 404 120 l 404 -61 q 400 -82 404 -72 q 388 -99 395 -92 q 371 -111 380 -106 q 350 -115 361 -115 l 179 -115 q 158 -111 169 -115 q 140 -100 148 -107 l 93 -53 m 119 0 l 119 170 l 289 170 l 289 0 l 119 0 m 240 292 l 168 292 l 119 972 l 289 972 l 240 292 m 318 970 q 311 992 319 982 q 289 1002 302 1002 l 119 1002 q 97 992 106 1002 q 90 970 89 982 l 139 289 q 149 271 140 279 q 168 262 157 262 l 240 262 q 260 271 252 262 q 269 289 268 279 l 318 970 m 289 -29 q 310 -20 302 -29 q 318 0 318 -12 l 318 170 q 310 190 318 182 q 289 199 302 199 l 119 199 q 99 190 107 199 q 90 170 90 182 l 90 0 q 99 -20 90 -12 q 119 -29 107 -29 l 289 -29 z "},"\"":{"ha":736,"x_min":61,"x_max":672,"o":"m 494 812 l 514 947 l 476 947 l 494 812 m 228 812 l 248 947 l 208 947 l 228 812 m 144 639 q 121 657 131 645 q 110 684 112 670 l 61 1025 l 61 1034 q 65 1056 61 1045 q 77 1074 70 1066 q 96 1087 85 1082 q 119 1092 106 1092 l 289 1092 q 317 1084 304 1092 q 338 1064 329 1076 q 357 1084 345 1076 q 386 1092 370 1092 l 557 1092 q 588 1082 574 1092 q 608 1057 602 1072 l 656 1011 q 668 993 663 1004 q 672 972 672 983 l 672 965 l 624 624 q 604 591 619 605 q 568 578 588 578 l 496 578 q 474 583 484 578 q 457 595 465 587 l 412 639 q 389 657 398 645 q 376 684 380 670 l 371 728 l 355 624 q 336 591 352 605 q 301 578 320 578 l 228 578 q 207 583 217 578 q 189 595 197 587 l 144 639 m 240 693 l 168 693 l 119 1034 l 289 1034 l 240 693 m 509 693 l 435 693 l 386 1034 l 557 1034 l 509 693 m 586 1029 q 579 1053 587 1043 q 557 1063 570 1063 l 386 1063 q 363 1053 372 1063 q 357 1029 355 1043 l 406 689 q 416 671 408 678 q 435 664 425 664 l 509 664 q 527 671 518 664 q 538 689 535 678 l 586 1029 m 318 1029 q 311 1053 320 1043 q 289 1063 302 1063 l 119 1063 q 97 1053 106 1063 q 90 1029 88 1043 l 139 689 q 149 671 140 678 q 168 664 157 664 l 240 664 q 259 671 251 664 q 269 689 267 678 l 318 1029 z "},"#":{"ha":930,"x_min":61,"x_max":867,"o":"m 317 472 l 318 497 l 293 497 l 317 472 m 587 515 l 614 515 l 589 539 l 587 515 m 608 758 l 636 758 l 611 782 l 608 758 m 366 758 l 393 758 l 368 782 l 366 758 m 582 715 l 583 741 l 558 741 l 582 715 m 345 515 l 371 515 l 346 539 l 345 515 m 559 472 l 561 497 l 536 497 l 559 472 m 339 715 l 340 741 l 315 741 l 339 715 m 746 885 l 751 885 q 784 874 769 885 q 804 847 798 864 l 850 803 q 862 786 857 795 q 867 765 867 777 l 867 668 q 862 647 867 657 q 850 630 857 637 q 832 618 842 623 q 811 614 822 614 l 800 614 q 802 608 802 610 q 804 604 803 606 l 850 559 q 862 543 857 552 q 867 522 867 534 l 867 425 q 862 405 867 414 q 850 387 857 395 q 832 375 842 380 q 811 371 822 371 l 701 371 l 694 275 q 676 240 692 254 q 639 225 660 225 l 542 225 q 503 240 519 225 l 456 288 q 452 290 454 288 l 452 275 q 433 240 450 254 q 396 225 417 225 l 298 225 q 278 229 288 225 q 260 240 267 233 l 212 288 q 189 309 198 295 q 179 340 179 323 l 179 345 l 182 371 l 179 371 q 158 375 169 371 q 140 386 148 378 l 93 433 q 70 455 79 441 q 61 486 61 469 l 61 583 q 66 606 61 595 q 78 624 71 616 q 97 637 86 632 q 119 642 107 642 l 129 642 l 93 676 q 70 697 79 684 q 61 729 61 711 l 61 827 q 66 849 61 839 q 78 868 71 860 q 97 880 86 876 q 119 885 107 885 l 227 885 l 235 977 q 240 997 235 987 q 253 1015 245 1007 q 271 1026 261 1022 q 293 1031 281 1031 l 390 1031 q 423 1020 408 1031 q 444 993 438 1010 l 475 960 l 478 977 q 496 1015 480 998 q 536 1031 513 1031 l 633 1031 q 665 1020 651 1031 q 686 993 680 1010 l 732 949 q 744 932 739 941 q 749 911 749 922 l 749 907 l 746 885 m 370 729 l 355 583 l 501 583 l 515 729 l 370 729 m 590 486 l 578 340 l 481 340 l 493 486 l 347 486 l 335 340 l 237 340 l 250 486 l 119 486 l 119 583 l 258 583 l 272 729 l 119 729 l 119 827 l 281 827 l 293 972 l 390 972 l 378 827 l 524 827 l 536 972 l 633 972 l 621 827 l 751 827 l 751 729 l 612 729 l 599 583 l 751 583 l 751 486 l 590 486 m 751 457 q 772 466 763 457 q 781 486 781 475 l 781 583 q 772 604 781 595 q 751 612 763 612 l 631 612 l 639 700 l 751 700 q 772 709 763 700 q 781 729 781 718 l 781 827 q 772 847 781 838 q 751 856 763 856 l 653 856 l 663 970 q 655 992 664 982 q 633 1002 646 1002 l 536 1002 q 517 994 525 1002 q 507 975 509 985 l 497 856 l 410 856 l 419 970 q 412 992 420 982 q 390 1002 403 1002 l 293 1002 q 273 994 281 1002 q 264 975 265 985 l 254 856 l 119 856 q 99 847 107 856 q 90 827 90 838 l 90 729 q 99 709 90 718 q 119 700 107 700 l 239 700 l 232 612 l 119 612 q 99 604 107 612 q 90 583 90 595 l 90 486 q 99 466 90 475 q 119 457 107 457 l 218 457 l 208 343 q 217 320 208 330 q 237 311 225 311 l 335 311 q 355 319 347 311 q 364 338 364 327 l 374 457 l 461 457 l 452 343 q 460 320 452 330 q 481 311 468 311 l 578 311 q 598 319 589 311 q 607 338 607 327 l 616 457 l 751 457 m 396 700 l 482 700 l 475 612 l 387 612 l 396 700 z "},"$":{"ha":907,"x_min":61,"x_max":842,"o":"m 697 364 q 656 490 697 437 q 603 513 631 505 q 545 521 576 521 l 422 521 q 390 528 406 521 q 363 547 374 534 l 318 590 q 284 624 297 603 q 272 668 272 644 q 279 703 272 686 q 299 731 287 719 q 328 751 311 744 q 363 758 345 758 l 697 758 l 697 886 l 519 886 l 461 943 l 454 943 l 454 1007 l 449 1007 l 449 886 q 269 821 335 886 q 222 751 238 789 q 205 668 205 713 q 213 609 205 637 q 236 557 220 581 q 295 526 263 536 q 363 515 327 515 l 484 515 q 529 502 509 515 q 561 469 549 489 l 606 425 q 624 398 617 414 q 631 364 631 382 q 624 331 631 347 q 605 304 616 315 q 577 285 593 292 q 545 278 562 278 l 205 278 l 205 150 l 392 150 l 392 143 l 449 86 l 449 29 l 454 29 l 454 150 q 558 166 513 150 q 635 214 603 182 q 681 283 665 245 q 697 364 697 320 m 654 614 q 675 596 665 606 q 696 578 686 587 q 713 559 705 568 q 728 539 720 549 l 754 514 q 842 304 842 427 q 754 93 842 180 q 682 39 721 60 q 599 9 643 18 l 599 -61 q 594 -82 599 -72 q 583 -99 590 -92 q 565 -111 575 -106 q 545 -115 555 -115 l 422 -115 q 401 -111 412 -115 q 383 -100 391 -107 l 336 -53 q 313 -31 321 -45 q 304 0 304 -17 l 304 5 l 179 5 q 158 10 169 5 q 140 22 148 15 l 93 69 q 70 90 79 77 q 61 121 61 104 l 61 364 q 66 387 61 376 q 78 405 71 397 q 97 418 86 413 q 119 422 107 422 l 253 422 q 232 438 242 430 q 212 458 222 447 l 186 484 q 168 499 176 491 q 150 517 159 507 q 61 729 61 606 q 150 942 61 852 q 220 996 182 975 q 304 1025 258 1017 l 304 1093 q 309 1116 304 1105 q 321 1134 313 1126 q 340 1147 330 1142 q 363 1152 351 1152 l 484 1152 q 517 1141 503 1152 q 538 1114 531 1131 l 582 1071 q 594 1054 589 1063 q 599 1034 599 1044 l 599 1031 l 726 1031 q 760 1020 745 1031 q 781 993 774 1010 l 825 949 q 837 932 833 941 q 842 911 842 922 l 842 668 q 837 647 842 657 q 825 630 833 637 q 808 618 818 623 q 787 614 798 614 l 654 614 m 726 364 q 656 193 726 264 q 576 139 619 157 q 484 121 534 121 l 484 0 l 363 0 l 363 121 l 119 121 l 119 364 l 484 364 q 507 369 496 364 q 527 383 518 374 q 540 402 535 391 q 545 425 545 413 q 527 468 545 450 q 484 486 509 486 l 363 486 q 191 558 260 486 q 119 729 119 629 q 191 900 119 829 q 363 972 262 972 l 363 1093 l 484 1093 l 484 972 l 726 972 l 726 729 l 363 729 q 319 711 337 729 q 301 668 301 693 q 306 645 301 656 q 319 626 311 634 q 339 612 328 617 q 363 607 350 607 l 484 607 q 656 536 582 607 q 726 364 726 465 m 755 364 q 735 469 755 422 q 675 557 715 516 q 484 636 596 636 l 363 636 q 340 646 349 636 q 330 668 330 656 q 340 690 330 681 q 363 700 349 700 l 726 700 q 747 709 739 700 q 755 729 755 718 l 755 972 q 747 993 755 984 q 726 1002 739 1002 l 513 1002 l 513 1093 q 504 1114 513 1105 q 484 1122 496 1122 l 363 1122 q 342 1114 350 1122 q 334 1093 334 1105 l 334 1000 q 245 976 285 996 q 170 921 205 956 q 90 729 90 842 q 170 538 90 616 q 258 477 210 497 q 363 457 305 457 l 484 457 q 506 447 496 457 q 515 425 515 437 q 506 403 515 412 q 484 393 496 393 l 119 393 q 99 385 107 393 q 90 364 90 376 l 90 121 q 99 100 90 109 q 119 92 107 92 l 334 92 l 334 0 q 342 -20 334 -12 q 363 -29 350 -29 l 484 -29 q 504 -20 496 -29 q 513 0 513 -12 l 513 93 q 675 172 607 103 q 755 364 755 253 z "},"%":{"ha":1478,"x_min":61,"x_max":1414,"o":"m 1054 192 q 1057 189 1055 190 q 1060 187 1058 189 l 1054 192 m 999 248 q 1004 243 1001 244 l 999 248 m 332 526 q 336 521 334 524 l 332 526 m 277 582 q 281 578 277 578 l 277 582 m 733 29 l 741 29 l 741 886 l 733 886 l 733 29 m 1149 340 l 1084 340 q 1059 330 1070 340 q 1048 304 1048 319 l 1048 240 l 1116 240 q 1139 250 1129 240 q 1149 273 1149 260 l 1149 340 m 425 675 l 363 675 q 336 664 348 675 q 325 637 325 652 l 325 575 l 393 575 q 416 584 407 575 q 425 607 425 593 l 425 675 m 975 505 q 952 477 962 492 q 936 446 943 463 q 975 474 951 463 q 1025 485 998 485 l 1116 485 q 1177 468 1150 485 q 1219 422 1204 451 l 1258 385 l 1268 371 l 1268 456 q 1263 497 1268 477 q 1246 536 1257 517 q 1213 548 1230 545 q 1177 551 1196 551 l 1084 551 q 975 505 1021 551 m 252 840 q 229 811 238 825 q 212 781 219 796 q 252 808 229 798 q 301 819 275 819 l 393 819 q 454 802 427 819 q 497 755 481 784 l 534 720 l 546 704 l 546 790 q 541 832 546 812 q 522 869 535 852 q 490 882 507 878 q 453 886 473 886 l 363 886 q 302 874 330 886 q 252 840 275 862 m 205 456 q 209 419 205 437 q 221 385 212 401 q 301 364 256 364 l 393 364 q 500 407 457 364 q 536 463 525 430 q 453 431 505 431 l 363 431 q 317 439 338 431 q 279 464 295 447 l 237 505 q 205 536 218 517 l 205 456 m 928 121 q 945 52 928 81 q 982 35 961 40 q 1025 29 1003 29 l 1116 29 q 1223 72 1181 29 q 1258 129 1248 98 q 1223 104 1244 113 q 1177 96 1202 96 l 1084 96 q 1040 105 1061 96 q 1003 131 1019 114 l 961 171 q 943 184 951 177 q 928 201 935 192 l 928 121 m 885 652 q 950 685 916 675 q 1025 696 984 696 l 1116 696 q 1286 627 1217 696 q 1301 609 1295 618 q 1314 591 1308 601 l 1344 562 q 1414 395 1414 494 l 1414 121 q 1344 -47 1414 22 q 1268 -99 1309 -82 q 1177 -115 1227 -115 l 1084 -115 q 918 -46 985 -115 l 888 -16 q 885 -14 886 -16 l 885 -61 q 881 -82 885 -72 q 869 -99 876 -92 q 851 -111 861 -106 q 831 -115 842 -115 l 708 -115 q 687 -111 698 -115 q 669 -100 677 -107 l 623 -53 q 598 -31 608 -45 q 589 0 589 -17 l 589 258 q 525 228 558 237 q 453 218 492 218 l 363 218 q 195 288 262 218 l 164 317 q 147 330 155 323 q 131 346 139 338 q 78 424 95 382 q 61 517 61 467 l 61 790 q 131 960 61 890 q 301 1031 203 1031 l 393 1031 q 562 960 492 1031 q 576 944 570 952 q 589 928 583 936 l 589 972 q 593 995 589 985 q 606 1014 598 1006 q 625 1026 614 1021 q 647 1031 635 1031 l 770 1031 q 802 1020 787 1031 q 822 993 816 1010 l 868 949 q 880 932 876 941 q 885 911 885 922 l 885 652 m 484 699 q 476 734 484 718 q 456 763 469 751 q 428 783 444 776 q 393 790 412 790 l 301 790 q 266 783 283 790 q 237 763 250 776 q 217 734 224 751 q 210 699 210 718 l 210 607 q 217 572 210 589 q 237 544 224 556 q 266 524 250 531 q 301 517 283 517 l 393 517 q 429 524 412 517 q 458 543 446 530 q 477 571 470 555 q 484 607 484 587 l 484 699 m 1207 364 q 1200 399 1207 382 q 1180 428 1192 416 q 1151 448 1167 441 q 1116 456 1134 456 l 1025 456 q 990 448 1006 456 q 961 428 973 441 q 941 399 948 416 q 933 364 933 382 l 933 273 q 941 238 933 255 q 961 209 948 222 q 990 189 973 197 q 1025 182 1006 182 l 1116 182 q 1152 189 1135 182 q 1181 208 1168 196 q 1200 237 1193 220 q 1207 273 1207 254 l 1207 364 m 575 517 q 562 446 575 478 q 521 386 548 414 q 463 348 495 360 q 393 335 431 335 l 301 335 q 172 387 227 335 q 119 517 119 441 l 119 790 q 172 918 119 865 q 301 972 227 972 l 393 972 q 463 959 430 972 q 521 918 495 945 q 575 790 575 866 l 575 517 m 647 0 l 647 972 l 770 972 l 770 0 l 647 0 m 1297 182 q 1244 53 1297 106 q 1116 0 1194 0 l 1025 0 q 896 53 949 0 q 842 182 842 107 l 842 456 q 896 585 842 530 q 1025 637 949 637 l 1116 637 q 1244 585 1192 637 q 1297 456 1297 530 l 1297 182 m 1326 182 l 1326 456 q 1265 606 1326 544 q 1197 651 1234 636 q 1116 667 1160 667 l 1025 667 q 944 651 981 667 q 875 606 907 636 q 812 456 812 542 l 812 182 q 875 33 812 94 q 1025 -29 939 -29 l 1116 -29 q 1265 32 1204 -29 q 1326 182 1326 91 m 604 517 l 604 790 q 542 939 604 878 q 474 986 510 970 q 393 1002 437 1002 l 301 1002 q 151 939 214 1002 q 90 790 90 878 l 90 517 q 151 367 90 430 q 220 320 183 335 q 301 306 257 306 l 393 306 q 542 366 480 306 q 604 517 604 428 m 770 -29 q 790 -20 781 -29 q 799 0 799 -12 l 799 972 q 790 993 799 984 q 770 1002 781 1002 l 647 1002 q 627 993 635 1002 q 618 972 618 984 l 618 0 q 627 -20 618 -12 q 647 -29 635 -29 l 770 -29 m 454 607 q 437 564 454 581 q 393 546 419 546 l 301 546 q 277 551 288 546 q 257 564 265 555 q 243 584 248 572 q 239 607 239 595 l 239 699 q 243 723 239 711 q 257 743 248 734 q 277 756 265 751 q 301 761 288 761 l 393 761 q 417 756 406 761 q 436 743 428 751 q 450 723 445 734 q 454 699 454 711 l 454 607 m 1178 273 q 1160 229 1178 246 q 1116 211 1143 211 l 1025 211 q 1000 216 1012 211 q 980 229 989 220 q 967 249 972 237 q 962 273 962 260 l 962 364 q 967 389 962 377 q 980 409 972 400 q 1000 422 989 417 q 1025 427 1012 427 l 1116 427 q 1140 422 1128 427 q 1160 409 1152 417 q 1173 389 1168 400 q 1178 364 1178 377 l 1178 273 z "},"&":{"ha":907,"x_min":61,"x_max":842,"o":"m 367 309 q 369 306 368 307 q 372 304 370 306 l 367 309 m 422 557 q 428 551 425 553 l 422 557 m 422 253 q 428 248 425 250 l 422 253 m 367 612 q 372 607 369 609 l 367 612 m 453 310 q 439 307 446 310 q 429 301 433 304 l 473 301 l 473 310 l 453 310 m 205 668 q 233 566 205 614 q 298 521 262 541 q 378 486 334 500 q 374 490 376 488 q 371 494 373 491 l 329 536 q 288 579 304 552 q 272 637 272 606 q 281 685 272 663 q 308 723 291 707 q 346 749 324 739 q 393 758 368 758 l 697 758 l 697 886 l 422 886 q 269 821 335 886 q 222 751 238 789 q 205 668 205 713 m 697 29 l 697 157 l 689 157 l 632 214 l 625 214 l 625 454 l 697 454 l 697 461 l 453 461 q 379 486 410 461 l 371 482 l 400 454 l 561 454 l 561 447 l 618 390 l 618 157 l 453 157 q 408 166 430 157 q 371 191 387 175 l 329 232 q 288 274 304 248 q 272 334 272 301 q 205 182 205 264 q 236 71 205 118 q 295 39 263 50 q 363 29 327 29 l 697 29 m 453 614 q 439 611 446 614 q 429 606 433 609 l 726 606 q 760 595 745 606 q 781 568 774 584 l 825 524 q 837 506 833 516 q 842 486 842 496 l 842 364 q 837 343 842 353 q 825 326 833 334 q 808 314 818 319 q 787 310 798 310 l 770 310 l 770 283 q 776 274 773 278 q 781 264 779 269 l 825 220 q 837 203 833 212 q 842 182 842 193 l 842 -61 q 837 -82 842 -72 q 825 -99 833 -92 q 808 -111 818 -106 q 787 -115 798 -115 l 422 -115 q 212 -28 300 -115 l 186 -1 q 168 13 176 5 q 150 31 159 21 q 61 243 61 119 q 88 378 61 315 q 167 485 115 440 q 88 593 115 530 q 61 729 61 656 q 150 942 61 852 q 363 1031 237 1031 l 726 1031 q 760 1020 745 1031 q 781 993 774 1010 l 825 949 q 837 932 833 941 q 842 911 842 922 l 842 668 q 837 647 842 657 q 825 630 833 637 q 808 618 818 623 q 787 614 798 614 l 453 614 m 532 425 l 393 425 q 358 418 374 425 q 329 398 341 410 q 309 370 316 386 q 301 335 301 353 q 309 299 301 316 q 329 270 316 283 q 358 250 341 258 q 393 243 374 243 l 532 243 l 532 425 m 363 0 q 191 72 260 0 q 119 243 119 143 q 131 323 119 285 q 163 394 142 362 q 215 450 184 426 q 286 486 246 473 q 215 523 246 499 q 163 578 184 547 q 131 649 142 610 q 119 729 119 687 q 191 900 119 829 q 363 972 262 972 l 726 972 l 726 729 l 393 729 q 358 722 374 729 q 329 702 341 715 q 309 673 316 690 q 301 637 301 656 q 309 602 301 618 q 329 574 316 586 q 358 554 341 562 q 393 547 374 547 l 726 547 l 726 425 l 654 425 l 654 243 l 726 243 l 726 0 l 363 0 m 726 -29 q 747 -20 739 -29 q 755 0 755 -12 l 755 243 q 747 263 755 254 q 726 272 739 272 l 684 272 l 684 396 l 726 396 q 747 405 739 396 q 755 425 755 414 l 755 547 q 747 568 755 559 q 726 576 739 576 l 393 576 q 369 581 380 576 q 349 594 357 586 q 335 614 340 603 q 330 637 330 625 q 335 662 330 650 q 349 682 340 673 q 369 695 357 690 q 393 700 380 700 l 726 700 q 747 709 739 700 q 755 729 755 718 l 755 972 q 747 993 755 984 q 726 1002 739 1002 l 363 1002 q 258 982 305 1002 q 170 921 210 962 q 90 729 90 842 q 123 588 90 652 q 216 486 156 524 q 123 384 156 448 q 90 243 90 321 q 170 52 90 131 q 258 -9 210 11 q 363 -29 305 -29 l 726 -29 m 330 335 q 335 358 330 347 q 349 378 340 370 q 369 391 357 387 q 393 396 380 396 l 503 396 l 503 272 l 393 272 q 349 290 367 272 q 330 335 330 309 z "},"'":{"ha":469,"x_min":61,"x_max":404,"o":"m 228 812 l 248 947 l 208 947 l 228 812 m 144 639 q 121 657 131 645 q 110 684 112 670 l 61 1025 l 61 1034 q 65 1056 61 1045 q 77 1074 70 1066 q 96 1087 85 1082 q 119 1092 106 1092 l 289 1092 q 322 1082 308 1092 q 342 1057 336 1072 l 389 1011 q 400 993 396 1004 q 404 972 404 983 l 404 965 l 355 624 q 336 591 352 605 q 301 578 320 578 l 228 578 q 207 583 217 578 q 189 595 197 587 l 144 639 m 240 693 l 168 693 l 119 1034 l 289 1034 l 240 693 m 318 1029 q 311 1053 320 1043 q 289 1063 302 1063 l 119 1063 q 97 1053 106 1063 q 90 1029 88 1043 l 139 689 q 149 671 140 678 q 168 664 157 664 l 240 664 q 259 671 251 664 q 269 689 267 678 l 318 1029 z "},"(":{"ha":603,"x_min":61,"x_max":478,"o":"m 273 121 q 228 174 245 142 q 211 243 211 205 l 211 729 q 220 780 211 756 q 245 824 229 804 q 284 856 262 843 q 334 875 307 869 l 334 986 q 299 968 316 979 q 269 943 283 957 q 222 873 238 911 q 205 790 205 835 l 205 61 q 213 2 205 30 q 236 -50 220 -25 q 334 -90 277 -80 l 334 64 q 318 78 324 69 l 273 121 m 355 179 l 363 179 q 395 169 380 179 q 415 142 409 159 l 461 98 q 473 81 469 91 q 478 61 478 72 l 478 -193 l 433 -237 q 212 -150 300 -237 l 184 -122 q 166 -107 175 -115 q 150 -92 157 -100 q 61 121 61 -3 l 61 850 q 150 1064 61 975 q 363 1152 237 1152 q 395 1141 380 1152 q 415 1114 409 1131 l 461 1071 q 473 1054 469 1063 q 478 1034 478 1044 l 478 790 q 473 769 478 779 q 461 751 469 759 q 444 739 454 744 q 422 734 433 734 q 397 729 409 734 q 375 714 385 724 q 361 693 366 705 q 355 668 355 682 l 355 179 m 363 -122 q 269 -104 312 -122 q 191 -50 226 -85 q 119 121 119 21 l 119 850 q 191 1022 119 951 q 363 1093 260 1093 l 363 850 q 315 840 338 850 q 276 814 293 831 q 250 776 260 798 q 240 729 240 754 l 240 243 q 250 196 240 218 q 276 157 260 174 q 315 131 293 140 q 363 121 338 121 l 363 -122 m 392 -122 l 392 121 q 383 142 392 134 q 363 150 374 150 q 326 157 343 150 q 297 177 309 165 q 277 207 284 190 q 269 243 269 224 l 269 729 q 277 765 269 748 q 297 794 284 782 q 326 813 309 806 q 363 821 343 821 q 383 829 374 821 q 392 850 392 838 l 392 1093 q 383 1114 392 1105 q 363 1122 374 1122 q 258 1103 305 1122 q 170 1043 210 1083 q 110 955 130 1002 q 90 850 90 907 l 90 121 q 170 -71 90 9 q 258 -131 210 -111 q 363 -151 305 -151 l 392 -122 z "},")":{"ha":603,"x_min":121,"x_max":539,"o":"m 393 850 q 383 917 393 886 q 353 977 372 948 q 267 1006 310 1002 l 267 850 q 268 847 267 847 q 300 818 288 834 l 345 772 q 376 726 366 753 q 387 668 387 699 l 387 182 q 378 131 387 155 q 353 87 369 106 q 314 55 336 68 q 267 37 292 42 l 267 -74 q 300 -55 284 -66 q 330 -29 316 -43 q 393 121 393 33 l 393 850 m 154 799 q 130 820 140 806 q 121 850 121 833 l 121 1093 q 125 1116 121 1105 q 138 1134 130 1126 q 157 1147 146 1142 q 179 1152 168 1152 q 296 1130 243 1152 q 393 1064 349 1108 q 424 1025 410 1045 l 452 1000 q 539 790 539 913 l 539 61 q 452 -150 539 -62 q 240 -237 364 -237 q 219 -233 230 -237 q 201 -221 209 -229 l 154 -174 q 130 -152 140 -166 q 121 -122 121 -138 l 121 121 q 125 143 121 133 q 138 162 130 154 q 157 174 146 170 q 179 179 168 179 q 203 184 192 179 q 224 198 215 189 q 238 218 233 207 q 243 243 243 230 l 243 729 l 243 734 l 240 734 q 219 739 230 734 q 201 751 209 744 l 154 799 m 422 121 q 351 -50 422 21 q 273 -104 316 -85 q 179 -122 231 -122 l 179 121 q 227 131 205 121 q 266 157 250 140 q 292 196 282 174 q 301 243 301 218 l 301 729 q 292 776 301 754 q 266 814 282 798 q 227 840 250 831 q 179 850 205 850 l 179 1093 q 351 1022 281 1093 q 422 850 422 951 l 422 121 m 452 121 l 452 850 q 432 955 452 907 q 372 1043 412 1002 q 284 1103 332 1083 q 179 1122 237 1122 q 159 1114 168 1122 q 150 1093 150 1105 l 150 850 q 159 829 150 838 q 179 821 168 821 q 215 813 198 821 q 245 794 232 806 q 265 765 258 782 q 272 729 272 748 l 272 243 q 265 207 272 224 q 245 177 258 190 q 215 157 232 165 q 179 150 198 150 q 159 142 168 150 q 150 121 150 134 l 150 -122 q 159 -142 150 -134 q 179 -151 168 -151 q 284 -131 237 -151 q 372 -71 332 -111 q 452 121 452 9 z "},"*":{"ha":768,"x_min":61,"x_max":704,"o":"m 228 779 l 314 729 l 309 726 l 367 668 l 357 663 l 374 647 l 374 697 l 529 606 l 539 624 l 461 668 l 411 718 l 393 729 l 407 736 l 392 753 l 392 707 l 237 798 l 228 779 m 143 511 q 117 534 127 517 l 68 619 l 68 623 q 62 635 64 629 q 61 648 61 642 q 67 676 61 662 q 89 700 74 690 l 127 722 l 100 750 l 89 757 q 68 781 75 766 q 61 810 61 795 q 71 840 61 827 l 117 921 q 140 943 126 935 q 168 951 153 951 q 182 950 176 951 q 196 945 189 948 l 248 914 l 248 972 q 252 995 248 985 q 264 1014 256 1006 q 283 1026 273 1021 q 306 1031 294 1031 l 403 1031 q 435 1020 420 1031 q 456 993 449 1010 l 500 949 q 503 945 501 947 q 507 940 505 943 l 511 945 q 525 950 519 948 q 539 951 532 951 q 567 945 553 951 q 590 921 581 938 l 593 916 l 637 871 q 647 860 645 866 l 694 777 q 701 763 699 770 q 704 749 704 756 q 697 723 704 736 q 675 700 690 709 l 637 677 q 642 672 639 675 l 686 628 q 699 609 694 619 q 704 587 704 599 q 701 573 704 580 q 694 559 699 566 l 647 476 q 626 457 639 464 q 600 450 614 450 q 574 456 585 450 l 518 489 l 518 425 q 513 405 518 414 q 501 387 509 395 q 484 375 494 380 q 463 371 473 371 l 366 371 q 326 386 342 371 l 279 433 q 256 456 263 442 q 242 451 250 452 q 228 450 235 450 q 208 454 218 450 q 189 465 197 457 q 184 471 186 467 l 143 511 m 539 566 l 403 646 l 403 486 l 306 486 l 306 646 l 168 566 l 119 650 l 257 729 l 119 808 l 168 893 l 306 812 l 306 972 l 403 972 l 403 812 l 539 893 l 587 808 l 452 729 l 587 650 l 539 566 m 614 636 q 617 657 621 646 q 603 675 613 669 l 510 729 l 603 782 q 617 801 613 789 q 614 822 621 812 l 566 908 q 547 922 559 919 q 525 918 536 926 l 432 864 l 432 972 q 423 993 432 984 q 403 1002 414 1002 l 306 1002 q 285 993 293 1002 q 277 972 277 984 l 277 864 l 182 918 q 160 922 172 926 q 142 908 148 919 l 93 822 q 91 801 87 812 q 104 782 95 789 l 197 729 l 104 675 q 91 657 95 669 q 93 636 87 646 l 142 550 q 160 536 148 540 q 182 539 172 532 l 277 595 l 277 486 q 285 466 277 475 q 306 457 293 457 l 403 457 q 423 466 414 457 q 432 486 432 475 l 432 595 l 525 539 q 547 536 536 532 q 566 550 559 540 l 614 636 z "},"+":{"ha":785,"x_min":61,"x_max":721,"o":"m 382 359 l 382 387 l 354 387 l 382 359 m 400 406 l 428 406 l 400 433 l 400 406 m 526 532 l 606 532 q 637 522 623 532 q 659 494 652 511 l 704 452 q 716 434 711 444 q 721 412 721 424 l 721 315 q 716 295 721 304 q 704 277 711 285 q 686 266 696 270 q 665 261 676 261 l 526 261 l 526 121 q 522 100 526 110 q 509 83 517 90 q 492 71 502 75 q 471 66 481 66 l 374 66 q 353 71 363 66 q 335 82 342 75 l 288 131 q 264 152 273 138 q 256 182 256 165 l 256 261 l 179 261 q 158 265 169 261 q 140 277 148 269 l 93 325 q 70 346 79 332 q 61 376 61 359 l 61 473 q 66 496 61 486 q 78 514 71 507 q 97 527 86 522 q 119 532 107 532 l 256 532 l 256 668 q 260 691 256 680 q 273 709 265 701 q 291 722 281 717 q 314 726 302 726 l 411 726 q 443 716 429 726 q 464 689 458 706 l 510 646 q 522 628 517 638 q 526 607 526 618 l 526 532 m 411 376 l 411 182 l 314 182 l 314 376 l 119 376 l 119 473 l 314 473 l 314 668 l 411 668 l 411 473 l 606 473 l 606 376 l 411 376 m 606 347 q 626 356 617 347 q 635 376 635 365 l 635 473 q 626 494 635 486 q 606 503 617 503 l 440 503 l 440 668 q 431 689 440 681 q 411 697 422 697 l 314 697 q 293 689 301 697 q 285 668 285 681 l 285 503 l 119 503 q 99 494 107 503 q 90 473 90 486 l 90 376 q 99 356 90 365 q 119 347 107 347 l 285 347 l 285 182 q 293 161 285 170 q 314 153 301 153 l 411 153 q 431 161 422 153 q 440 182 440 170 l 440 347 l 606 347 z "},",":{"ha":469,"x_min":61,"x_max":404,"o":"m 228 -49 l 248 83 l 208 83 l 228 -49 m 144 -224 q 121 -205 131 -217 q 110 -180 112 -194 l 61 163 l 61 170 q 77 211 61 193 q 119 228 94 228 l 289 228 q 322 218 308 228 q 342 195 336 209 l 389 149 q 400 131 396 141 q 404 110 404 120 l 404 102 l 355 -239 q 336 -272 352 -258 q 301 -286 320 -286 l 228 -286 q 207 -281 217 -286 q 189 -268 197 -275 l 144 -224 m 240 -171 l 168 -171 l 119 170 l 289 170 l 240 -171 m 318 167 q 311 190 320 180 q 289 199 302 199 l 119 199 q 97 190 106 199 q 90 167 88 180 l 139 -174 q 149 -192 140 -184 q 168 -200 157 -200 l 240 -200 q 259 -192 251 -200 q 269 -174 267 -184 l 318 167 z "},"-":{"ha":785,"x_min":61,"x_max":721,"o":"m 93 325 q 70 346 79 332 q 61 376 61 359 l 61 473 q 66 496 61 486 q 78 514 71 507 q 97 527 86 522 q 119 532 107 532 l 606 532 q 637 522 623 532 q 659 494 652 511 l 704 452 q 716 434 711 444 q 721 412 721 424 l 721 315 q 716 295 721 304 q 704 277 711 285 q 686 266 696 270 q 665 261 676 261 l 179 261 q 158 265 169 261 q 140 277 148 269 l 93 325 m 119 376 l 119 473 l 606 473 l 606 376 l 119 376 m 606 347 q 626 356 617 347 q 635 376 635 365 l 635 473 q 626 494 635 486 q 606 503 617 503 l 119 503 q 99 494 107 503 q 90 473 90 486 l 90 376 q 99 356 90 365 q 119 347 107 347 l 606 347 z "},"­":{"ha":785,"x_min":61,"x_max":721,"o":"m 93 325 q 70 346 79 332 q 61 376 61 359 l 61 473 q 66 496 61 486 q 78 514 71 507 q 97 527 86 522 q 119 532 107 532 l 606 532 q 637 522 623 532 q 659 494 652 511 l 704 452 q 716 434 711 444 q 721 412 721 424 l 721 315 q 716 295 721 304 q 704 277 711 285 q 686 266 696 270 q 665 261 676 261 l 179 261 q 158 265 169 261 q 140 277 148 269 l 93 325 m 119 376 l 119 473 l 606 473 l 606 376 l 119 376 m 606 347 q 626 356 617 347 q 635 376 635 365 l 635 473 q 626 494 635 486 q 606 503 617 503 l 119 503 q 99 494 107 503 q 90 473 90 486 l 90 376 q 99 356 90 365 q 119 347 107 347 l 606 347 z "},".":{"ha":469,"x_min":61,"x_max":404,"o":"m 205 29 l 260 29 l 260 83 l 205 83 l 205 29 m 93 -53 q 70 -31 79 -45 q 61 0 61 -17 l 61 170 q 66 192 61 182 q 78 211 71 203 q 97 223 86 218 q 119 228 107 228 l 289 228 q 322 217 308 228 q 343 191 337 207 l 387 147 q 399 130 395 140 q 404 110 404 120 l 404 -61 q 400 -82 404 -72 q 388 -99 395 -92 q 371 -111 380 -106 q 350 -115 361 -115 l 179 -115 q 158 -111 169 -115 q 140 -100 148 -107 l 93 -53 m 119 0 l 119 170 l 289 170 l 289 0 l 119 0 m 289 -29 q 310 -20 302 -29 q 318 0 318 -12 l 318 170 q 310 190 318 182 q 289 199 302 199 l 119 199 q 99 190 107 199 q 90 170 90 182 l 90 0 q 99 -20 90 -12 q 119 -29 107 -29 l 289 -29 z "},"/":{"ha":768,"x_min":29,"x_max":734,"o":"m 65 -119 q 39 -98 48 -113 q 29 -64 29 -83 q 33 -43 29 -50 l 449 1097 q 472 1126 456 1116 q 505 1136 487 1136 q 514 1136 509 1136 q 525 1132 519 1135 l 526 1132 l 637 1092 q 672 1060 662 1080 l 720 1014 q 731 997 727 1006 q 734 977 734 987 q 734 965 734 970 q 732 957 733 961 l 730 957 l 730 956 l 315 -186 q 293 -212 308 -203 q 262 -221 278 -221 q 254 -221 258 -221 q 245 -220 250 -221 l 131 -178 q 111 -164 119 -174 l 65 -119 m 203 -106 l 89 -64 l 504 1078 l 618 1036 l 203 -106 m 646 1026 q 645 1049 651 1038 q 628 1064 640 1060 l 514 1105 q 492 1104 503 1109 q 476 1088 481 1099 l 61 -54 q 62 -77 56 -66 q 79 -93 68 -87 l 193 -134 q 216 -132 205 -138 q 231 -115 227 -127 l 646 1026 z "},":":{"ha":469,"x_min":61,"x_max":404,"o":"m 205 29 l 260 29 l 260 83 l 205 83 l 205 29 m 205 515 l 260 515 l 260 570 l 205 570 l 205 515 m 93 -53 q 70 -31 79 -45 q 61 0 61 -17 l 61 170 q 66 192 61 182 q 78 211 71 203 q 97 223 86 218 q 119 228 107 228 l 289 228 q 322 217 308 228 q 343 191 337 207 l 387 147 q 399 130 395 140 q 404 110 404 120 l 404 -61 q 400 -82 404 -72 q 388 -99 395 -92 q 371 -111 380 -106 q 350 -115 361 -115 l 179 -115 q 158 -111 169 -115 q 140 -100 148 -107 l 93 -53 m 93 433 q 70 455 79 441 q 61 486 61 469 l 61 656 q 66 679 61 668 q 78 697 71 689 q 97 709 86 705 q 119 714 107 714 l 289 714 q 322 704 308 714 q 343 676 337 693 l 387 633 q 399 616 395 626 q 404 596 404 606 l 404 425 q 400 405 404 414 q 388 387 395 395 q 371 375 380 380 q 350 371 361 371 l 179 371 q 158 375 169 371 q 140 386 148 378 l 93 433 m 119 0 l 119 170 l 289 170 l 289 0 l 119 0 m 119 486 l 119 656 l 289 656 l 289 486 l 119 486 m 289 457 q 310 466 302 457 q 318 486 318 475 l 318 656 q 310 676 318 668 q 289 685 302 685 l 119 685 q 99 676 107 685 q 90 656 90 668 l 90 486 q 99 466 90 475 q 119 457 107 457 l 289 457 m 289 -29 q 310 -20 302 -29 q 318 0 318 -12 l 318 170 q 310 190 318 182 q 289 199 302 199 l 119 199 q 99 190 107 199 q 90 170 90 182 l 90 0 q 99 -20 90 -12 q 119 -29 107 -29 l 289 -29 z "},";":{"ha":469,"x_min":61,"x_max":404,"o":"m 228 -49 l 248 83 l 208 83 l 228 -49 m 205 515 l 260 515 l 260 570 l 205 570 l 205 515 m 93 433 q 70 455 79 441 q 61 486 61 469 l 61 656 q 66 679 61 668 q 78 697 71 689 q 97 709 86 705 q 119 714 107 714 l 289 714 q 322 704 308 714 q 343 676 337 693 l 387 633 q 399 616 395 626 q 404 596 404 606 l 404 425 q 400 405 404 414 q 388 387 395 395 q 371 375 380 380 q 350 371 361 371 l 179 371 q 158 375 169 371 q 140 386 148 378 l 93 433 m 144 -224 q 121 -205 131 -217 q 110 -180 112 -194 l 61 163 l 61 170 q 77 211 61 193 q 119 228 94 228 l 289 228 q 322 218 308 228 q 342 195 336 209 l 389 149 q 400 131 396 141 q 404 110 404 120 l 404 102 l 355 -239 q 336 -272 352 -258 q 301 -286 320 -286 l 228 -286 q 207 -281 217 -286 q 189 -268 197 -275 l 144 -224 m 240 -171 l 168 -171 l 119 170 l 289 170 l 240 -171 m 119 486 l 119 656 l 289 656 l 289 486 l 119 486 m 318 167 q 311 190 320 180 q 289 199 302 199 l 119 199 q 97 190 106 199 q 90 167 88 180 l 139 -174 q 149 -192 140 -184 q 168 -200 157 -200 l 240 -200 q 259 -192 251 -200 q 269 -174 267 -184 l 318 167 m 289 457 q 310 466 302 457 q 318 486 318 475 l 318 656 q 310 676 318 668 q 289 685 302 685 l 119 685 q 99 676 107 685 q 90 656 90 668 l 90 486 q 99 466 90 475 q 119 457 107 457 l 289 457 z "},";":{"ha":469,"x_min":61,"x_max":404,"o":"m 228 -49 l 248 83 l 208 83 l 228 -49 m 205 515 l 260 515 l 260 570 l 205 570 l 205 515 m 93 433 q 70 455 79 441 q 61 486 61 469 l 61 656 q 66 679 61 668 q 78 697 71 689 q 97 709 86 705 q 119 714 107 714 l 289 714 q 322 704 308 714 q 343 676 337 693 l 387 633 q 399 616 395 626 q 404 596 404 606 l 404 425 q 400 405 404 414 q 388 387 395 395 q 371 375 380 380 q 350 371 361 371 l 179 371 q 158 375 169 371 q 140 386 148 378 l 93 433 m 144 -224 q 121 -205 131 -217 q 110 -180 112 -194 l 61 163 l 61 170 q 77 211 61 193 q 119 228 94 228 l 289 228 q 322 218 308 228 q 342 195 336 209 l 389 149 q 400 131 396 141 q 404 110 404 120 l 404 102 l 355 -239 q 336 -272 352 -258 q 301 -286 320 -286 l 228 -286 q 207 -281 217 -286 q 189 -268 197 -275 l 144 -224 m 240 -171 l 168 -171 l 119 170 l 289 170 l 240 -171 m 119 486 l 119 656 l 289 656 l 289 486 l 119 486 m 318 167 q 311 190 320 180 q 289 199 302 199 l 119 199 q 97 190 106 199 q 90 167 88 180 l 139 -174 q 149 -192 140 -184 q 168 -200 157 -200 l 240 -200 q 259 -192 251 -200 q 269 -174 267 -184 l 318 167 m 289 457 q 310 466 302 457 q 318 486 318 475 l 318 656 q 310 676 318 668 q 289 685 302 685 l 119 685 q 99 676 107 685 q 90 656 90 668 l 90 486 q 99 466 90 475 q 119 457 107 457 l 289 457 z "},"<":{"ha":760,"x_min":61,"x_max":694,"o":"m 205 395 l 205 355 l 518 153 l 529 172 l 236 364 l 205 395 m 404 376 l 623 236 l 618 236 q 626 227 623 231 q 632 218 629 222 l 679 170 q 690 152 686 162 q 694 132 694 142 q 693 117 694 125 q 686 102 692 109 l 685 102 l 633 21 l 632 21 q 612 2 625 8 q 587 -4 599 -4 q 555 5 572 -4 l 554 7 l 150 269 q 149 271 150 271 q 146 273 147 272 l 102 317 l 87 326 q 79 336 83 330 q 70 349 74 342 q 64 363 66 356 q 61 376 61 370 l 61 473 q 64 487 61 479 q 70 501 66 494 q 79 514 74 508 q 87 522 83 519 l 494 789 l 494 787 q 526 798 513 798 q 548 792 537 798 q 568 778 559 787 l 568 782 l 587 754 l 633 708 l 686 627 l 685 628 q 693 611 691 619 q 694 597 694 604 q 688 571 694 584 q 668 550 681 557 l 669 550 l 404 376 m 526 111 l 119 376 l 119 473 l 526 739 l 579 657 l 222 425 l 579 193 l 526 111 m 604 178 q 608 199 610 187 q 596 218 606 211 l 277 425 l 596 633 q 608 651 606 640 q 604 673 610 663 l 550 754 q 532 767 544 765 q 510 762 520 770 l 103 498 q 94 487 98 495 q 90 473 90 479 l 90 376 q 94 363 90 371 q 103 353 98 355 l 510 87 q 532 83 520 81 q 550 96 544 85 l 604 178 z "},"=":{"ha":785,"x_min":61,"x_max":721,"o":"m 614 422 l 608 428 l 607 428 l 612 422 l 614 422 m 93 215 q 70 236 79 222 q 61 267 61 250 l 61 364 q 74 400 61 385 q 106 421 87 416 l 93 433 q 70 455 79 441 q 61 486 61 469 l 61 583 q 66 606 61 595 q 78 624 71 616 q 97 637 86 632 q 119 642 107 642 l 606 642 q 637 631 623 642 q 659 604 652 621 l 704 559 q 716 543 711 552 q 721 522 721 534 l 721 425 q 707 390 721 406 q 673 371 692 374 l 704 342 q 716 325 711 334 q 721 304 721 315 l 721 207 q 716 186 721 196 q 704 168 711 176 q 686 156 696 161 q 665 151 676 151 l 179 151 q 158 156 169 151 q 140 168 148 161 l 93 215 m 119 267 l 119 364 l 606 364 l 606 267 l 119 267 m 119 486 l 119 583 l 606 583 l 606 486 l 119 486 m 606 457 q 626 466 617 457 q 635 486 635 475 l 635 583 q 626 604 635 595 q 606 612 617 612 l 119 612 q 99 604 107 612 q 90 583 90 595 l 90 486 q 99 466 90 475 q 119 457 107 457 l 606 457 m 606 237 q 626 246 617 237 q 635 267 635 255 l 635 364 q 626 385 635 376 q 606 393 617 393 l 119 393 q 99 385 107 393 q 90 364 90 376 l 90 267 q 99 246 90 255 q 119 237 107 237 l 606 237 z "},">":{"ha":760,"x_min":61,"x_max":694,"o":"m 528 422 l 550 399 l 550 441 l 240 642 l 228 623 l 532 425 l 528 422 m 102 599 l 77 615 l 81 615 q 66 635 71 624 q 61 657 61 646 q 62 671 61 663 q 69 689 64 680 l 131 782 l 131 778 q 150 792 138 787 q 172 798 161 798 q 186 795 178 798 q 204 787 195 793 l 204 789 l 611 522 q 620 514 615 520 q 628 500 625 507 l 675 456 q 688 435 682 448 q 694 412 694 422 l 694 315 q 692 303 694 310 q 686 290 690 296 q 678 277 683 283 q 669 269 673 272 l 265 5 q 248 -2 257 0 q 233 -4 239 -4 q 214 0 223 -4 q 196 12 204 5 l 149 58 q 131 72 136 64 l 131 68 l 69 161 q 62 178 64 171 q 61 193 61 186 q 66 216 61 205 q 81 236 71 227 l 77 236 l 354 416 l 150 550 l 150 551 q 144 554 146 553 q 140 558 142 556 l 102 599 m 172 111 l 119 193 l 476 425 l 119 657 l 172 739 l 579 473 l 579 376 l 172 111 m 596 353 q 604 363 600 355 q 608 376 608 371 l 608 473 q 604 487 608 479 q 596 498 600 495 l 189 762 q 166 767 178 770 q 149 754 155 765 l 94 673 q 91 651 88 663 q 103 633 94 640 l 422 425 l 103 218 q 91 199 94 211 q 94 178 88 187 l 149 96 q 166 83 155 85 q 189 87 178 81 l 596 353 z "},"?":{"ha":833,"x_min":61,"x_max":770,"o":"m 411 515 q 437 516 424 515 q 461 521 450 517 l 293 521 l 293 515 l 411 515 m 267 29 l 321 29 l 321 83 l 267 83 l 267 29 m 625 729 q 614 797 625 765 q 582 856 603 828 q 530 878 557 870 q 471 886 503 886 l 205 886 l 205 758 l 411 758 q 455 745 435 758 q 489 713 476 732 l 532 668 q 551 641 545 656 q 558 607 558 625 q 554 584 558 595 q 545 562 551 573 q 553 570 549 567 q 561 578 557 574 q 625 729 625 641 m 93 676 q 70 697 79 684 q 61 729 61 711 l 61 972 q 66 995 61 985 q 78 1014 71 1006 q 97 1026 86 1021 q 119 1031 107 1031 l 411 1031 q 624 942 534 1031 q 641 924 633 932 q 656 904 648 915 l 681 879 l 679 879 l 682 879 q 770 668 770 791 q 682 458 770 546 q 471 371 595 371 l 425 371 l 416 227 q 403 195 414 208 q 403 192 403 193 q 404 189 403 191 l 449 147 q 461 130 456 140 q 465 110 465 120 l 465 -61 q 461 -82 465 -72 q 449 -99 456 -92 q 432 -111 441 -106 q 411 -115 422 -115 l 240 -115 q 219 -111 230 -115 q 201 -100 209 -107 l 154 -53 q 130 -31 140 -45 q 121 0 121 -17 l 121 170 q 125 192 121 182 q 138 211 130 203 q 157 223 146 218 q 179 228 168 228 l 215 228 l 205 237 q 181 257 191 243 q 170 286 171 271 l 147 604 l 147 607 q 147 614 147 611 q 149 623 147 618 q 144 626 146 624 q 140 629 142 627 l 93 676 m 179 0 l 179 170 l 350 170 l 350 0 l 179 0 m 654 729 q 582 558 654 631 q 411 486 511 486 l 315 486 l 301 292 l 228 292 l 205 607 l 411 607 q 434 612 423 607 q 453 626 445 617 q 466 645 461 634 q 471 668 471 656 q 466 691 471 680 q 453 711 461 703 q 434 724 445 720 q 411 729 423 729 l 119 729 l 119 972 l 411 972 q 504 954 462 972 q 582 900 546 936 q 636 822 618 864 q 654 729 654 780 m 684 729 q 663 833 684 786 q 603 921 643 881 q 411 1002 522 1002 l 119 1002 q 99 993 107 1002 q 90 972 90 984 l 90 729 q 99 709 90 718 q 119 700 107 700 l 411 700 q 433 690 424 700 q 441 668 441 681 q 433 646 441 656 q 411 636 424 636 l 205 636 q 184 627 193 636 q 176 606 175 618 l 199 289 q 209 271 200 279 q 228 262 217 262 l 301 262 q 320 271 312 262 q 330 289 329 279 l 342 457 l 411 457 q 603 538 522 457 q 684 729 684 617 m 350 -29 q 370 -20 361 -29 q 379 0 379 -12 l 379 170 q 370 190 379 182 q 350 199 361 199 l 179 199 q 159 190 168 199 q 150 170 150 182 l 150 0 q 159 -20 150 -12 q 179 -29 168 -29 l 350 -29 z "},"@":{"ha":1271,"x_min":61,"x_max":1207,"o":"m 943 180 q 947 207 947 193 l 947 237 l 943 180 m 1021 854 q 1009 862 1015 859 q 996 868 1003 865 q 1004 858 1000 863 q 1011 848 1007 853 l 1044 814 q 1034 835 1039 825 q 1021 854 1028 845 m 221 -146 q 227 -158 224 -152 q 235 -171 229 -165 q 255 -185 244 -178 q 277 -197 265 -192 l 243 -163 q 232 -155 237 -159 q 221 -146 227 -150 m 587 298 q 585 266 586 279 q 582 240 583 252 l 639 240 q 666 251 654 240 q 681 278 678 262 q 685 340 685 317 l 633 340 q 603 328 616 340 q 587 298 589 316 m 319 -100 l 325 -100 l 509 -100 q 435 -53 467 -83 l 400 -17 q 386 -6 393 -12 q 372 5 378 -1 q 319 85 335 43 l 319 -100 m 530 504 q 494 457 509 483 q 531 477 511 469 q 572 485 551 485 l 664 485 q 722 470 696 485 q 761 432 747 456 l 802 390 q 806 385 804 387 q 810 380 808 382 l 817 458 q 818 467 818 465 q 818 472 818 471 q 813 508 818 491 q 802 539 809 524 q 741 551 772 551 l 648 551 q 587 540 616 551 q 532 504 558 528 l 530 504 m 452 106 q 454 74 452 88 q 463 46 456 60 q 496 33 478 37 q 532 29 513 29 q 545 29 537 29 q 561 28 553 29 l 587 28 q 690 68 684 28 l 749 62 l 747 56 l 775 29 l 815 29 l 789 56 l 782 56 l 787 134 q 747 106 770 117 q 700 96 725 96 l 608 96 q 566 104 585 96 q 532 126 547 112 l 490 167 q 473 179 482 172 q 458 196 465 186 l 452 118 l 452 106 m 899 567 q 947 493 932 534 l 947 765 l 947 772 l 386 772 q 360 767 372 772 q 339 752 349 762 q 325 731 330 743 q 319 704 319 718 l 319 322 l 332 461 q 356 550 336 509 q 415 627 376 591 q 587 696 489 696 l 679 696 q 844 627 775 696 l 843 627 l 865 602 l 897 570 l 896 570 l 899 567 m 184 -244 q 166 -229 175 -237 q 149 -212 157 -222 q 82 -115 104 -168 q 61 0 61 -63 l 61 729 q 82 844 61 792 q 149 942 104 897 q 363 1031 237 1031 l 848 1031 q 1061 942 972 1031 q 1078 924 1071 932 q 1093 904 1086 915 l 1120 879 q 1207 668 1207 791 l 1207 182 q 1186 67 1207 119 q 1121 -29 1165 15 q 1060 -76 1091 -56 q 991 -104 1028 -95 q 1023 -136 1013 -115 l 1068 -180 q 1080 -198 1076 -188 q 1084 -220 1084 -208 l 1084 -304 q 1068 -342 1084 -326 q 1031 -358 1053 -358 l 422 -358 q 211 -271 298 -358 l 184 -244 m 746 374 q 723 433 746 410 q 664 456 701 456 l 572 456 q 536 448 553 456 q 506 428 519 441 q 483 399 492 416 q 472 364 474 382 q 467 295 469 320 q 465 267 465 271 q 471 233 465 248 q 489 206 477 218 q 515 188 500 195 q 549 182 530 182 l 639 182 q 675 189 658 182 q 705 209 692 197 q 728 238 719 222 q 739 273 737 255 q 744 343 743 319 q 746 374 746 368 m 1092 243 q 1021 71 1092 142 q 848 0 950 0 l 714 0 l 720 61 q 587 -1 711 -1 l 558 -1 q 544 0 551 0 q 532 0 537 0 q 412 47 462 0 q 376 102 389 73 q 364 167 364 131 q 364 172 364 168 q 366 182 364 176 l 390 456 q 454 585 397 530 q 587 637 513 637 l 679 637 q 799 590 751 637 q 847 472 847 544 q 847 466 847 471 q 846 456 847 462 l 812 85 l 885 85 q 933 94 911 85 q 971 120 955 104 q 997 159 987 136 q 1006 207 1006 181 l 1006 765 q 996 812 1006 790 q 970 851 987 835 q 932 878 954 868 q 885 888 910 888 l 325 888 q 278 878 300 888 q 239 851 256 868 q 214 812 223 835 q 204 765 204 790 l 204 -36 q 214 -83 204 -61 q 239 -122 223 -106 q 278 -149 256 -139 q 325 -158 300 -158 l 970 -158 l 970 -243 l 363 -243 q 189 -171 260 -243 q 119 0 119 -101 l 119 729 q 189 900 119 830 q 269 954 226 936 q 363 972 312 972 l 848 972 q 1019 900 948 972 q 1074 822 1055 864 q 1092 729 1092 780 l 1092 243 m 1121 243 l 1121 729 q 1101 833 1121 786 q 1040 921 1080 881 q 848 1002 960 1002 l 363 1002 q 170 921 248 1002 q 110 833 129 881 q 90 729 90 786 l 90 0 q 110 -104 90 -57 q 170 -192 129 -152 q 363 -272 249 -272 l 970 -272 q 990 -263 982 -272 q 999 -243 999 -254 l 999 -158 q 990 -137 999 -146 q 970 -129 982 -129 l 325 -129 q 290 -122 307 -129 q 261 -102 273 -115 q 241 -72 248 -89 q 233 -36 233 -56 l 233 765 q 241 801 233 784 q 261 831 248 819 q 290 851 273 844 q 325 859 307 859 l 885 859 q 921 851 904 859 q 950 831 937 844 q 969 801 962 819 q 977 765 977 784 l 977 207 q 969 170 977 187 q 950 141 962 153 q 921 121 938 128 q 885 114 905 114 l 844 114 l 875 453 l 875 452 q 876 465 876 459 q 876 472 876 470 q 818 612 876 559 q 679 667 762 667 l 587 667 q 506 651 543 667 q 435 607 469 636 q 361 458 370 545 l 336 184 l 336 186 q 335 174 335 180 q 335 167 335 168 q 393 26 335 84 q 532 -29 451 -29 q 542 -29 536 -29 q 555 -31 547 -29 l 587 -31 q 689 -16 650 -31 q 714 -29 698 -29 l 848 -29 q 954 -10 906 -29 q 1042 50 1001 9 q 1121 243 1121 130 m 717 374 q 715 345 717 368 q 710 277 713 321 q 686 230 707 249 q 639 211 666 211 l 549 211 q 510 227 526 211 q 494 267 494 243 q 496 294 494 270 q 501 363 498 317 q 509 387 503 376 q 525 408 515 399 q 547 421 535 416 q 572 427 559 427 l 664 427 q 702 412 687 427 q 717 374 717 397 z "},"A":{"ha":907,"x_min":61,"x_max":842,"o":"m 355 422 l 547 422 l 547 607 l 547 614 l 422 614 q 397 608 409 614 q 375 594 385 603 q 361 573 366 585 q 355 547 355 561 l 355 422 m 218 335 l 211 335 l 211 607 q 223 666 211 639 q 255 714 235 694 q 303 746 275 734 q 363 758 331 758 l 484 758 q 560 739 526 758 q 614 686 594 720 l 648 652 q 680 605 668 632 q 692 547 692 578 l 692 278 l 277 278 l 218 335 m 635 265 l 692 208 l 692 29 l 697 29 l 697 729 q 688 797 697 765 q 657 856 678 828 q 604 878 632 870 q 545 886 576 886 l 422 886 q 269 821 335 886 q 222 751 238 789 q 205 668 205 713 l 205 29 l 211 29 l 211 272 l 635 272 l 635 265 m 93 -53 q 70 -31 79 -45 q 61 0 61 -17 l 61 729 q 150 942 61 852 q 363 1031 237 1031 l 484 1031 q 600 1009 547 1031 q 697 943 652 988 q 715 924 707 934 q 729 905 723 915 l 755 879 q 821 783 800 835 q 842 668 842 732 l 842 -61 q 837 -82 842 -72 q 825 -99 833 -92 q 808 -111 818 -106 q 787 -115 798 -115 l 665 -115 q 645 -111 655 -115 q 627 -100 634 -107 l 579 -53 q 556 -31 564 -45 q 547 0 547 -17 l 547 127 l 355 127 l 355 -61 q 351 -82 355 -72 q 339 -99 347 -92 q 322 -111 332 -106 q 301 -115 312 -115 l 179 -115 q 158 -111 169 -115 q 140 -100 148 -107 l 93 -53 m 606 607 q 596 655 606 633 q 570 694 587 677 q 532 720 554 710 q 484 729 509 729 l 363 729 q 315 720 338 729 q 276 693 293 710 q 250 654 260 677 q 240 607 240 632 l 240 364 l 606 364 l 606 607 m 606 0 l 606 243 l 240 243 l 240 0 l 119 0 l 119 729 q 191 900 119 829 q 363 972 262 972 l 484 972 q 656 901 585 972 q 709 823 692 866 q 726 729 726 781 l 726 0 l 606 0 m 726 -29 q 747 -20 739 -29 q 755 0 755 -12 l 755 729 q 736 834 755 787 q 676 922 717 882 q 589 982 637 963 q 484 1002 541 1002 l 363 1002 q 258 982 305 1002 q 170 921 210 962 q 90 729 90 842 l 90 0 q 99 -20 90 -12 q 119 -29 107 -29 l 240 -29 q 261 -20 253 -29 q 269 0 269 -12 l 269 214 l 576 214 l 576 0 q 585 -20 576 -12 q 606 -29 593 -29 l 726 -29 m 269 607 q 277 643 269 626 q 297 673 284 660 q 326 693 309 686 q 363 700 343 700 l 484 700 q 520 693 503 700 q 550 673 537 686 q 569 644 562 661 q 576 607 576 627 l 576 393 l 269 393 l 269 607 z "},"B":{"ha":907,"x_min":61,"x_max":842,"o":"m 355 606 l 453 606 q 464 607 459 606 q 473 614 469 608 l 355 614 l 355 606 m 355 301 l 453 301 q 473 310 465 301 l 355 310 l 355 301 m 218 214 l 211 214 l 211 454 l 453 454 q 515 437 488 454 q 558 392 543 420 l 596 354 q 621 318 612 338 q 631 273 631 298 q 622 228 631 250 q 596 191 612 207 q 559 166 581 175 q 514 157 538 157 l 277 157 l 218 214 m 697 243 q 684 311 697 277 q 644 374 670 345 q 595 402 621 389 q 538 425 568 416 l 501 461 l 277 461 l 218 518 l 211 518 l 211 758 l 453 758 q 515 741 488 758 q 558 694 543 724 l 596 659 q 621 621 612 642 q 631 578 631 601 l 631 566 q 644 578 638 572 q 656 591 650 585 q 687 651 677 619 q 697 717 697 682 l 697 729 q 656 856 697 802 q 603 878 631 870 q 545 886 576 886 l 205 886 l 205 29 l 484 29 q 565 45 528 29 q 635 92 603 61 q 681 161 665 123 q 697 243 697 199 m 93 -53 q 70 -31 79 -45 q 61 0 61 -17 l 61 972 q 66 995 61 985 q 78 1014 71 1006 q 97 1026 86 1021 q 119 1031 107 1031 l 484 1031 q 599 1009 547 1031 q 696 942 651 987 q 713 924 705 932 q 728 904 720 915 l 754 879 q 842 668 842 791 l 842 656 q 834 588 842 620 q 811 524 827 555 l 812 522 l 799 500 q 791 491 794 496 q 783 481 787 486 l 782 481 q 757 452 769 465 q 733 427 745 438 l 753 406 q 819 305 797 363 q 842 182 842 248 q 754 -28 842 60 q 545 -115 667 -115 l 179 -115 q 158 -111 169 -115 q 140 -100 148 -107 l 93 -53 m 545 335 q 537 370 545 353 q 517 398 530 386 q 488 418 505 410 q 453 425 471 425 l 240 425 l 240 243 l 453 243 q 488 250 471 243 q 517 270 505 258 q 537 299 530 283 q 545 335 545 316 m 545 637 q 537 673 545 656 q 517 702 530 690 q 488 722 505 715 q 453 729 471 729 l 240 729 l 240 547 l 453 547 q 488 554 471 547 q 517 574 505 562 q 537 602 530 586 q 545 637 545 618 m 726 243 q 656 72 726 144 q 484 0 583 0 l 119 0 l 119 972 l 484 972 q 576 954 534 972 q 656 900 619 936 q 726 729 726 828 l 726 717 q 715 642 726 678 q 679 575 703 606 q 626 520 656 543 q 558 486 596 498 q 630 450 598 473 q 683 394 661 426 q 715 323 704 362 q 726 243 726 285 m 755 243 q 723 385 755 321 q 628 486 690 448 q 704 558 673 513 l 703 558 q 743 634 730 595 q 755 717 755 673 l 755 729 q 675 921 755 842 q 484 1002 597 1002 l 119 1002 q 99 993 107 1002 q 90 972 90 984 l 90 0 q 99 -20 90 -12 q 119 -29 107 -29 l 484 -29 q 675 52 597 -29 q 755 243 755 130 m 515 637 q 511 614 515 625 q 497 594 506 603 q 477 581 489 586 q 453 576 466 576 l 269 576 l 269 700 l 453 700 q 477 695 466 700 q 497 682 489 690 q 511 662 506 673 q 515 637 515 650 m 515 335 q 511 310 515 321 q 497 290 506 299 q 477 277 489 281 q 453 272 466 272 l 269 272 l 269 396 l 453 396 q 477 391 466 396 q 497 378 489 387 q 511 358 506 370 q 515 335 515 347 z "},"C":{"ha":907,"x_min":61,"x_max":842,"o":"m 697 29 l 697 157 l 422 157 q 365 168 392 157 q 318 199 338 179 l 279 237 q 229 291 248 258 q 211 364 211 324 l 211 607 q 223 666 211 639 q 255 714 235 694 q 303 746 275 734 q 363 758 331 758 l 697 758 l 697 886 l 422 886 q 269 821 335 886 q 222 751 238 789 q 205 668 205 713 l 205 182 q 236 71 205 118 q 295 39 263 50 q 363 29 327 29 l 697 29 m 355 301 l 363 301 l 726 301 q 760 291 745 301 q 781 264 774 281 l 825 220 q 837 203 833 212 q 842 182 842 193 l 842 -61 q 837 -82 842 -72 q 825 -99 833 -92 q 808 -111 818 -106 q 787 -115 798 -115 l 422 -115 q 212 -28 300 -115 l 186 -1 q 168 13 176 5 q 150 31 159 21 q 61 243 61 119 l 61 729 q 150 942 61 852 q 363 1031 237 1031 l 726 1031 q 760 1020 745 1031 q 781 993 774 1010 l 825 949 q 837 932 833 941 q 842 911 842 922 l 842 668 q 837 647 842 657 q 825 630 833 637 q 808 618 818 623 q 787 614 798 614 l 422 614 q 397 608 409 614 q 375 594 385 603 q 361 573 366 585 q 355 547 355 561 l 355 301 m 363 0 q 191 72 260 0 q 119 243 119 143 l 119 729 q 191 900 119 829 q 363 972 262 972 l 726 972 l 726 729 l 363 729 q 315 720 338 729 q 276 693 293 710 q 250 654 260 677 q 240 607 240 632 l 240 364 q 250 317 240 339 q 276 278 260 295 q 315 252 293 262 q 363 243 338 243 l 726 243 l 726 0 l 363 0 m 726 -29 q 747 -20 739 -29 q 755 0 755 -12 l 755 243 q 747 263 755 254 q 726 272 739 272 l 363 272 q 326 279 343 272 q 297 299 309 287 q 277 329 284 312 q 269 364 269 345 l 269 607 q 277 643 269 626 q 297 673 284 660 q 326 693 309 686 q 363 700 343 700 l 726 700 q 747 709 739 700 q 755 729 755 718 l 755 972 q 747 993 755 984 q 726 1002 739 1002 l 363 1002 q 258 982 305 1002 q 170 921 210 962 q 90 729 90 842 l 90 243 q 170 52 90 131 q 258 -9 210 11 q 363 -29 305 -29 l 726 -29 z "},"D":{"ha":907,"x_min":61,"x_max":842,"o":"m 547 607 l 547 614 l 355 614 l 355 301 l 484 301 q 529 319 511 301 q 547 364 547 338 l 547 607 m 218 214 l 211 214 l 211 758 l 484 758 q 557 740 524 758 q 610 690 590 722 l 648 652 q 680 605 668 632 q 692 547 692 578 l 692 304 q 681 245 692 273 q 649 199 669 218 q 603 168 629 179 q 545 157 576 157 l 277 157 l 218 214 m 697 729 q 656 856 697 802 q 603 878 631 870 q 545 886 576 886 l 205 886 l 205 29 l 484 29 q 636 92 574 29 q 697 243 697 154 l 697 729 m 93 -53 q 70 -31 79 -45 q 61 0 61 -17 l 61 972 q 66 995 61 985 q 78 1014 71 1006 q 97 1026 86 1021 q 119 1031 107 1031 l 484 1031 q 599 1009 547 1031 q 696 942 651 987 q 713 924 705 932 q 728 904 720 915 l 754 879 q 842 668 842 791 l 842 182 q 821 67 842 119 q 755 -29 800 15 q 545 -115 669 -115 l 179 -115 q 158 -111 169 -115 q 140 -100 148 -107 l 93 -53 m 606 607 q 596 654 606 632 q 569 693 586 677 q 531 720 553 710 q 484 729 509 729 l 240 729 l 240 243 l 484 243 q 532 252 509 243 q 570 278 554 262 q 596 316 587 294 q 606 364 606 338 l 606 607 m 726 243 q 709 149 726 192 q 656 71 692 106 q 484 0 584 0 l 119 0 l 119 972 l 484 972 q 576 954 534 972 q 656 900 619 936 q 726 729 726 828 l 726 243 m 755 243 l 755 729 q 675 921 755 842 q 484 1002 597 1002 l 119 1002 q 99 993 107 1002 q 90 972 90 984 l 90 0 q 99 -20 90 -12 q 119 -29 107 -29 l 484 -29 q 589 -10 541 -29 q 676 50 637 9 q 736 138 717 90 q 755 243 755 185 m 576 364 q 569 328 576 345 q 550 299 562 311 q 520 279 537 286 q 484 272 503 272 l 269 272 l 269 700 l 484 700 q 519 693 503 700 q 549 673 536 686 q 569 643 562 660 q 576 607 576 626 l 576 364 z "},"E":{"ha":785,"x_min":61,"x_max":721,"o":"m 576 29 l 576 157 l 422 157 q 364 168 391 157 q 318 199 338 179 l 283 235 q 230 288 250 254 q 211 364 211 321 l 211 454 l 454 454 l 454 461 l 277 461 l 218 518 l 211 518 l 211 758 l 576 758 l 576 886 l 205 886 l 205 182 q 212 122 205 151 q 235 69 219 94 q 363 29 289 29 l 576 29 m 355 301 l 363 301 l 606 301 q 637 291 623 301 q 659 264 652 281 l 704 220 q 716 203 711 212 q 721 182 721 193 l 721 -61 q 716 -82 721 -72 q 704 -99 711 -92 q 686 -111 696 -106 q 665 -115 676 -115 l 422 -115 q 307 -94 359 -115 q 211 -29 255 -73 l 184 -3 q 166 12 175 3 q 149 29 157 20 q 82 126 104 74 q 61 243 61 179 l 61 972 q 66 995 61 985 q 78 1014 71 1006 q 97 1026 86 1021 q 119 1031 107 1031 l 606 1031 q 637 1020 623 1031 q 659 993 652 1010 l 704 949 q 716 932 711 941 q 721 911 721 922 l 721 668 q 716 647 721 657 q 704 630 711 637 q 686 618 696 623 q 665 614 676 614 l 355 614 l 355 606 l 484 606 q 517 595 503 606 q 538 568 531 584 l 582 524 q 594 506 589 516 q 599 486 599 496 l 599 364 q 594 343 599 353 q 583 326 590 334 q 565 314 575 319 q 545 310 555 310 l 355 310 l 355 301 m 363 0 q 189 71 262 0 q 119 243 119 140 l 119 972 l 606 972 l 606 729 l 240 729 l 240 547 l 484 547 l 484 425 l 240 425 l 240 364 q 250 316 240 338 q 275 278 259 294 q 314 252 292 262 q 363 243 336 243 l 606 243 l 606 0 l 363 0 m 606 -29 q 626 -20 617 -29 q 635 0 635 -12 l 635 243 q 626 263 635 254 q 606 272 617 272 l 363 272 q 326 279 343 272 q 296 299 309 286 q 276 328 283 311 q 269 364 269 345 l 269 396 l 484 396 q 504 405 496 396 q 513 425 513 414 l 513 547 q 504 568 513 559 q 484 576 496 576 l 269 576 l 269 700 l 606 700 q 626 709 617 700 q 635 729 635 718 l 635 972 q 626 993 635 984 q 606 1002 617 1002 l 119 1002 q 99 993 107 1002 q 90 972 90 984 l 90 243 q 110 138 90 185 q 170 50 129 90 q 257 -10 210 9 q 363 -29 305 -29 l 606 -29 z "},"F":{"ha":754,"x_min":61,"x_max":721,"o":"m 576 758 l 576 886 l 422 886 q 268 822 332 886 q 205 668 205 760 l 205 29 l 211 29 l 211 454 l 454 454 l 454 461 l 277 461 l 218 518 l 211 518 l 211 607 q 222 667 211 640 q 254 715 234 695 q 302 747 275 736 q 363 758 330 758 l 576 758 m 93 -53 q 70 -31 79 -45 q 61 0 61 -17 l 61 729 q 82 846 61 793 q 149 943 104 899 q 245 1009 193 988 q 363 1031 298 1031 l 606 1031 q 637 1020 623 1031 q 659 993 652 1010 l 704 949 q 716 932 711 941 q 721 911 721 922 l 721 668 q 716 647 721 657 q 704 630 711 637 q 686 618 696 623 q 665 614 676 614 l 422 614 q 405 611 413 614 q 389 606 396 609 l 484 606 q 517 595 503 606 q 538 568 531 584 l 582 524 q 594 506 589 516 q 599 486 599 496 l 599 364 q 594 343 599 353 q 583 326 590 334 q 565 314 575 319 q 545 310 555 310 l 355 310 l 355 -61 q 351 -82 355 -72 q 339 -99 347 -92 q 322 -111 332 -106 q 301 -115 312 -115 l 179 -115 q 158 -111 169 -115 q 140 -100 148 -107 l 93 -53 m 363 729 q 314 720 336 729 q 275 694 292 710 q 250 655 259 677 q 240 607 240 633 l 240 547 l 484 547 l 484 425 l 240 425 l 240 0 l 119 0 l 119 729 q 189 901 119 832 q 363 972 261 972 l 606 972 l 606 729 l 363 729 m 606 700 q 626 709 617 700 q 635 729 635 718 l 635 972 q 626 993 635 984 q 606 1002 617 1002 l 363 1002 q 257 982 305 1002 q 170 922 210 963 q 110 834 129 882 q 90 729 90 787 l 90 0 q 99 -20 90 -12 q 119 -29 107 -29 l 240 -29 q 261 -20 253 -29 q 269 0 269 -12 l 269 396 l 484 396 q 504 405 496 396 q 513 425 513 414 l 513 547 q 504 568 513 559 q 484 576 496 576 l 269 576 l 269 607 q 276 644 269 627 q 296 673 283 661 q 326 693 309 686 q 363 700 343 700 l 606 700 z "},"G":{"ha":907,"x_min":61,"x_max":842,"o":"m 697 758 l 697 886 l 422 886 q 269 821 335 886 q 222 751 238 789 q 205 668 205 713 l 205 182 q 236 71 205 118 q 295 39 263 50 q 363 29 327 29 l 685 29 l 685 461 l 510 461 l 510 454 l 623 454 l 623 447 l 679 390 l 679 157 l 422 157 q 365 168 392 157 q 318 199 338 179 l 279 237 q 229 291 248 258 q 211 364 211 324 l 211 607 q 223 666 211 639 q 255 714 235 694 q 303 746 275 734 q 363 758 331 758 l 697 758 m 186 -1 q 168 13 176 5 q 150 31 159 21 q 61 243 61 119 l 61 729 q 150 942 61 852 q 363 1031 237 1031 l 726 1031 q 760 1020 745 1031 q 781 993 774 1010 l 825 949 q 837 932 833 941 q 842 911 842 922 l 842 668 q 837 647 842 657 q 825 630 833 637 q 808 618 818 623 q 787 614 798 614 l 422 614 q 397 608 409 614 q 375 594 385 603 q 361 573 366 585 q 355 547 355 561 l 355 301 l 363 301 l 534 301 l 534 310 l 484 310 q 444 325 460 310 l 397 374 q 373 395 382 381 q 364 425 364 408 l 364 547 q 369 569 364 559 q 382 588 374 580 q 400 601 390 596 q 422 606 411 606 l 714 606 q 747 595 733 606 q 768 568 762 584 l 812 524 q 825 506 820 516 q 831 486 831 496 l 831 -61 q 826 -82 831 -72 q 814 -99 821 -92 q 796 -111 806 -106 q 775 -115 786 -115 l 422 -115 q 212 -28 300 -115 l 186 -1 m 363 729 q 315 720 338 729 q 276 693 293 710 q 250 654 260 677 q 240 607 240 632 l 240 364 q 250 317 240 339 q 276 278 260 295 q 315 252 293 262 q 363 243 338 243 l 593 243 l 593 425 l 422 425 l 422 547 l 714 547 l 714 0 l 363 0 q 191 72 260 0 q 119 243 119 143 l 119 729 q 191 900 119 829 q 363 972 262 972 l 726 972 l 726 729 l 363 729 m 726 700 q 747 709 739 700 q 755 729 755 718 l 755 972 q 747 993 755 984 q 726 1002 739 1002 l 363 1002 q 258 982 305 1002 q 170 921 210 962 q 90 729 90 842 l 90 243 q 170 52 90 131 q 258 -9 210 11 q 363 -29 305 -29 l 714 -29 q 735 -20 726 -29 q 743 0 743 -12 l 743 547 q 735 568 743 559 q 714 576 726 576 l 422 576 q 402 568 411 576 q 393 547 393 559 l 393 425 q 402 405 393 414 q 422 396 411 396 l 564 396 l 564 272 l 363 272 q 326 279 343 272 q 297 299 309 287 q 277 329 284 312 q 269 364 269 345 l 269 607 q 277 643 269 626 q 297 673 284 660 q 326 693 309 686 q 363 700 343 700 l 726 700 z "},"H":{"ha":907,"x_min":61,"x_max":842,"o":"m 635 386 l 692 329 l 692 29 l 697 29 l 697 886 l 692 886 l 692 521 l 277 521 l 218 578 l 211 578 l 211 886 l 205 886 l 205 29 l 211 29 l 211 393 l 635 393 l 635 386 m 355 665 l 547 665 l 547 972 q 552 995 547 985 q 565 1014 557 1006 q 583 1026 572 1021 q 606 1031 593 1031 l 726 1031 q 760 1020 745 1031 q 781 993 774 1010 l 825 949 q 837 932 833 941 q 842 911 842 922 l 842 -61 q 837 -82 842 -72 q 825 -99 833 -92 q 808 -111 818 -106 q 787 -115 798 -115 l 665 -115 q 645 -111 655 -115 q 627 -100 634 -107 l 579 -53 q 556 -31 564 -45 q 547 0 547 -17 l 547 249 l 355 249 l 355 -61 q 351 -82 355 -72 q 339 -99 347 -92 q 322 -111 332 -106 q 301 -115 312 -115 l 179 -115 q 158 -111 169 -115 q 140 -100 148 -107 l 93 -53 q 70 -31 79 -45 q 61 0 61 -17 l 61 972 q 66 995 61 985 q 78 1014 71 1006 q 97 1026 86 1021 q 119 1031 107 1031 l 240 1031 q 274 1020 259 1031 q 294 993 288 1010 l 339 949 q 351 932 347 941 q 355 911 355 922 l 355 665 m 606 0 l 606 364 l 240 364 l 240 0 l 119 0 l 119 972 l 240 972 l 240 607 l 606 607 l 606 972 l 726 972 l 726 0 l 606 0 m 726 -29 q 747 -20 739 -29 q 755 0 755 -12 l 755 972 q 747 993 755 984 q 726 1002 739 1002 l 606 1002 q 585 993 593 1002 q 576 972 576 984 l 576 636 l 269 636 l 269 972 q 261 993 269 984 q 240 1002 253 1002 l 119 1002 q 99 993 107 1002 q 90 972 90 984 l 90 0 q 99 -20 90 -12 q 119 -29 107 -29 l 240 -29 q 261 -20 253 -29 q 269 0 269 -12 l 269 335 l 576 335 l 576 0 q 585 -20 576 -12 q 606 -29 593 -29 l 726 -29 z "},"I":{"ha":542,"x_min":61,"x_max":478,"o":"m 205 29 l 334 29 l 334 160 l 279 214 l 272 214 l 272 758 l 334 758 l 334 886 l 205 886 l 205 758 l 208 758 l 208 751 l 267 694 l 267 157 l 205 157 l 205 29 m 93 -53 q 70 -31 79 -45 q 61 0 61 -17 l 61 243 q 66 266 61 255 q 78 284 71 276 q 97 297 86 292 q 119 301 107 301 l 121 301 l 121 648 l 93 676 q 70 697 79 684 q 61 729 61 711 l 61 972 q 66 995 61 985 q 78 1014 71 1006 q 97 1026 86 1021 q 119 1031 107 1031 l 363 1031 q 395 1020 380 1031 q 415 993 409 1010 l 461 949 q 473 932 469 941 q 478 911 478 922 l 478 668 q 473 647 478 657 q 461 630 469 637 q 444 618 454 623 q 422 614 433 614 l 416 614 l 416 264 l 461 220 q 473 203 469 212 q 478 182 478 193 l 478 -61 q 473 -82 478 -72 q 461 -99 469 -92 q 444 -111 454 -106 q 422 -115 433 -115 l 179 -115 q 158 -111 169 -115 q 140 -100 148 -107 l 93 -53 m 119 0 l 119 243 l 179 243 l 179 729 l 119 729 l 119 972 l 363 972 l 363 729 l 301 729 l 301 243 l 363 243 l 363 0 l 119 0 m 363 -29 q 383 -20 374 -29 q 392 0 392 -12 l 392 243 q 383 263 392 254 q 363 272 374 272 l 330 272 l 330 700 l 363 700 q 383 709 374 700 q 392 729 392 718 l 392 972 q 383 993 392 984 q 363 1002 374 1002 l 119 1002 q 99 993 107 1002 q 90 972 90 984 l 90 729 q 99 709 90 718 q 119 700 107 700 l 150 700 l 150 272 l 119 272 q 99 263 107 272 q 90 243 90 254 l 90 0 q 99 -20 90 -12 q 119 -29 107 -29 l 363 -29 z "},"J":{"ha":664,"x_min":61,"x_max":599,"o":"m 454 886 l 205 886 l 205 758 l 392 758 l 392 751 l 449 694 l 449 304 q 437 245 449 273 q 406 199 426 218 q 359 168 387 179 q 301 157 332 157 l 205 157 l 205 29 l 240 29 q 393 92 330 29 q 454 243 454 154 l 454 886 m 93 676 q 70 697 79 684 q 61 729 61 711 l 61 972 q 66 995 61 985 q 78 1014 71 1006 q 97 1026 86 1021 q 119 1031 107 1031 l 484 1031 q 517 1020 503 1031 q 538 993 531 1010 l 582 949 q 594 932 589 941 q 599 911 599 922 l 599 182 q 578 67 599 119 q 513 -29 557 15 q 301 -115 427 -115 l 179 -115 q 158 -111 169 -115 q 140 -100 148 -107 l 93 -53 q 70 -31 79 -45 q 61 0 61 -17 l 61 243 q 66 266 61 255 q 78 284 71 276 q 97 297 86 292 q 119 301 107 301 l 240 301 q 286 319 268 301 q 304 364 304 338 l 304 614 l 179 614 q 158 618 169 614 q 140 629 148 622 l 93 676 m 484 243 q 466 149 484 192 q 412 71 449 106 q 240 0 342 0 l 119 0 l 119 243 l 240 243 q 289 252 267 243 q 328 278 311 262 q 353 316 344 294 q 363 364 363 338 l 363 729 l 119 729 l 119 972 l 484 972 l 484 243 m 513 243 l 513 972 q 504 993 513 984 q 484 1002 496 1002 l 119 1002 q 99 993 107 1002 q 90 972 90 984 l 90 729 q 99 709 90 718 q 119 700 107 700 l 334 700 l 334 364 q 327 328 334 345 q 307 299 319 311 q 277 279 294 286 q 240 272 260 272 l 119 272 q 99 263 107 272 q 90 243 90 254 l 90 0 q 99 -20 90 -12 q 119 -29 107 -29 l 240 -29 q 346 -10 298 -29 q 433 50 393 9 q 493 138 474 90 q 513 243 513 185 z "},"K":{"ha":907,"x_min":61,"x_max":842,"o":"m 692 661 q 695 683 694 671 q 697 704 697 694 l 697 886 l 692 886 l 692 668 l 692 661 m 205 29 l 211 29 l 211 393 l 484 393 q 560 374 526 393 q 614 322 594 355 l 648 286 q 680 240 668 267 q 692 182 692 214 l 692 29 l 697 29 l 697 267 q 684 331 697 299 q 648 392 671 362 q 622 408 636 400 q 593 425 608 416 l 541 478 q 532 481 536 480 q 524 486 528 483 q 596 529 562 504 q 545 521 570 521 l 277 521 l 218 578 l 211 578 l 211 886 l 205 886 l 205 29 m 355 665 l 484 665 q 509 670 497 665 q 529 684 520 675 q 543 705 538 693 q 547 729 547 716 l 547 972 q 552 995 547 985 q 565 1014 557 1006 q 583 1026 572 1021 q 606 1031 593 1031 l 726 1031 q 760 1020 745 1031 q 781 993 774 1010 l 825 949 q 837 932 833 941 q 842 911 842 922 l 842 644 q 818 524 842 581 q 749 425 793 467 l 753 421 q 819 323 795 378 q 842 207 842 268 l 842 -61 q 837 -82 842 -72 q 825 -99 833 -92 q 808 -111 818 -106 q 787 -115 798 -115 l 665 -115 q 645 -111 655 -115 q 627 -100 634 -107 l 579 -53 q 556 -31 564 -45 q 547 0 547 -17 l 547 243 l 547 249 l 355 249 l 355 -61 q 351 -82 355 -72 q 339 -99 347 -92 q 322 -111 332 -106 q 301 -115 312 -115 l 179 -115 q 158 -111 169 -115 q 140 -100 148 -107 l 93 -53 q 70 -31 79 -45 q 61 0 61 -17 l 61 972 q 66 995 61 985 q 78 1014 71 1006 q 97 1026 86 1021 q 119 1031 107 1031 l 240 1031 q 274 1020 259 1031 q 294 993 288 1010 l 339 949 q 351 932 347 941 q 355 911 355 922 l 355 665 m 606 0 l 606 243 q 596 291 606 269 q 570 330 587 313 q 532 355 554 346 q 484 364 509 364 l 240 364 l 240 0 l 119 0 l 119 972 l 240 972 l 240 607 l 484 607 q 532 616 509 607 q 570 642 554 626 q 596 681 587 659 q 606 729 606 703 l 606 972 l 726 972 l 726 704 q 717 636 726 669 q 690 575 707 604 q 648 524 673 547 q 591 486 623 501 q 648 448 623 471 q 690 397 673 425 q 717 335 707 368 q 726 267 726 302 l 726 0 l 606 0 m 726 -29 q 747 -20 739 -29 q 755 0 755 -12 l 755 267 q 727 390 755 332 q 647 486 699 448 q 727 581 699 524 q 755 704 755 638 l 755 972 q 747 993 755 984 q 726 1002 739 1002 l 606 1002 q 585 993 593 1002 q 576 972 576 984 l 576 729 q 569 692 576 709 q 550 663 562 675 q 520 643 537 650 q 484 636 503 636 l 269 636 l 269 972 q 261 993 269 984 q 240 1002 253 1002 l 119 1002 q 99 993 107 1002 q 90 972 90 984 l 90 0 q 99 -20 90 -12 q 119 -29 107 -29 l 240 -29 q 261 -20 253 -29 q 269 0 269 -12 l 269 335 l 484 335 q 520 328 503 335 q 550 309 537 321 q 569 279 562 296 q 576 243 576 262 l 576 0 q 585 -20 576 -12 q 606 -29 593 -29 l 726 -29 z "},"L":{"ha":785,"x_min":61,"x_max":721,"o":"m 576 29 l 576 157 l 422 157 q 364 168 391 157 q 318 199 338 179 l 283 235 q 230 288 250 254 q 211 364 211 321 l 211 886 l 205 886 l 205 182 q 212 122 205 151 q 235 69 219 94 q 363 29 289 29 l 576 29 m 355 301 l 363 301 l 606 301 q 637 291 623 301 q 659 264 652 281 l 704 220 q 716 203 711 212 q 721 182 721 193 l 721 -61 q 716 -82 721 -72 q 704 -99 711 -92 q 686 -111 696 -106 q 665 -115 676 -115 l 422 -115 q 307 -94 359 -115 q 211 -29 255 -73 l 184 -3 q 166 12 175 3 q 149 29 157 20 q 82 126 104 74 q 61 243 61 179 l 61 972 q 66 995 61 985 q 78 1014 71 1006 q 97 1026 86 1021 q 119 1031 107 1031 l 240 1031 q 274 1020 259 1031 q 294 993 288 1010 l 339 949 q 351 932 347 941 q 355 911 355 922 l 355 301 m 363 0 q 189 71 262 0 q 119 243 119 140 l 119 972 l 240 972 l 240 364 q 250 316 240 338 q 275 278 259 294 q 314 252 292 262 q 363 243 336 243 l 606 243 l 606 0 l 363 0 m 606 -29 q 626 -20 617 -29 q 635 0 635 -12 l 635 243 q 626 263 635 254 q 606 272 617 272 l 363 272 q 326 279 343 272 q 296 299 309 286 q 276 328 283 311 q 269 364 269 345 l 269 972 q 261 993 269 984 q 240 1002 253 1002 l 119 1002 q 99 993 107 1002 q 90 972 90 984 l 90 243 q 110 138 90 185 q 170 50 129 90 q 257 -10 210 9 q 363 -29 305 -29 l 606 -29 z "},"M":{"ha":1393,"x_min":61,"x_max":1328,"o":"m 957 886 q 898 875 927 886 q 843 842 869 863 q 793 791 817 821 q 751 725 770 762 q 795 749 770 741 q 848 758 820 758 l 970 758 q 1043 740 1010 758 q 1096 690 1076 722 l 1135 652 q 1166 605 1154 632 q 1178 547 1178 578 l 1178 29 l 1183 29 l 1183 729 q 1141 856 1183 800 q 1089 878 1116 870 q 1031 886 1062 886 l 957 886 m 692 29 l 697 29 l 697 607 q 702 644 697 627 q 714 676 707 661 l 668 722 q 667 718 667 720 q 665 714 667 715 q 633 792 652 756 q 590 856 614 827 q 544 878 567 870 q 496 886 521 886 l 422 886 q 269 821 335 886 q 222 751 238 789 q 205 668 205 713 l 205 29 l 211 29 l 211 607 q 223 666 211 639 q 255 714 235 694 q 303 746 275 734 q 363 758 331 758 l 484 758 q 560 739 526 758 q 614 686 594 720 l 648 652 q 680 605 668 632 q 692 547 692 578 l 692 29 m 93 -53 q 70 -31 79 -45 q 61 0 61 -17 l 61 729 q 150 942 61 852 q 363 1031 237 1031 l 435 1031 q 562 1002 502 1031 q 665 924 621 974 q 769 1002 709 974 q 897 1031 828 1031 l 970 1031 q 1085 1009 1034 1031 q 1182 942 1137 987 q 1199 924 1192 932 q 1214 904 1206 915 l 1240 879 q 1328 668 1328 791 l 1328 -61 q 1323 -82 1328 -72 q 1312 -99 1319 -92 q 1294 -111 1304 -106 q 1274 -115 1284 -115 l 1152 -115 q 1130 -111 1141 -115 q 1112 -100 1120 -107 l 1065 -53 q 1042 -31 1050 -45 q 1034 0 1034 -17 l 1034 607 l 1034 614 l 908 614 q 861 595 880 614 q 842 547 842 576 l 842 -61 q 837 -82 842 -72 q 825 -99 833 -92 q 808 -111 818 -106 q 787 -115 798 -115 l 665 -115 q 645 -111 655 -115 q 627 -100 634 -107 l 579 -53 q 556 -31 564 -45 q 547 0 547 -17 l 547 607 l 547 614 l 422 614 q 397 608 409 614 q 375 594 385 603 q 361 573 366 585 q 355 547 355 561 l 355 -61 q 351 -82 355 -72 q 339 -99 347 -92 q 322 -111 332 -106 q 301 -115 312 -115 l 179 -115 q 158 -111 169 -115 q 140 -100 148 -107 l 93 -53 m 1092 0 l 1092 607 q 1082 654 1092 632 q 1056 693 1072 677 q 1017 720 1039 710 q 970 729 995 729 l 848 729 q 800 720 823 729 q 762 694 778 710 q 736 655 745 677 q 726 607 726 633 l 726 0 l 606 0 l 606 607 q 596 655 606 633 q 570 694 587 677 q 532 720 554 710 q 484 729 509 729 l 363 729 q 315 720 338 729 q 276 693 293 710 q 250 654 260 677 q 240 607 240 632 l 240 0 l 119 0 l 119 729 q 191 900 119 829 q 363 972 262 972 l 435 972 q 511 961 474 972 q 578 928 547 949 q 631 876 608 906 q 665 807 653 845 q 701 876 677 845 q 754 928 724 906 q 821 961 785 949 q 897 972 857 972 l 970 972 q 1062 954 1020 972 q 1141 900 1105 936 q 1213 729 1213 829 l 1213 0 l 1092 0 m 1213 -29 q 1233 -20 1225 -29 q 1242 0 1242 -12 l 1242 729 q 1161 921 1242 842 q 970 1002 1082 1002 l 897 1002 q 827 993 861 1002 q 764 967 793 984 q 709 927 734 951 q 665 875 684 904 q 622 927 647 904 q 567 967 597 951 q 504 993 537 984 q 435 1002 470 1002 l 363 1002 q 258 982 305 1002 q 170 921 210 962 q 90 729 90 842 l 90 0 q 99 -20 90 -12 q 119 -29 107 -29 l 240 -29 q 261 -20 253 -29 q 269 0 269 -12 l 269 607 q 277 643 269 626 q 297 673 284 660 q 326 693 309 686 q 363 700 343 700 l 484 700 q 520 693 503 700 q 550 673 537 686 q 569 644 562 661 q 576 607 576 627 l 576 0 q 585 -20 576 -12 q 606 -29 593 -29 l 726 -29 q 747 -20 739 -29 q 755 0 755 -12 l 755 607 q 763 644 755 627 q 782 673 770 661 q 812 693 795 686 q 848 700 829 700 l 970 700 q 1006 693 989 700 q 1035 673 1023 686 q 1055 643 1048 660 q 1063 607 1063 626 l 1063 0 q 1071 -20 1063 -12 q 1092 -29 1079 -29 l 1213 -29 z "},"N":{"ha":907,"x_min":61,"x_max":842,"o":"m 205 29 l 211 29 l 211 607 q 223 666 211 639 q 255 714 235 694 q 303 746 275 734 q 363 758 331 758 l 484 758 q 560 739 526 758 q 614 686 594 720 l 648 652 q 680 605 668 632 q 692 547 692 578 l 692 29 l 697 29 l 697 729 q 688 797 697 765 q 657 856 678 828 q 604 878 632 870 q 545 886 576 886 l 422 886 q 268 821 334 886 q 205 668 205 758 l 205 29 m 93 -53 q 70 -31 79 -45 q 61 0 61 -17 l 61 729 q 82 844 61 792 q 149 942 104 897 q 363 1031 237 1031 l 484 1031 q 600 1009 547 1031 q 697 943 652 988 q 715 924 707 934 q 729 905 723 915 l 755 879 q 821 783 800 835 q 842 668 842 732 l 842 -61 q 837 -82 842 -72 q 825 -99 833 -92 q 808 -111 818 -106 q 787 -115 798 -115 l 665 -115 q 645 -111 655 -115 q 627 -100 634 -107 l 579 -53 q 556 -31 564 -45 q 547 0 547 -17 l 547 607 l 547 614 l 422 614 q 397 608 409 614 q 375 594 385 603 q 361 573 366 585 q 355 547 355 561 l 355 -61 q 351 -82 355 -72 q 339 -99 347 -92 q 322 -111 332 -106 q 301 -115 312 -115 l 179 -115 q 158 -111 169 -115 q 140 -100 148 -107 l 93 -53 m 606 0 l 606 607 q 596 655 606 633 q 570 694 587 677 q 532 720 554 710 q 484 729 509 729 l 363 729 q 315 720 338 729 q 276 693 293 710 q 250 654 260 677 q 240 607 240 632 l 240 0 l 119 0 l 119 729 q 189 900 119 830 q 269 954 226 936 q 363 972 312 972 l 484 972 q 656 901 585 972 q 709 823 692 866 q 726 729 726 781 l 726 0 l 606 0 m 726 -29 q 747 -20 739 -29 q 755 0 755 -12 l 755 729 q 736 834 755 787 q 676 922 717 882 q 589 982 637 963 q 484 1002 541 1002 l 363 1002 q 170 921 248 1002 q 110 833 129 881 q 90 729 90 786 l 90 0 q 99 -20 90 -12 q 119 -29 107 -29 l 240 -29 q 261 -20 253 -29 q 269 0 269 -12 l 269 607 q 277 643 269 626 q 297 673 284 660 q 326 693 309 686 q 363 700 343 700 l 484 700 q 520 693 503 700 q 550 673 537 686 q 569 644 562 661 q 576 607 576 627 l 576 0 q 585 -20 576 -12 q 606 -29 593 -29 l 726 -29 z "},"O":{"ha":907,"x_min":61,"x_max":842,"o":"m 547 607 l 547 614 l 422 614 q 397 608 409 614 q 375 594 385 603 q 361 573 366 585 q 355 547 355 561 l 355 301 l 363 301 l 484 301 q 529 319 511 301 q 547 364 547 338 l 547 607 m 279 237 q 229 291 248 258 q 211 364 211 324 l 211 607 q 223 666 211 639 q 255 714 235 694 q 303 746 275 734 q 363 758 331 758 l 484 758 q 557 740 524 758 q 610 690 590 722 l 648 652 q 680 605 668 632 q 692 547 692 578 l 692 304 q 681 245 692 273 q 649 199 669 218 q 603 168 629 179 q 545 157 576 157 l 422 157 q 365 168 392 157 q 318 199 338 179 l 279 237 m 697 729 q 656 856 697 802 q 603 878 631 870 q 545 886 576 886 l 422 886 q 268 821 334 886 q 205 668 205 758 l 205 182 q 212 123 205 151 q 235 69 219 95 q 294 39 262 50 q 363 29 327 29 l 484 29 q 636 92 574 29 q 697 243 697 154 l 697 729 m 184 -3 q 166 12 175 3 q 149 29 157 20 q 82 127 104 74 q 61 243 61 180 l 61 729 q 82 844 61 792 q 149 942 104 897 q 363 1031 237 1031 l 484 1031 q 599 1009 547 1031 q 696 942 651 987 q 713 924 705 932 q 728 904 720 915 l 754 879 q 842 668 842 791 l 842 182 q 821 67 842 119 q 755 -29 800 15 q 545 -115 669 -115 l 422 -115 q 308 -94 361 -115 q 211 -29 255 -73 l 184 -3 m 606 607 q 596 654 606 632 q 569 693 586 677 q 531 720 553 710 q 484 729 509 729 l 363 729 q 315 720 338 729 q 276 693 293 710 q 250 654 260 677 q 240 607 240 632 l 240 364 q 250 317 240 339 q 276 278 260 295 q 315 252 293 262 q 363 243 338 243 l 484 243 q 532 252 509 243 q 570 278 554 262 q 596 316 587 294 q 606 364 606 338 l 606 607 m 726 243 q 709 149 726 192 q 656 71 692 106 q 484 0 584 0 l 363 0 q 189 71 262 0 q 136 150 153 106 q 119 243 119 193 l 119 729 q 189 900 119 830 q 269 954 226 936 q 363 972 312 972 l 484 972 q 576 954 534 972 q 656 900 619 936 q 726 729 726 828 l 726 243 m 755 243 l 755 729 q 675 921 755 842 q 484 1002 597 1002 l 363 1002 q 170 921 248 1002 q 110 833 129 881 q 90 729 90 786 l 90 243 q 110 138 90 186 q 170 50 129 90 q 257 -10 210 9 q 363 -29 305 -29 l 484 -29 q 589 -10 541 -29 q 676 50 637 9 q 736 138 717 90 q 755 243 755 185 m 576 364 q 569 328 576 345 q 550 299 562 311 q 520 279 537 286 q 484 272 503 272 l 363 272 q 326 279 343 272 q 297 299 309 287 q 277 329 284 312 q 269 364 269 345 l 269 607 q 277 643 269 626 q 297 673 284 660 q 326 693 309 686 q 363 700 343 700 l 484 700 q 519 693 503 700 q 549 673 536 686 q 569 643 562 660 q 576 607 576 626 l 576 364 z "},"P":{"ha":907,"x_min":61,"x_max":842,"o":"m 355 606 l 453 606 q 464 607 459 606 q 473 614 469 608 l 355 614 l 355 606 m 218 518 l 211 518 l 211 758 l 453 758 q 515 741 488 758 q 558 694 543 724 l 596 659 q 621 621 612 642 q 631 578 631 601 q 622 533 631 554 q 596 495 612 511 q 559 470 581 479 q 514 461 538 461 l 277 461 l 218 518 m 697 729 q 656 856 697 802 q 603 878 631 870 q 545 886 576 886 l 205 886 l 205 29 l 211 29 l 211 454 l 484 454 q 635 518 571 454 q 681 586 665 549 q 697 668 697 624 l 697 729 m 93 -53 q 70 -31 79 -45 q 61 0 61 -17 l 61 972 q 66 995 61 985 q 78 1014 71 1006 q 97 1026 86 1021 q 119 1031 107 1031 l 484 1031 q 599 1009 547 1031 q 696 942 651 987 q 713 924 705 932 q 728 904 720 915 l 753 879 l 754 879 q 842 668 842 791 l 842 607 q 754 397 842 485 q 545 310 667 310 l 355 310 l 355 -61 q 351 -82 355 -72 q 339 -99 347 -92 q 322 -111 332 -106 q 301 -115 312 -115 l 179 -115 q 158 -111 169 -115 q 140 -100 148 -107 l 93 -53 m 545 637 q 537 673 545 656 q 517 702 530 690 q 488 722 505 715 q 453 729 471 729 l 240 729 l 240 547 l 453 547 q 488 554 471 547 q 517 574 505 562 q 537 602 530 586 q 545 637 545 618 m 726 668 q 656 497 726 569 q 576 444 619 462 q 484 425 534 425 l 240 425 l 240 0 l 119 0 l 119 972 l 484 972 q 576 954 534 972 q 656 900 619 936 q 726 729 726 828 l 726 668 m 755 668 l 755 729 q 675 921 755 842 q 484 1002 597 1002 l 119 1002 q 99 993 107 1002 q 90 972 90 984 l 90 0 q 99 -20 90 -12 q 119 -29 107 -29 l 240 -29 q 261 -20 253 -29 q 269 0 269 -12 l 269 396 l 484 396 q 675 476 597 396 q 755 668 755 555 m 515 637 q 511 614 515 625 q 497 594 506 603 q 477 581 489 586 q 453 576 466 576 l 269 576 l 269 700 l 453 700 q 477 695 466 700 q 497 682 489 690 q 511 662 506 673 q 515 637 515 650 z "},"Q":{"ha":907,"x_min":61,"x_max":842,"o":"m 547 607 l 547 614 l 422 614 q 397 608 409 614 q 375 594 385 603 q 361 573 366 585 q 355 547 355 561 l 355 301 l 363 301 l 484 301 q 529 319 511 301 q 547 364 547 338 l 547 607 m 279 237 q 229 291 248 258 q 211 364 211 324 l 211 607 q 223 666 211 639 q 255 714 235 694 q 303 746 275 734 q 363 758 331 758 l 484 758 q 557 740 524 758 q 610 690 590 722 l 648 652 q 680 605 668 632 q 692 547 692 578 l 692 304 q 681 245 692 273 q 649 199 669 218 q 603 168 629 179 q 545 157 576 157 l 422 157 q 365 168 392 157 q 318 199 338 179 l 279 237 m 697 -336 l 697 -208 l 665 -208 q 613 -198 637 -208 q 570 -168 589 -187 l 530 -129 q 475 -64 496 -106 q 454 29 454 -23 q 636 92 574 29 q 697 243 697 154 l 697 729 q 656 856 697 802 q 603 878 631 870 q 545 886 576 886 l 422 886 q 269 821 335 886 q 222 751 238 789 q 205 668 205 713 l 205 182 q 212 123 205 151 q 233 72 218 96 q 302 40 264 50 q 392 29 341 29 l 392 22 l 449 -35 l 449 -182 q 456 -241 449 -214 q 478 -294 463 -269 q 606 -336 532 -336 l 697 -336 m 755 -29 q 736 -47 746 -39 q 715 -64 727 -56 l 726 -64 q 760 -74 745 -64 q 781 -100 774 -84 l 825 -144 q 837 -162 833 -152 q 842 -182 842 -172 l 842 -425 q 837 -446 842 -436 q 825 -464 833 -456 q 808 -476 818 -471 q 787 -481 798 -481 l 665 -481 q 550 -460 602 -481 q 454 -395 498 -439 l 428 -367 q 409 -352 418 -360 q 392 -336 400 -345 q 326 -239 347 -292 q 304 -122 304 -186 l 304 -93 q 257 -68 279 -83 q 216 -33 236 -53 l 189 -5 q 169 11 178 2 q 150 29 159 19 q 61 243 61 118 l 61 729 q 150 942 61 852 q 363 1031 237 1031 l 484 1031 q 599 1009 547 1031 q 696 942 651 987 q 713 924 705 932 q 728 904 720 915 l 754 879 q 842 668 842 791 l 842 182 q 821 67 842 119 q 755 -29 800 15 m 606 607 q 596 654 606 632 q 569 693 586 677 q 531 720 553 710 q 484 729 509 729 l 363 729 q 315 720 338 729 q 276 693 293 710 q 250 654 260 677 q 240 607 240 632 l 240 364 q 250 317 240 339 q 276 278 260 295 q 315 252 293 262 q 363 243 338 243 l 484 243 q 532 252 509 243 q 570 278 554 262 q 596 316 587 294 q 606 364 606 338 l 606 607 m 606 -366 q 432 -294 505 -366 q 379 -216 396 -259 q 363 -122 363 -174 l 363 0 q 191 71 261 0 q 119 243 119 142 l 119 729 q 191 900 119 829 q 363 972 262 972 l 484 972 q 576 954 534 972 q 656 900 619 936 q 726 729 726 828 l 726 243 q 709 149 726 192 q 656 71 692 106 q 484 0 584 0 q 493 -48 484 -26 q 519 -87 503 -71 q 557 -113 535 -103 q 606 -122 580 -122 l 726 -122 l 726 -366 l 606 -366 m 726 -395 q 747 -386 739 -395 q 755 -366 755 -377 l 755 -122 q 747 -101 755 -110 q 726 -93 739 -93 l 606 -93 q 549 -74 573 -93 q 517 -26 525 -56 q 676 50 609 -18 q 736 138 717 90 q 755 243 755 185 l 755 729 q 675 921 755 842 q 484 1002 597 1002 l 363 1002 q 258 982 305 1002 q 170 921 210 962 q 90 729 90 842 l 90 243 q 170 50 90 130 q 334 -28 239 -20 l 334 -122 q 353 -227 334 -180 q 412 -315 372 -275 q 606 -395 492 -395 l 726 -395 m 576 364 q 569 328 576 345 q 550 299 562 311 q 520 279 537 286 q 484 272 503 272 l 363 272 q 326 279 343 272 q 297 299 309 287 q 277 329 284 312 q 269 364 269 345 l 269 607 q 277 643 269 626 q 297 673 284 660 q 326 693 309 686 q 363 700 343 700 l 484 700 q 519 693 503 700 q 549 673 536 686 q 569 643 562 660 q 576 607 576 626 l 576 364 z "},"R":{"ha":907,"x_min":61,"x_max":842,"o":"m 355 606 l 453 606 q 464 607 459 606 q 473 614 469 608 l 355 614 l 355 606 m 653 371 q 610 395 633 383 q 561 416 587 406 q 574 405 568 411 q 587 392 580 399 q 593 383 589 387 q 599 375 597 379 l 633 342 q 640 335 637 338 q 646 328 642 332 q 680 267 667 299 q 692 195 692 235 l 692 29 l 697 29 l 697 256 q 653 371 697 317 m 218 518 l 211 518 l 211 758 l 453 758 q 515 741 488 758 q 558 694 543 724 l 596 659 q 620 623 610 643 q 631 582 629 604 q 680 652 663 616 q 697 729 697 689 q 656 856 697 802 q 603 878 631 870 q 545 886 576 886 l 205 886 l 205 29 l 211 29 l 211 454 l 453 454 q 521 441 490 454 l 503 461 l 277 461 l 218 518 m 93 -53 q 70 -31 79 -45 q 61 0 61 -17 l 61 972 q 66 995 61 985 q 78 1014 71 1006 q 97 1026 86 1021 q 119 1031 107 1031 l 484 1031 q 599 1009 547 1031 q 696 942 651 987 q 713 924 705 932 q 728 904 720 915 l 754 879 q 842 668 842 791 q 814 531 842 594 q 734 427 786 469 l 760 403 q 820 311 798 363 q 842 195 842 258 l 842 -61 q 837 -82 842 -72 q 825 -99 833 -92 q 808 -111 818 -106 q 787 -115 798 -115 l 665 -115 q 645 -111 655 -115 q 627 -100 634 -107 l 579 -53 q 556 -31 564 -45 q 547 0 547 -17 l 547 256 q 532 307 547 277 q 523 309 528 309 q 514 310 518 310 l 355 310 l 355 -61 q 351 -82 355 -72 q 339 -99 347 -92 q 322 -111 332 -106 q 301 -115 312 -115 l 179 -115 q 158 -111 169 -115 q 140 -100 148 -107 l 93 -53 m 545 637 q 537 673 545 656 q 517 702 530 690 q 488 722 505 715 q 453 729 471 729 l 240 729 l 240 547 l 453 547 q 488 554 471 547 q 517 574 505 562 q 537 602 530 586 q 545 637 545 618 m 606 0 l 606 256 q 595 319 606 290 q 566 374 585 349 q 453 425 522 425 l 240 425 l 240 0 l 119 0 l 119 972 l 484 972 q 576 954 534 972 q 656 900 619 936 q 726 729 726 828 q 715 649 726 687 q 683 578 704 610 q 630 523 661 547 q 558 486 598 499 q 630 451 598 473 q 683 400 661 429 q 715 334 704 370 q 726 256 726 297 l 726 0 l 606 0 m 726 -29 q 747 -20 739 -29 q 755 0 755 -12 l 755 256 q 723 391 755 332 q 628 486 690 450 q 723 588 690 524 q 755 729 755 652 q 675 921 755 842 q 484 1002 597 1002 l 119 1002 q 99 993 107 1002 q 90 972 90 984 l 90 0 q 99 -20 90 -12 q 119 -29 107 -29 l 240 -29 q 261 -20 253 -29 q 269 0 269 -12 l 269 396 l 453 396 q 504 386 481 396 q 543 354 526 376 l 542 354 q 576 256 576 315 l 576 0 q 585 -20 576 -12 q 606 -29 593 -29 l 726 -29 m 515 637 q 511 614 515 625 q 497 594 506 603 q 477 581 489 586 q 453 576 466 576 l 269 576 l 269 700 l 453 700 q 477 695 466 700 q 497 682 489 690 q 511 662 506 673 q 515 637 515 650 z "},"S":{"ha":907,"x_min":61,"x_max":842,"o":"m 367 612 q 372 607 369 609 l 367 612 m 422 557 q 428 551 425 553 l 422 557 m 697 304 q 656 431 697 375 q 603 453 631 446 q 545 461 576 461 l 453 461 q 408 469 430 461 q 371 494 387 477 l 329 536 q 288 579 304 552 q 272 637 272 606 q 281 685 272 663 q 308 723 291 707 q 346 749 324 739 q 393 758 368 758 l 697 758 l 697 886 l 422 886 q 269 821 335 886 q 222 751 238 789 q 205 668 205 713 l 205 607 q 213 549 205 576 q 236 496 220 521 q 295 465 263 476 q 363 454 327 454 l 453 454 q 515 437 488 454 q 558 392 543 420 l 596 354 q 593 355 595 355 q 591 357 593 355 l 596 354 q 621 318 612 338 q 631 273 631 298 q 622 228 631 250 q 596 191 612 207 q 559 166 581 175 q 514 157 538 157 l 205 157 l 205 29 l 484 29 q 565 45 528 29 q 635 92 603 61 q 681 161 665 123 q 697 243 697 199 l 697 304 m 453 614 q 439 611 446 614 q 429 606 433 609 l 484 606 q 599 584 547 606 q 696 517 651 562 q 713 498 705 507 q 728 479 720 489 l 753 454 l 754 453 q 842 243 842 366 l 842 182 q 754 -28 842 60 q 545 -115 667 -115 l 179 -115 q 158 -111 169 -115 q 140 -100 148 -107 l 93 -53 q 70 -31 79 -45 q 61 0 61 -17 l 61 243 q 66 266 61 255 q 78 284 71 276 q 97 297 86 292 q 119 301 107 301 l 453 301 q 473 310 465 301 l 422 310 q 212 397 300 310 l 186 422 q 168 438 176 430 q 150 456 159 446 q 61 668 61 545 l 61 729 q 150 942 61 852 q 363 1031 237 1031 l 726 1031 q 760 1020 745 1031 q 781 993 774 1010 l 825 949 q 837 932 833 941 q 842 911 842 922 l 842 668 q 837 647 842 657 q 825 630 833 637 q 808 618 818 623 q 787 614 798 614 l 453 614 m 726 243 q 656 72 726 144 q 484 0 583 0 l 119 0 l 119 243 l 453 243 q 488 250 471 243 q 517 270 505 258 q 537 299 530 283 q 545 335 545 316 q 537 370 545 353 q 517 398 530 386 q 488 418 505 410 q 453 425 471 425 l 363 425 q 269 444 312 425 q 191 497 226 462 q 119 668 119 568 l 119 729 q 191 900 119 829 q 363 972 262 972 l 726 972 l 726 729 l 393 729 q 358 722 374 729 q 329 702 341 715 q 309 673 316 690 q 301 637 301 656 q 309 602 301 618 q 329 574 316 586 q 358 554 341 562 q 393 547 374 547 l 484 547 q 576 529 534 547 q 656 475 619 511 q 726 304 726 404 l 726 243 m 755 243 l 755 304 q 675 496 755 415 q 484 576 595 576 l 393 576 q 369 581 380 576 q 349 594 357 586 q 335 614 340 603 q 330 637 330 625 q 335 662 330 650 q 349 682 340 673 q 369 695 357 690 q 393 700 380 700 l 726 700 q 747 709 739 700 q 755 729 755 718 l 755 972 q 747 993 755 984 q 726 1002 739 1002 l 363 1002 q 258 982 305 1002 q 170 921 210 962 q 90 729 90 842 l 90 668 q 170 476 90 555 q 258 416 210 435 q 363 396 305 396 l 453 396 q 477 391 466 396 q 497 378 489 387 q 511 358 506 370 q 515 335 515 347 q 511 310 515 321 q 497 290 506 299 q 477 277 489 281 q 453 272 466 272 l 119 272 q 99 263 107 272 q 90 243 90 254 l 90 0 q 99 -20 90 -12 q 119 -29 107 -29 l 484 -29 q 675 52 597 -29 q 755 243 755 130 z "},"T":{"ha":846,"x_min":31,"x_max":811,"o":"m 667 758 l 667 886 l 175 886 l 175 758 l 361 758 l 361 751 l 418 694 l 418 29 l 424 29 l 424 758 l 667 758 m 62 676 q 39 697 47 684 q 31 729 31 711 l 31 972 q 35 995 31 985 q 48 1014 40 1006 q 66 1026 56 1021 q 89 1031 77 1031 l 696 1031 q 729 1020 715 1031 q 750 993 744 1010 l 794 949 q 806 932 802 941 q 811 911 811 922 l 811 668 q 807 647 811 657 q 795 630 802 637 q 778 618 787 623 q 757 614 768 614 l 568 614 l 568 -61 q 564 -82 568 -72 q 552 -99 559 -92 q 535 -111 545 -106 q 514 -115 525 -115 l 393 -115 q 354 -100 370 -115 l 306 -53 q 282 -31 291 -45 q 273 0 273 -17 l 273 614 l 150 614 q 129 618 138 614 q 111 629 119 622 l 62 676 m 453 729 l 453 0 l 332 0 l 332 729 l 89 729 l 89 972 l 696 972 l 696 729 l 453 729 m 696 700 q 717 709 709 700 q 725 729 725 718 l 725 972 q 717 993 725 984 q 696 1002 709 1002 l 89 1002 q 68 993 76 1002 q 60 972 60 984 l 60 729 q 68 709 60 718 q 89 700 76 700 l 302 700 l 302 0 q 311 -20 302 -12 q 332 -29 319 -29 l 453 -29 q 474 -20 465 -29 q 482 0 482 -12 l 482 700 l 696 700 z "},"U":{"ha":907,"x_min":61,"x_max":842,"o":"m 697 886 l 692 886 l 692 304 q 681 245 692 273 q 649 199 669 218 q 603 168 629 179 q 545 157 576 157 l 422 157 q 365 168 392 157 q 318 199 338 179 l 279 237 q 229 291 248 258 q 211 364 211 324 l 211 886 l 205 886 l 205 182 q 212 123 205 151 q 235 69 219 95 q 294 39 262 50 q 363 29 327 29 l 484 29 q 636 92 574 29 q 697 243 697 154 l 697 886 m 355 301 l 363 301 l 484 301 q 529 319 511 301 q 547 364 547 338 l 547 972 q 552 995 547 985 q 565 1014 557 1006 q 583 1026 572 1021 q 606 1031 593 1031 l 726 1031 q 760 1020 745 1031 q 781 993 774 1010 l 825 949 q 837 932 833 941 q 842 911 842 922 l 842 182 q 821 67 842 119 q 755 -29 800 15 q 545 -115 669 -115 l 422 -115 q 308 -94 361 -115 q 211 -29 255 -73 l 184 -3 q 166 12 175 3 q 149 29 157 20 q 82 127 104 74 q 61 243 61 180 l 61 972 q 66 995 61 985 q 78 1014 71 1006 q 97 1026 86 1021 q 119 1031 107 1031 l 240 1031 q 274 1020 259 1031 q 294 993 288 1010 l 339 949 q 351 932 347 941 q 355 911 355 922 l 355 301 m 726 243 q 709 149 726 192 q 656 71 692 106 q 484 0 584 0 l 363 0 q 189 71 262 0 q 136 150 153 106 q 119 243 119 193 l 119 972 l 240 972 l 240 364 q 250 317 240 339 q 276 278 260 295 q 315 252 293 262 q 363 243 338 243 l 484 243 q 532 252 509 243 q 570 278 554 262 q 596 316 587 294 q 606 364 606 338 l 606 972 l 726 972 l 726 243 m 755 243 l 755 972 q 747 993 755 984 q 726 1002 739 1002 l 606 1002 q 585 993 593 1002 q 576 972 576 984 l 576 364 q 569 328 576 345 q 550 299 562 311 q 520 279 537 286 q 484 272 503 272 l 363 272 q 326 279 343 272 q 297 299 309 287 q 277 329 284 312 q 269 364 269 345 l 269 972 q 261 993 269 984 q 240 1002 253 1002 l 119 1002 q 99 993 107 1002 q 90 972 90 984 l 90 243 q 110 138 90 186 q 170 50 129 90 q 257 -10 210 9 q 363 -29 305 -29 l 484 -29 q 589 -10 541 -29 q 676 50 637 9 q 736 138 717 90 q 755 243 755 185 z "},"V":{"ha":907,"x_min":61,"x_max":842,"o":"m 697 886 l 692 886 l 692 304 q 681 245 692 273 q 649 199 669 218 q 603 168 629 179 q 545 157 576 157 l 277 157 l 218 214 l 211 214 l 211 886 l 205 886 l 205 29 l 484 29 q 636 92 574 29 q 697 243 697 154 l 697 886 m 355 301 l 484 301 q 529 319 511 301 q 547 364 547 338 l 547 972 q 552 995 547 985 q 565 1014 557 1006 q 583 1026 572 1021 q 606 1031 593 1031 l 726 1031 q 760 1020 745 1031 q 781 993 774 1010 l 825 949 q 837 932 833 941 q 842 911 842 922 l 842 182 q 821 67 842 119 q 755 -29 800 15 q 545 -115 669 -115 l 179 -115 q 158 -111 169 -115 q 140 -100 148 -107 l 93 -53 q 70 -31 79 -45 q 61 0 61 -17 l 61 972 q 66 995 61 985 q 78 1014 71 1006 q 97 1026 86 1021 q 119 1031 107 1031 l 240 1031 q 274 1020 259 1031 q 294 993 288 1010 l 339 949 q 351 932 347 941 q 355 911 355 922 l 355 301 m 726 243 q 709 149 726 192 q 656 71 692 106 q 484 0 584 0 l 119 0 l 119 972 l 240 972 l 240 243 l 484 243 q 532 252 509 243 q 570 278 554 262 q 596 316 587 294 q 606 364 606 338 l 606 972 l 726 972 l 726 243 m 755 243 l 755 972 q 747 993 755 984 q 726 1002 739 1002 l 606 1002 q 585 993 593 1002 q 576 972 576 984 l 576 364 q 569 328 576 345 q 550 299 562 311 q 520 279 537 286 q 484 272 503 272 l 269 272 l 269 972 q 261 993 269 984 q 240 1002 253 1002 l 119 1002 q 99 993 107 1002 q 90 972 90 984 l 90 0 q 99 -20 90 -12 q 119 -29 107 -29 l 484 -29 q 589 -10 541 -29 q 676 50 637 9 q 736 138 717 90 q 755 243 755 185 z "},"W":{"ha":1393,"x_min":61,"x_max":1328,"o":"m 205 182 q 236 71 205 118 q 295 39 263 50 q 363 29 327 29 l 435 29 q 492 40 463 29 q 546 71 520 51 q 595 121 572 92 q 636 187 618 151 q 594 165 617 173 q 545 157 570 157 l 422 157 q 365 168 392 157 q 318 199 338 179 l 279 237 q 229 291 248 258 q 211 364 211 324 l 211 886 l 205 886 l 205 182 m 1183 886 l 1178 886 l 1178 304 q 1166 247 1178 274 q 1135 200 1155 220 q 1088 168 1115 180 q 1031 157 1061 157 l 908 157 q 850 168 877 157 q 804 199 824 179 l 770 235 q 716 288 736 254 q 697 364 697 321 l 697 886 l 692 886 l 692 304 q 687 268 692 285 q 675 236 682 252 l 726 186 q 749 128 736 155 q 778 78 762 101 q 836 42 805 54 q 897 29 866 29 l 970 29 q 1052 45 1014 29 q 1121 92 1089 61 q 1167 161 1152 123 q 1183 243 1183 199 l 1183 886 m 842 301 l 848 301 l 970 301 q 994 306 983 301 q 1015 320 1006 311 q 1028 340 1023 328 q 1034 364 1034 351 l 1034 972 q 1038 995 1034 985 q 1051 1014 1043 1006 q 1069 1026 1059 1021 q 1092 1031 1080 1031 l 1213 1031 q 1246 1020 1232 1031 q 1267 993 1260 1010 l 1311 949 q 1323 932 1318 941 q 1328 911 1328 922 l 1328 182 q 1240 -28 1328 60 q 1031 -115 1153 -115 l 957 -115 q 842 -93 896 -115 q 746 -29 788 -70 l 725 -8 q 624 -87 683 -59 q 496 -115 565 -115 l 422 -115 q 212 -28 300 -115 l 186 -1 q 168 13 176 5 q 150 31 159 21 q 61 243 61 119 l 61 972 q 66 995 61 985 q 78 1014 71 1006 q 97 1026 86 1021 q 119 1031 107 1031 l 240 1031 q 274 1020 259 1031 q 294 993 288 1010 l 339 949 q 351 932 347 941 q 355 911 355 922 l 355 301 l 363 301 l 484 301 q 529 319 511 301 q 547 364 547 338 l 547 972 q 552 995 547 985 q 565 1014 557 1006 q 583 1026 572 1021 q 606 1031 593 1031 l 726 1031 q 760 1020 745 1031 q 781 993 774 1010 l 825 949 q 837 932 833 941 q 842 911 842 922 l 842 301 m 1213 243 q 1141 72 1213 143 q 970 0 1069 0 l 897 0 q 821 12 857 0 q 754 44 785 23 q 701 97 724 66 q 665 165 677 127 q 631 97 653 127 q 578 44 608 66 q 511 12 547 23 q 435 0 474 0 l 363 0 q 191 72 260 0 q 119 243 119 143 l 119 972 l 240 972 l 240 364 q 250 317 240 339 q 276 278 260 295 q 315 252 293 262 q 363 243 338 243 l 484 243 q 532 252 509 243 q 570 278 554 262 q 596 316 587 294 q 606 364 606 338 l 606 972 l 726 972 l 726 364 q 736 316 726 338 q 762 278 745 294 q 800 252 778 262 q 848 243 823 243 l 970 243 q 1017 252 995 243 q 1056 278 1039 262 q 1082 317 1072 295 q 1092 364 1092 339 l 1092 972 l 1213 972 l 1213 243 m 1242 243 l 1242 972 q 1233 993 1242 984 q 1213 1002 1225 1002 l 1092 1002 q 1071 993 1079 1002 q 1063 972 1063 984 l 1063 364 q 1055 329 1063 345 q 1035 299 1048 312 q 1006 279 1023 287 q 970 272 989 272 l 848 272 q 812 279 829 272 q 782 299 795 286 q 763 328 770 311 q 755 364 755 345 l 755 972 q 747 993 755 984 q 726 1002 739 1002 l 606 1002 q 585 993 593 1002 q 576 972 576 984 l 576 364 q 569 328 576 345 q 550 299 562 311 q 520 279 537 286 q 484 272 503 272 l 363 272 q 326 279 343 272 q 297 299 309 287 q 277 329 284 312 q 269 364 269 345 l 269 972 q 261 993 269 984 q 240 1002 253 1002 l 119 1002 q 99 993 107 1002 q 90 972 90 984 l 90 243 q 170 52 90 131 q 258 -9 210 11 q 363 -29 305 -29 l 435 -29 q 504 -21 470 -29 q 567 4 537 -12 q 622 44 597 20 q 665 97 647 67 q 709 44 684 67 q 764 4 734 20 q 827 -21 793 -12 q 897 -29 861 -29 l 970 -29 q 1161 52 1082 -29 q 1242 243 1242 130 z "},"X":{"ha":907,"x_min":61,"x_max":842,"o":"m 205 29 q 258 39 233 31 q 307 62 284 47 q 354 113 332 81 q 396 192 376 144 q 353 166 377 175 q 301 157 329 157 l 205 157 l 205 29 m 587 843 q 544 797 566 826 q 504 721 523 767 q 550 748 524 738 q 606 758 576 758 l 697 758 l 697 886 q 640 872 667 883 q 587 843 612 862 m 697 29 l 697 157 l 665 157 q 608 168 635 157 q 561 199 581 179 l 522 237 q 473 291 491 258 q 454 364 454 324 l 454 607 q 469 673 454 644 l 425 717 q 424 713 424 715 q 422 708 424 711 q 390 794 407 757 q 355 859 373 831 q 306 879 332 872 q 253 886 280 886 l 205 886 l 205 758 l 240 758 q 314 740 281 758 q 367 690 347 722 l 406 652 q 437 605 425 632 q 449 547 449 578 l 449 304 q 444 271 449 287 q 433 240 439 255 l 484 191 q 510 117 496 149 q 539 61 524 85 q 594 37 565 45 q 654 29 624 29 l 697 29 m 599 301 l 606 301 l 726 301 q 760 291 745 301 q 781 264 774 281 l 825 220 q 837 203 833 212 q 842 182 842 193 l 842 -61 q 837 -82 842 -72 q 825 -99 833 -92 q 808 -111 818 -106 q 787 -115 798 -115 l 714 -115 q 539 -60 617 -115 q 522 -45 530 -52 q 504 -29 513 -37 l 482 -7 q 456 -35 471 -22 q 427 -60 442 -48 q 253 -115 348 -115 l 179 -115 q 158 -111 169 -115 q 140 -100 148 -107 l 93 -53 q 70 -31 79 -45 q 61 0 61 -17 l 61 243 q 66 266 61 255 q 78 284 71 276 q 97 297 86 292 q 119 301 107 301 l 240 301 q 265 306 253 301 q 286 320 277 311 q 299 340 294 328 q 304 364 304 351 l 304 607 l 304 614 l 179 614 q 158 618 169 614 q 140 629 148 622 l 93 676 q 70 697 79 684 q 61 729 61 711 l 61 972 q 66 995 61 985 q 78 1014 71 1006 q 97 1026 86 1021 q 119 1031 107 1031 l 192 1031 q 259 1023 227 1031 q 322 999 291 1015 l 322 1006 q 339 992 332 998 q 355 979 347 985 q 365 974 361 977 q 374 966 370 970 l 372 966 q 399 943 387 954 q 422 920 412 931 q 445 943 433 931 q 472 966 458 954 l 471 966 q 480 974 476 970 q 489 979 484 977 q 506 992 497 985 q 524 1006 514 998 l 524 999 q 588 1023 555 1015 q 654 1031 620 1031 l 726 1031 q 760 1020 745 1031 q 781 993 774 1010 l 825 949 q 837 932 833 941 q 842 911 842 922 l 842 668 q 837 647 842 657 q 825 630 833 637 q 808 618 818 623 q 787 614 798 614 l 665 614 q 640 608 652 614 q 619 594 628 603 q 604 573 610 585 q 599 547 599 561 l 599 301 m 654 0 q 511 46 576 0 q 457 100 479 70 q 422 168 435 130 q 389 100 411 130 q 335 46 366 70 q 192 0 269 0 l 119 0 l 119 243 l 240 243 q 288 252 265 243 q 327 278 310 262 q 353 317 343 295 q 363 364 363 339 l 363 607 q 353 654 363 632 q 327 693 343 677 q 288 720 310 710 q 240 729 265 729 l 119 729 l 119 972 l 192 972 q 335 925 271 972 q 389 872 366 902 q 422 804 411 842 q 457 872 435 842 q 511 925 479 902 q 654 972 575 972 l 726 972 l 726 729 l 606 729 q 558 720 581 729 q 520 693 536 710 q 493 654 503 677 q 484 607 484 632 l 484 364 q 493 317 484 339 q 520 278 503 295 q 558 252 536 262 q 606 243 581 243 l 726 243 l 726 0 l 654 0 m 726 -29 q 747 -20 739 -29 q 755 0 755 -12 l 755 243 q 747 263 755 254 q 726 272 739 272 l 606 272 q 569 279 586 272 q 540 299 553 287 q 520 329 527 312 q 513 364 513 345 l 513 607 q 520 643 513 626 q 540 673 527 660 q 569 693 553 686 q 606 700 586 700 l 726 700 q 747 709 739 700 q 755 729 755 718 l 755 972 q 747 993 755 984 q 726 1002 739 1002 l 654 1002 q 494 947 566 1002 l 494 949 q 422 872 450 917 q 351 949 396 917 l 351 947 q 192 1002 281 1002 l 119 1002 q 99 993 107 1002 q 90 972 90 984 l 90 729 q 99 709 90 718 q 119 700 107 700 l 240 700 q 276 693 259 700 q 306 673 294 686 q 326 643 319 660 q 334 607 334 626 l 334 364 q 326 329 334 345 q 306 299 319 312 q 276 279 294 287 q 240 272 259 272 l 119 272 q 99 263 107 272 q 90 243 90 254 l 90 0 q 99 -20 90 -12 q 119 -29 107 -29 l 192 -29 q 276 -16 236 -29 q 351 22 316 -3 q 422 98 395 53 q 494 22 451 53 q 570 -16 530 -3 q 654 -29 610 -29 l 726 -29 z "},"Y":{"ha":907,"x_min":61,"x_max":842,"o":"m 697 886 l 692 886 l 692 596 q 681 537 692 564 q 649 491 669 511 q 603 460 629 471 q 545 449 576 449 l 422 449 q 365 460 392 449 q 318 490 338 471 l 279 529 q 229 583 248 550 q 211 656 211 616 l 211 886 l 205 886 l 205 473 q 212 415 205 442 q 233 364 218 388 q 392 321 293 321 l 392 314 l 449 257 l 449 29 l 454 29 l 454 321 q 636 383 574 321 q 697 534 697 446 l 697 886 m 355 593 l 363 593 l 484 593 q 529 611 511 593 q 547 656 547 629 l 547 972 q 552 995 547 985 q 565 1014 557 1006 q 583 1026 572 1021 q 606 1031 593 1031 l 726 1031 q 760 1020 745 1031 q 781 993 774 1010 l 825 949 q 837 932 833 941 q 842 911 842 922 l 842 473 q 821 358 842 410 q 755 262 800 307 q 599 179 688 194 l 599 -61 q 594 -82 599 -72 q 583 -99 590 -92 q 565 -111 575 -106 q 545 -115 555 -115 l 422 -115 q 401 -111 412 -115 q 383 -100 391 -107 l 336 -53 q 313 -31 321 -45 q 304 0 304 -17 l 304 199 q 257 223 279 208 q 216 258 236 239 l 208 267 q 211 264 208 264 l 189 286 q 169 302 178 294 q 150 321 159 311 q 61 534 61 410 l 61 972 q 66 995 61 985 q 78 1014 71 1006 q 97 1026 86 1021 q 119 1031 107 1031 l 240 1031 q 274 1020 259 1031 q 294 993 288 1010 l 339 949 q 351 932 347 941 q 355 911 355 922 l 355 593 m 726 534 q 709 441 726 484 q 656 363 692 398 q 484 292 585 292 l 484 0 l 363 0 l 363 292 q 191 363 260 292 q 137 441 155 398 q 119 534 119 484 l 119 972 l 240 972 l 240 656 q 250 609 240 631 q 276 570 260 587 q 315 544 293 553 q 363 534 338 534 l 484 534 q 532 544 509 534 q 570 570 554 553 q 596 608 587 586 q 606 656 606 630 l 606 972 l 726 972 l 726 534 m 755 534 l 755 972 q 747 993 755 984 q 726 1002 739 1002 l 606 1002 q 585 993 593 1002 q 576 972 576 984 l 576 656 q 569 620 576 636 q 550 590 562 603 q 520 571 537 578 q 484 564 503 564 l 363 564 q 326 571 343 564 q 297 591 309 578 q 277 620 284 604 q 269 656 269 637 l 269 972 q 261 993 269 984 q 240 1002 253 1002 l 119 1002 q 99 993 107 1002 q 90 972 90 984 l 90 534 q 170 342 90 421 q 334 264 239 272 l 334 0 q 342 -20 334 -12 q 363 -29 350 -29 l 484 -29 q 504 -20 496 -29 q 513 0 513 -12 l 513 264 q 676 342 607 272 q 736 429 717 382 q 755 534 755 477 z "},"Z":{"ha":907,"x_min":61,"x_max":842,"o":"m 248 214 l 241 214 l 205 171 l 205 29 l 697 29 l 697 157 l 306 157 l 248 214 m 604 753 l 659 696 l 697 741 l 697 886 l 205 886 l 205 758 l 608 758 l 604 753 m 539 301 l 726 301 q 760 291 745 301 q 781 264 774 281 l 825 220 q 837 203 833 212 q 842 182 842 193 l 842 -61 q 837 -82 842 -72 q 825 -99 833 -92 q 808 -111 818 -106 q 787 -115 798 -115 l 179 -115 q 158 -111 169 -115 q 140 -100 148 -107 l 93 -53 q 70 -31 79 -45 q 61 0 61 -17 l 61 265 l 366 614 l 179 614 q 158 618 169 614 q 140 629 148 622 l 93 676 q 70 697 79 684 q 61 729 61 711 l 61 972 q 66 995 61 985 q 78 1014 71 1006 q 97 1026 86 1021 q 119 1031 107 1031 l 726 1031 q 760 1020 745 1031 q 781 993 774 1010 l 825 949 q 837 932 833 941 q 842 911 842 922 l 842 647 l 539 301 m 119 0 l 119 243 l 545 729 l 119 729 l 119 972 l 726 972 l 726 729 l 301 243 l 726 243 l 726 0 l 119 0 m 726 -29 q 747 -20 739 -29 q 755 0 755 -12 l 755 243 q 747 263 755 254 q 726 272 739 272 l 366 272 l 755 718 l 755 972 q 747 993 755 984 q 726 1002 739 1002 l 119 1002 q 99 993 107 1002 q 90 972 90 984 l 90 729 q 99 709 90 718 q 119 700 107 700 l 481 700 l 90 254 l 90 0 q 99 -20 90 -12 q 119 -29 107 -29 l 726 -29 z "},"[":{"ha":603,"x_min":61,"x_max":478,"o":"m 211 879 l 334 879 l 334 1007 l 205 1007 l 205 -93 l 334 -93 l 334 35 l 277 35 l 218 92 l 211 92 l 211 879 m 355 179 l 363 179 q 395 169 380 179 q 415 142 409 159 l 461 98 q 473 81 469 91 q 478 61 478 72 l 478 -182 q 473 -203 478 -193 q 461 -220 469 -213 q 444 -233 454 -228 q 422 -237 433 -237 l 179 -237 q 158 -233 169 -237 q 140 -221 148 -229 l 93 -174 q 70 -152 79 -166 q 61 -122 61 -138 l 61 1093 q 66 1116 61 1105 q 78 1134 71 1126 q 97 1147 86 1142 q 119 1152 107 1152 l 363 1152 q 395 1141 380 1152 q 415 1114 409 1131 l 461 1071 q 473 1054 469 1063 q 478 1034 478 1044 l 478 790 q 473 769 478 779 q 461 751 469 759 q 444 739 454 744 q 422 734 433 734 l 355 734 l 355 179 m 119 -122 l 119 1093 l 363 1093 l 363 850 l 240 850 l 240 121 l 363 121 l 363 -122 l 119 -122 m 363 -151 q 383 -142 374 -151 q 392 -122 392 -134 l 392 121 q 383 142 392 134 q 363 150 374 150 l 269 150 l 269 821 l 363 821 q 383 829 374 821 q 392 850 392 838 l 392 1093 q 383 1114 392 1105 q 363 1122 374 1122 l 119 1122 q 99 1114 107 1122 q 90 1093 90 1105 l 90 -122 q 99 -142 90 -134 q 119 -151 107 -151 l 363 -151 z "},"\\":{"ha":768,"x_min":29,"x_max":734,"o":"m 210 971 l 182 960 l 553 -56 l 581 -46 l 210 971 m 481 -158 q 461 -145 470 -153 q 449 -126 453 -138 l 33 1015 l 33 1017 q 29 1036 29 1025 q 40 1070 29 1056 q 68 1092 50 1085 l 180 1132 l 183 1133 q 193 1136 188 1135 q 201 1136 198 1136 q 234 1126 218 1136 q 257 1099 250 1116 l 301 1054 q 315 1035 309 1046 l 732 -107 q 734 -115 733 -111 q 734 -125 734 -119 q 724 -157 734 -142 q 697 -178 714 -172 l 586 -218 l 583 -220 q 574 -221 579 -221 q 567 -221 569 -221 q 545 -216 555 -221 q 525 -203 534 -211 l 481 -158 m 504 -106 l 89 1036 l 203 1078 l 618 -64 l 504 -106 m 628 -93 q 645 -77 640 -87 q 646 -54 651 -66 l 231 1088 q 216 1104 227 1099 q 193 1105 205 1109 l 79 1064 q 62 1049 68 1060 q 61 1026 56 1038 l 476 -115 q 492 -132 481 -127 q 514 -134 503 -138 l 628 -93 z "},"]":{"ha":603,"x_min":121,"x_max":539,"o":"m 267 879 l 330 879 l 330 872 l 387 815 l 387 35 l 267 35 l 267 -93 l 393 -93 l 393 1007 l 267 1007 l 267 879 m 154 799 q 130 820 140 806 q 121 850 121 833 l 121 1093 q 125 1116 121 1105 q 138 1134 130 1126 q 157 1147 146 1142 q 179 1152 168 1152 l 422 1152 q 455 1141 441 1152 q 476 1114 470 1131 l 521 1071 q 534 1054 528 1063 q 539 1034 539 1044 l 539 -182 q 534 -203 539 -193 q 522 -220 530 -213 q 505 -233 515 -228 q 484 -237 494 -237 l 240 -237 q 219 -233 230 -237 q 201 -221 209 -229 l 154 -174 q 130 -152 140 -166 q 121 -122 121 -138 l 121 121 q 125 143 121 133 q 138 162 130 154 q 157 174 146 170 q 179 179 168 179 l 243 179 l 243 734 l 240 734 q 219 739 230 734 q 201 751 209 744 l 154 799 m 179 -122 l 179 121 l 301 121 l 301 850 l 179 850 l 179 1093 l 422 1093 l 422 -122 l 179 -122 m 422 -151 q 443 -142 435 -151 q 452 -122 452 -134 l 452 1093 q 443 1114 452 1105 q 422 1122 435 1122 l 179 1122 q 159 1114 168 1122 q 150 1093 150 1105 l 150 850 q 159 829 150 838 q 179 821 168 821 l 272 821 l 272 150 l 179 150 q 159 142 168 150 q 150 121 150 134 l 150 -122 q 159 -142 150 -134 q 179 -151 168 -151 l 422 -151 z "},"^":{"ha":791,"x_min":61,"x_max":728,"o":"m 427 844 l 561 539 l 574 543 l 421 886 l 395 886 l 392 879 l 427 844 m 94 475 q 69 498 77 484 q 61 529 61 513 q 62 539 61 534 q 64 549 62 545 l 264 997 l 265 997 q 274 1009 268 1003 q 287 1020 280 1015 q 302 1028 294 1025 q 317 1031 310 1031 l 414 1031 q 428 1028 420 1031 q 444 1020 436 1025 q 457 1009 451 1015 q 467 997 463 1003 l 468 997 l 471 989 l 515 946 q 511 947 514 947 l 515 946 q 518 941 517 944 q 521 937 519 939 l 525 935 l 724 488 q 726 477 725 482 q 728 468 728 472 q 720 439 728 454 q 696 418 711 425 l 604 376 q 594 374 599 374 q 585 374 589 374 q 564 377 574 374 q 546 389 554 380 l 498 436 q 471 464 479 445 l 407 604 l 318 404 q 297 381 311 389 q 268 374 283 374 q 258 374 264 374 q 249 376 253 374 l 157 418 q 142 428 147 422 l 94 475 m 524 489 l 366 842 l 208 489 l 119 529 l 317 972 l 414 972 l 612 529 l 524 489 m 625 501 q 640 518 635 507 q 639 541 644 530 l 441 985 q 430 996 438 991 q 414 1002 421 1002 l 317 1002 q 301 996 309 1002 q 290 985 294 991 l 92 541 q 92 518 87 530 q 107 501 96 507 l 196 461 q 218 461 206 457 q 235 476 229 465 l 366 771 l 497 476 q 513 461 501 465 q 536 461 525 457 l 625 501 z "},"_":{"ha":547,"x_min":0,"x_max":547,"o":"m 0 0 l 0 121 l 547 121 l 547 0 l 0 0 z "},"`":{"ha":469,"x_min":60,"x_max":404,"o":"m 189 751 q 175 761 182 755 q 165 774 169 767 l 71 937 q 62 957 64 948 q 60 974 60 965 q 75 1014 60 997 q 119 1031 91 1031 l 216 1031 q 231 1027 223 1031 q 247 1019 239 1024 q 261 1007 255 1014 q 269 994 267 1000 l 271 989 l 315 946 q 322 939 319 941 q 326 932 325 936 l 401 761 q 404 751 403 755 q 404 741 404 747 q 389 702 404 718 q 350 686 374 686 l 277 686 q 256 692 268 686 q 236 705 245 697 l 189 751 m 216 802 l 119 972 l 216 972 l 289 802 l 216 802 m 289 772 q 314 785 306 772 q 315 812 322 797 l 243 983 q 232 996 239 989 q 216 1002 224 1002 l 119 1002 q 103 998 110 1002 q 93 987 96 994 q 89 972 89 981 q 93 957 89 965 l 191 787 q 202 777 194 782 q 216 772 210 772 l 289 772 z "},"a":{"ha":907,"x_min":61,"x_max":842,"o":"m 547 486 l 547 492 l 422 492 q 397 486 409 492 q 375 472 385 481 q 361 451 366 463 q 355 425 355 439 l 355 301 l 363 301 l 484 301 q 508 306 496 301 q 528 320 519 311 q 542 340 537 328 q 547 364 547 351 l 547 486 m 279 237 q 229 291 248 258 q 211 364 211 324 l 211 486 q 223 545 211 517 q 255 593 235 572 q 303 625 275 613 q 363 636 331 636 l 484 636 q 560 617 526 636 q 614 566 594 598 l 648 529 q 680 483 668 509 q 692 425 692 456 l 692 304 q 680 247 692 274 q 649 200 669 220 q 602 168 629 180 q 545 157 575 157 l 422 157 q 365 168 392 157 q 318 199 338 179 l 279 237 m 635 79 l 685 29 l 697 29 l 697 607 q 688 675 697 644 q 657 733 678 706 q 604 756 632 748 q 545 764 576 764 l 422 764 q 340 748 378 764 q 269 700 302 732 q 222 630 238 667 q 205 547 205 592 l 205 182 q 236 71 205 118 q 295 39 263 50 q 363 29 327 29 l 484 29 q 517 33 501 29 q 546 45 532 36 q 576 87 574 58 l 635 86 l 635 79 m 186 -1 q 168 13 176 5 q 150 31 159 21 q 61 243 61 119 l 61 607 q 83 723 61 671 q 150 821 105 776 q 363 908 237 908 l 484 908 q 600 887 547 908 q 697 821 652 865 q 729 783 718 804 l 755 758 q 821 662 800 714 q 842 547 842 610 l 842 -61 q 837 -82 842 -72 q 825 -99 833 -92 q 808 -111 818 -106 q 787 -115 798 -115 l 665 -115 q 627 -100 641 -115 q 586 -112 607 -109 q 545 -115 566 -115 l 422 -115 q 212 -28 300 -115 l 186 -1 m 606 486 q 596 534 606 512 q 570 572 587 556 q 532 598 554 589 q 484 607 509 607 l 363 607 q 315 597 338 607 q 276 572 293 588 q 250 533 260 555 q 240 486 240 511 l 240 364 q 250 317 240 339 q 276 278 260 295 q 315 252 293 262 q 363 243 338 243 l 484 243 q 531 252 509 243 q 569 278 553 262 q 596 317 586 295 q 606 364 606 339 l 606 486 m 606 0 l 606 82 q 561 20 604 43 q 525 4 545 9 q 484 0 505 0 l 363 0 q 191 72 260 0 q 119 243 119 143 l 119 607 q 191 779 119 708 q 363 850 260 850 l 484 850 q 577 833 534 850 q 656 781 620 817 q 709 701 692 745 q 726 607 726 658 l 726 0 l 606 0 m 726 -29 q 747 -20 739 -29 q 755 0 755 -12 l 755 607 q 736 713 755 666 q 676 802 717 761 q 589 860 637 842 q 484 879 541 879 l 363 879 q 258 859 305 879 q 170 800 210 840 q 110 712 130 760 q 90 607 90 665 l 90 243 q 170 52 90 131 q 258 -9 210 11 q 363 -29 305 -29 l 484 -29 q 532 -24 509 -29 q 576 -5 555 -18 q 586 -23 578 -16 q 606 -29 594 -29 l 726 -29 m 576 364 q 569 329 576 345 q 549 299 562 312 q 519 279 536 287 q 484 272 503 272 l 363 272 q 326 279 343 272 q 297 299 309 287 q 277 329 284 312 q 269 364 269 345 l 269 486 q 277 522 269 505 q 297 551 284 539 q 326 571 309 564 q 363 578 343 578 l 484 578 q 520 571 503 578 q 550 552 537 564 q 569 523 562 540 q 576 486 576 506 l 576 364 z "},"b":{"ha":907,"x_min":61,"x_max":842,"o":"m 547 486 l 547 492 l 422 492 q 397 486 409 492 q 375 472 385 481 q 361 451 366 463 q 355 425 355 439 l 355 301 l 363 301 l 484 301 q 508 306 496 301 q 528 320 519 311 q 542 340 537 328 q 547 364 547 351 l 547 486 m 283 235 q 230 288 250 254 q 211 364 211 321 l 211 486 q 223 545 211 517 q 255 593 235 572 q 303 625 275 613 q 363 636 331 636 l 484 636 q 557 618 524 636 q 610 568 590 600 l 648 529 q 680 483 668 509 q 692 425 692 456 l 692 304 q 680 247 692 274 q 649 200 669 220 q 602 168 629 180 q 545 157 575 157 l 422 157 q 364 168 391 157 q 318 199 338 179 l 283 235 m 697 607 q 656 733 697 680 q 603 756 631 748 q 545 764 576 764 l 422 764 q 388 760 405 764 q 357 749 370 757 q 326 705 328 731 l 277 707 l 218 764 l 211 764 l 211 947 l 205 947 l 205 182 q 212 122 205 151 q 235 69 219 94 q 363 29 289 29 l 484 29 q 565 45 528 29 q 635 92 603 61 q 681 161 665 123 q 697 243 697 199 l 697 607 m 355 908 l 363 908 l 484 908 q 599 886 547 908 q 696 821 651 865 q 728 782 714 802 l 753 758 l 754 757 q 842 547 842 669 l 842 182 q 754 -28 842 60 q 545 -115 667 -115 l 422 -115 q 307 -94 359 -115 q 211 -29 255 -73 l 184 -3 q 166 12 175 3 q 149 29 157 20 q 82 126 104 74 q 61 243 61 179 l 61 1034 q 66 1056 61 1045 q 78 1074 71 1066 q 97 1087 86 1082 q 119 1092 107 1092 l 240 1092 q 274 1081 259 1092 q 294 1054 288 1069 l 339 1010 q 351 992 347 1002 q 355 972 355 983 l 355 908 m 606 486 q 596 533 606 511 q 569 572 586 555 q 531 597 553 588 q 484 607 509 607 l 363 607 q 315 597 338 607 q 276 572 293 588 q 250 533 260 555 q 240 486 240 511 l 240 364 q 250 316 240 338 q 275 278 259 294 q 314 252 292 262 q 363 243 336 243 l 484 243 q 531 252 509 243 q 569 278 553 262 q 596 317 586 295 q 606 364 606 339 l 606 486 m 726 243 q 656 72 726 144 q 484 0 583 0 l 363 0 q 189 71 262 0 q 119 243 119 140 l 119 1034 l 240 1034 l 240 770 q 285 831 242 807 q 322 845 302 841 q 363 850 342 850 l 484 850 q 656 779 583 850 q 726 607 726 707 l 726 243 m 755 243 l 755 607 q 735 712 755 665 q 675 800 715 760 q 484 879 596 879 l 363 879 q 313 874 337 879 q 269 857 289 869 l 269 1034 q 261 1054 269 1045 q 240 1063 253 1063 l 119 1063 q 99 1054 107 1063 q 90 1034 90 1045 l 90 243 q 110 138 90 185 q 170 50 129 90 q 257 -10 210 9 q 363 -29 305 -29 l 484 -29 q 675 52 597 -29 q 755 243 755 130 m 576 364 q 569 329 576 345 q 549 299 562 312 q 519 279 536 287 q 484 272 503 272 l 363 272 q 326 279 343 272 q 296 299 309 286 q 276 328 283 311 q 269 364 269 345 l 269 486 q 277 522 269 505 q 297 551 284 539 q 326 571 309 564 q 363 578 343 578 l 484 578 q 519 571 503 578 q 549 551 536 564 q 569 522 562 539 q 576 486 576 505 l 576 364 z "},"c":{"ha":907,"x_min":61,"x_max":842,"o":"m 697 29 l 697 157 l 422 157 q 365 168 392 157 q 318 199 338 179 l 279 237 q 229 291 248 258 q 211 364 211 324 l 211 486 q 223 545 211 517 q 255 593 235 572 q 303 625 275 613 q 363 636 331 636 l 697 636 l 697 764 l 422 764 q 340 748 378 764 q 269 700 302 732 q 222 630 238 667 q 205 547 205 592 l 205 182 q 236 71 205 118 q 295 39 263 50 q 363 29 327 29 l 697 29 m 355 301 l 363 301 l 726 301 q 760 291 745 301 q 781 264 774 281 l 825 220 q 837 203 833 212 q 842 182 842 193 l 842 -61 q 837 -82 842 -72 q 825 -99 833 -92 q 808 -111 818 -106 q 787 -115 798 -115 l 422 -115 q 212 -28 300 -115 l 186 -1 q 168 13 176 5 q 150 31 159 21 q 61 243 61 119 l 61 607 q 83 723 61 671 q 150 821 105 776 q 363 908 237 908 l 726 908 q 760 898 745 908 q 781 871 774 888 l 825 828 q 837 811 833 821 q 842 790 842 801 l 842 547 q 837 526 842 536 q 825 509 833 516 q 808 496 818 501 q 787 492 798 492 l 422 492 q 397 486 409 492 q 375 472 385 481 q 361 451 366 463 q 355 425 355 439 l 355 301 m 363 0 q 191 72 260 0 q 119 243 119 143 l 119 607 q 191 779 119 708 q 363 850 260 850 l 726 850 l 726 607 l 363 607 q 315 597 338 607 q 276 572 293 588 q 250 533 260 555 q 240 486 240 511 l 240 364 q 250 317 240 339 q 276 278 260 295 q 315 252 293 262 q 363 243 338 243 l 726 243 l 726 0 l 363 0 m 726 -29 q 747 -20 739 -29 q 755 0 755 -12 l 755 243 q 747 263 755 254 q 726 272 739 272 l 363 272 q 326 279 343 272 q 297 299 309 287 q 277 329 284 312 q 269 364 269 345 l 269 486 q 277 522 269 505 q 297 551 284 539 q 326 571 309 564 q 363 578 343 578 l 726 578 q 747 587 739 578 q 755 607 755 595 l 755 850 q 747 871 755 863 q 726 879 739 879 l 363 879 q 258 859 305 879 q 170 800 210 840 q 110 712 130 760 q 90 607 90 665 l 90 243 q 170 52 90 131 q 258 -9 210 11 q 363 -29 305 -29 l 726 -29 z "},"d":{"ha":907,"x_min":61,"x_max":842,"o":"m 547 486 l 547 492 l 422 492 q 397 486 409 492 q 375 472 385 481 q 361 451 366 463 q 355 425 355 439 l 355 301 l 363 301 l 484 301 q 529 319 511 301 q 547 364 547 338 l 547 486 m 279 237 q 229 291 248 258 q 211 364 211 324 l 211 486 q 223 545 211 517 q 255 593 235 572 q 303 625 275 613 q 363 636 331 636 l 484 636 q 557 618 524 636 q 610 568 590 600 l 648 529 q 680 483 668 509 q 692 425 692 456 l 692 304 q 681 245 692 273 q 649 199 669 218 q 603 168 629 179 q 545 157 576 157 l 422 157 q 365 168 392 157 q 318 199 338 179 l 279 237 m 697 947 l 692 947 l 692 707 l 640 705 l 587 757 q 567 762 578 761 q 545 764 556 764 l 422 764 q 340 748 378 764 q 269 700 302 732 q 222 630 238 667 q 205 547 205 592 l 205 182 q 236 71 205 118 q 295 39 263 50 q 363 29 327 29 l 484 29 q 636 92 574 29 q 697 243 697 154 l 697 947 m 186 -1 q 168 13 176 5 q 150 31 159 21 q 61 243 61 119 l 61 607 q 83 723 61 671 q 150 821 105 776 q 363 908 237 908 l 484 908 q 547 900 515 908 l 547 1034 q 552 1056 547 1045 q 565 1074 557 1066 q 583 1087 572 1082 q 606 1092 593 1092 l 726 1092 q 760 1081 745 1092 q 781 1054 774 1069 l 825 1010 q 837 992 833 1002 q 842 972 842 983 l 842 182 q 821 67 842 119 q 755 -29 800 15 q 545 -115 669 -115 l 422 -115 q 212 -28 300 -115 l 186 -1 m 606 486 q 596 533 606 511 q 569 572 586 555 q 531 597 553 588 q 484 607 509 607 l 363 607 q 315 597 338 607 q 276 572 293 588 q 250 533 260 555 q 240 486 240 511 l 240 364 q 250 317 240 339 q 276 278 260 295 q 315 252 293 262 q 363 243 338 243 l 484 243 q 532 252 509 243 q 570 278 554 262 q 596 316 587 294 q 606 364 606 338 l 606 486 m 726 243 q 709 149 726 192 q 656 71 692 106 q 484 0 584 0 l 363 0 q 191 72 260 0 q 119 243 119 143 l 119 607 q 191 779 119 708 q 363 850 260 850 l 484 850 q 525 845 505 850 q 561 831 545 841 q 606 770 604 807 l 606 1034 l 726 1034 l 726 243 m 755 243 l 755 1034 q 747 1054 755 1045 q 726 1063 739 1063 l 606 1063 q 585 1054 593 1063 q 576 1034 576 1045 l 576 857 q 532 874 555 869 q 484 879 509 879 l 363 879 q 258 859 305 879 q 170 800 210 840 q 110 712 130 760 q 90 607 90 665 l 90 243 q 170 52 90 131 q 258 -9 210 11 q 363 -29 305 -29 l 484 -29 q 589 -10 541 -29 q 676 50 637 9 q 736 138 717 90 q 755 243 755 185 m 576 364 q 569 328 576 345 q 550 299 562 311 q 520 279 537 286 q 484 272 503 272 l 363 272 q 326 279 343 272 q 297 299 309 287 q 277 329 284 312 q 269 364 269 345 l 269 486 q 277 522 269 505 q 297 551 284 539 q 326 571 309 564 q 363 578 343 578 l 484 578 q 519 571 503 578 q 549 551 536 564 q 569 522 562 539 q 576 486 576 505 l 576 364 z "},"e":{"ha":907,"x_min":61,"x_max":842,"o":"m 697 29 l 697 157 l 422 157 q 371 168 395 157 q 328 199 347 179 l 290 235 q 233 300 254 258 q 211 393 211 342 l 576 393 l 576 400 l 277 400 l 218 457 l 211 457 q 223 526 211 494 q 255 583 235 559 q 303 622 275 608 q 363 636 331 636 l 697 636 l 697 764 l 422 764 q 340 748 378 764 q 269 700 302 732 q 222 630 238 667 q 205 547 205 592 l 205 182 q 236 71 205 118 q 295 39 263 50 q 363 29 327 29 l 697 29 m 721 301 l 726 301 q 760 291 745 301 q 781 264 774 281 l 825 220 q 837 203 833 212 q 842 182 842 193 l 842 -61 q 837 -82 842 -72 q 825 -99 833 -92 q 808 -111 818 -106 q 787 -115 798 -115 l 422 -115 q 212 -28 300 -115 l 186 -1 q 168 13 176 5 q 150 31 159 21 q 61 243 61 119 l 61 607 q 83 723 61 671 q 150 821 105 776 q 363 908 237 908 l 726 908 q 760 898 745 908 q 781 871 774 888 l 825 828 q 837 811 833 821 q 842 790 842 801 l 842 547 q 837 526 842 536 q 825 509 833 516 q 808 496 818 501 q 787 492 798 492 l 675 492 l 704 463 q 716 446 711 455 q 721 425 721 437 l 721 301 m 363 0 q 191 72 260 0 q 119 243 119 143 l 119 607 q 191 779 119 708 q 363 850 260 850 l 726 850 l 726 607 l 363 607 q 315 597 338 607 q 276 572 293 588 q 250 533 260 555 q 240 486 240 511 l 606 486 l 606 364 l 240 364 q 250 317 240 339 q 276 278 260 295 q 315 252 293 262 q 363 243 338 243 l 726 243 l 726 0 l 363 0 m 726 -29 q 747 -20 739 -29 q 755 0 755 -12 l 755 243 q 747 263 755 254 q 726 272 739 272 l 363 272 q 307 289 331 272 q 275 335 283 307 l 606 335 q 626 344 617 335 q 635 364 635 353 l 635 486 q 626 507 635 498 q 606 515 617 515 l 275 515 q 307 560 283 543 q 363 578 331 578 l 726 578 q 747 587 739 578 q 755 607 755 595 l 755 850 q 747 871 755 863 q 726 879 739 879 l 363 879 q 258 859 305 879 q 170 800 210 840 q 110 712 130 760 q 90 607 90 665 l 90 243 q 170 52 90 131 q 258 -9 210 11 q 363 -29 305 -29 l 726 -29 z "},"f":{"ha":754,"x_min":61,"x_max":721,"o":"m 576 819 l 576 947 l 422 947 q 268 884 332 947 q 221 813 237 851 q 205 729 205 775 l 205 29 l 211 29 l 211 454 l 454 454 l 454 461 l 277 461 l 218 518 l 211 518 l 211 668 q 222 728 211 701 q 254 776 234 755 q 302 808 275 796 q 363 819 330 819 l 576 819 m 93 -53 q 70 -31 79 -45 q 61 0 61 -17 l 61 790 q 82 907 61 854 q 149 1004 104 960 q 245 1070 193 1049 q 363 1092 298 1092 l 606 1092 q 637 1081 623 1092 q 659 1054 652 1069 l 704 1010 q 716 992 711 1002 q 721 972 721 983 l 721 729 q 716 708 721 718 q 704 691 711 699 q 686 679 696 684 q 665 675 676 675 l 422 675 q 375 655 394 675 q 355 607 355 636 l 355 606 l 484 606 q 517 595 503 606 q 538 568 531 584 l 582 524 q 594 506 589 516 q 599 486 599 496 l 599 364 q 594 343 599 353 q 583 326 590 334 q 565 314 575 319 q 545 310 555 310 l 355 310 l 355 -61 q 351 -82 355 -72 q 339 -99 347 -92 q 322 -111 332 -106 q 301 -115 312 -115 l 179 -115 q 158 -111 169 -115 q 140 -100 148 -107 l 93 -53 m 363 790 q 314 781 336 790 q 275 755 292 771 q 250 716 259 739 q 240 668 240 694 l 240 547 l 484 547 l 484 425 l 240 425 l 240 0 l 119 0 l 119 790 q 189 962 119 893 q 363 1034 261 1034 l 606 1034 l 606 790 l 363 790 m 606 761 q 626 769 617 761 q 635 790 635 778 l 635 1034 q 626 1054 635 1045 q 606 1063 617 1063 l 363 1063 q 170 983 249 1063 q 110 895 129 943 q 90 790 90 848 l 90 0 q 99 -20 90 -12 q 119 -29 107 -29 l 240 -29 q 261 -20 253 -29 q 269 0 269 -12 l 269 396 l 484 396 q 504 405 496 396 q 513 425 513 414 l 513 547 q 504 568 513 559 q 484 576 496 576 l 269 576 l 269 668 q 276 705 269 688 q 296 734 283 722 q 326 754 309 747 q 363 761 343 761 l 606 761 z "},"g":{"ha":907,"x_min":61,"x_max":842,"o":"m 547 486 l 547 492 l 422 492 q 397 486 409 492 q 375 472 385 481 q 361 451 366 463 q 355 425 355 439 l 355 301 l 363 301 l 484 301 q 529 319 511 301 q 547 364 547 338 l 547 486 m 279 237 q 229 291 248 258 q 211 364 211 324 l 211 486 q 223 545 211 517 q 255 593 235 572 q 303 625 275 613 q 363 636 331 636 l 484 636 q 557 618 524 636 q 610 568 590 600 l 648 529 q 680 483 668 509 q 692 425 692 456 l 692 304 q 681 245 692 273 q 649 199 669 218 q 603 168 629 179 q 545 157 576 157 l 422 157 q 365 168 392 157 q 318 199 338 179 l 279 237 m 697 607 q 688 675 697 644 q 657 733 678 706 q 604 756 632 748 q 545 764 576 764 l 422 764 q 340 748 378 764 q 269 700 302 732 q 222 630 238 667 q 205 547 205 592 l 205 182 q 236 71 205 118 q 295 39 263 50 q 363 29 327 29 l 484 29 q 517 33 501 29 q 546 45 532 36 q 576 87 574 58 l 635 86 l 635 79 l 692 22 l 692 -61 q 681 -119 692 -92 q 649 -166 669 -146 q 603 -197 629 -186 q 545 -208 576 -208 l 449 -208 l 449 -336 l 484 -336 q 636 -273 574 -336 q 697 -122 697 -210 l 697 607 m 186 -1 q 168 13 176 5 q 150 31 159 21 q 61 243 61 119 l 61 607 q 83 723 61 671 q 150 821 105 776 q 363 908 237 908 l 484 908 q 600 887 547 908 q 697 821 652 865 q 729 783 718 804 l 755 758 q 821 662 800 714 q 842 547 842 610 l 842 -182 q 821 -298 842 -245 q 755 -395 800 -351 q 545 -481 669 -481 l 422 -481 q 401 -476 412 -481 q 383 -464 391 -471 l 336 -416 q 313 -395 321 -409 q 304 -366 304 -381 l 304 -122 q 306 -108 304 -115 q 310 -94 307 -101 q 259 -67 284 -84 q 212 -28 234 -50 l 186 -1 m 606 486 q 596 533 606 511 q 569 572 586 555 q 531 597 553 588 q 484 607 509 607 l 363 607 q 315 597 338 607 q 276 572 293 588 q 250 533 260 555 q 240 486 240 511 l 240 364 q 250 317 240 339 q 276 278 260 295 q 315 252 293 262 q 363 243 338 243 l 484 243 q 532 252 509 243 q 570 278 554 262 q 596 316 587 294 q 606 364 606 338 l 606 486 m 726 -122 q 709 -216 726 -174 q 656 -294 692 -259 q 484 -366 585 -366 l 363 -366 l 363 -122 l 484 -122 q 532 -113 509 -122 q 570 -87 554 -103 q 596 -48 587 -71 q 606 0 606 -26 l 606 82 q 561 20 604 43 q 525 4 545 9 q 484 0 505 0 l 363 0 q 191 72 260 0 q 119 243 119 143 l 119 607 q 191 779 119 708 q 363 850 260 850 l 484 850 q 577 833 534 850 q 656 781 620 817 q 709 701 692 745 q 726 607 726 658 l 726 -122 m 755 -122 l 755 607 q 736 713 755 666 q 676 802 717 761 q 589 860 637 842 q 484 879 541 879 l 363 879 q 258 859 305 879 q 170 800 210 840 q 110 712 130 760 q 90 607 90 665 l 90 243 q 170 52 90 131 q 258 -9 210 11 q 363 -29 305 -29 l 484 -29 q 532 -24 509 -29 q 576 -5 555 -18 q 567 -40 575 -24 q 547 -67 559 -56 q 518 -86 534 -79 q 484 -93 502 -93 l 363 -93 q 342 -101 350 -93 q 334 -122 334 -110 l 334 -366 q 342 -386 334 -377 q 363 -395 350 -395 l 484 -395 q 676 -315 597 -395 q 736 -227 717 -275 q 755 -122 755 -180 m 576 364 q 569 328 576 345 q 550 299 562 311 q 520 279 537 286 q 484 272 503 272 l 363 272 q 326 279 343 272 q 297 299 309 287 q 277 329 284 312 q 269 364 269 345 l 269 486 q 277 522 269 505 q 297 551 284 539 q 326 571 309 564 q 363 578 343 578 l 484 578 q 519 571 503 578 q 549 551 536 564 q 569 522 562 539 q 576 486 576 505 l 576 364 z "},"h":{"ha":907,"x_min":61,"x_max":842,"o":"m 205 29 l 211 29 l 211 486 q 223 545 211 517 q 255 593 235 572 q 303 625 275 613 q 363 636 331 636 l 484 636 q 557 618 524 636 q 610 568 590 600 l 648 529 q 680 483 668 509 q 692 425 692 456 l 692 29 l 697 29 l 697 607 q 656 733 697 680 q 603 756 631 748 q 545 764 576 764 l 422 764 q 388 760 405 764 q 357 749 370 757 q 326 708 326 731 l 277 708 l 218 765 l 211 765 l 211 947 l 205 947 l 205 29 m 355 908 l 363 908 l 484 908 q 599 886 547 908 q 696 821 651 865 q 728 782 714 802 l 754 757 q 842 547 842 669 l 842 -61 q 837 -82 842 -72 q 825 -99 833 -92 q 808 -111 818 -106 q 787 -115 798 -115 l 665 -115 q 645 -111 655 -115 q 627 -100 634 -107 l 579 -53 q 556 -31 564 -45 q 547 0 547 -17 l 547 486 l 547 492 l 422 492 q 397 486 409 492 q 375 472 385 481 q 361 451 366 463 q 355 425 355 439 l 355 -61 q 351 -82 355 -72 q 339 -99 347 -92 q 322 -111 332 -106 q 301 -115 312 -115 l 179 -115 q 158 -111 169 -115 q 140 -100 148 -107 l 93 -53 q 70 -31 79 -45 q 61 0 61 -17 l 61 1034 q 66 1056 61 1045 q 78 1074 71 1066 q 97 1087 86 1082 q 119 1092 107 1092 l 240 1092 q 274 1081 259 1092 q 294 1054 288 1069 l 339 1010 q 351 992 347 1002 q 355 972 355 983 l 355 908 m 606 0 l 606 486 q 596 533 606 511 q 569 572 586 555 q 531 597 553 588 q 484 607 509 607 l 363 607 q 315 597 338 607 q 276 572 293 588 q 250 533 260 555 q 240 486 240 511 l 240 0 l 119 0 l 119 1034 l 240 1034 l 240 770 q 285 831 240 807 q 322 845 302 841 q 363 850 342 850 l 484 850 q 656 779 583 850 q 726 607 726 707 l 726 0 l 606 0 m 726 -29 q 747 -20 739 -29 q 755 0 755 -12 l 755 607 q 735 712 755 665 q 675 800 715 760 q 484 879 596 879 l 363 879 q 313 874 337 879 q 269 857 289 869 l 269 1034 q 261 1054 269 1045 q 240 1063 253 1063 l 119 1063 q 99 1054 107 1063 q 90 1034 90 1045 l 90 0 q 99 -20 90 -12 q 119 -29 107 -29 l 240 -29 q 261 -20 253 -29 q 269 0 269 -12 l 269 486 q 277 522 269 505 q 297 551 284 539 q 326 571 309 564 q 363 578 343 578 l 484 578 q 519 571 503 578 q 549 551 536 564 q 569 522 562 539 q 576 486 576 505 l 576 0 q 585 -20 576 -12 q 606 -29 593 -29 l 726 -29 m 271 857 q 269 857 269 857 q 269 856 269 856 l 269 857 l 271 857 z "},"i":{"ha":421,"x_min":61,"x_max":355,"o":"m 205 29 l 211 29 l 211 764 l 205 764 l 205 29 m 93 -53 q 70 -31 79 -45 q 61 0 61 -17 l 61 850 q 66 872 61 862 q 78 891 71 883 q 97 903 86 899 q 119 908 107 908 l 240 908 q 274 898 259 908 q 294 871 288 888 l 339 828 q 351 811 347 821 q 355 790 355 801 l 355 -61 q 351 -82 355 -72 q 339 -99 347 -92 q 322 -111 332 -106 q 301 -115 312 -115 l 179 -115 q 158 -111 169 -115 q 140 -100 148 -107 l 93 -53 m 119 0 l 119 850 l 240 850 l 240 0 l 119 0 m 240 -29 q 261 -20 253 -29 q 269 0 269 -12 l 269 850 q 261 871 269 863 q 240 879 253 879 l 119 879 q 99 871 107 879 q 90 850 90 863 l 90 0 q 99 -20 90 -12 q 119 -29 107 -29 l 240 -29 z "},"j":{"ha":664,"x_min":61,"x_max":599,"o":"m 454 764 l 205 764 l 205 636 l 392 636 l 392 629 l 449 572 l 449 -61 q 437 -119 449 -92 q 406 -166 426 -146 q 359 -197 387 -186 q 301 -208 332 -208 l 205 -208 l 205 -336 l 240 -336 q 393 -273 330 -336 q 454 -122 454 -210 l 454 764 m 93 555 q 70 576 79 563 q 61 607 61 590 l 61 850 q 66 872 61 862 q 78 891 71 883 q 97 903 86 899 q 119 908 107 908 l 484 908 q 517 898 503 908 q 538 871 531 888 l 582 828 q 594 811 589 821 q 599 790 599 801 l 599 -182 q 578 -298 599 -245 q 513 -395 557 -351 q 301 -481 427 -481 l 179 -481 q 158 -476 169 -481 q 140 -464 148 -471 l 93 -416 q 70 -395 79 -409 q 61 -366 61 -381 l 61 -122 q 66 -99 61 -110 q 78 -81 71 -89 q 97 -68 86 -73 q 119 -64 107 -64 l 240 -64 q 266 -59 254 -64 q 286 -45 277 -54 q 299 -24 294 -36 q 304 0 304 -13 l 304 492 l 179 492 q 158 496 169 492 q 140 509 148 501 l 93 555 m 484 -122 q 466 -216 484 -174 q 412 -294 449 -259 q 240 -366 342 -366 l 119 -366 l 119 -122 l 240 -122 q 289 -113 267 -122 q 328 -87 311 -103 q 353 -48 344 -71 q 363 0 363 -26 l 363 607 l 119 607 l 119 850 l 484 850 l 484 -122 m 513 -122 l 513 850 q 504 871 513 863 q 484 879 496 879 l 119 879 q 99 871 107 879 q 90 850 90 863 l 90 607 q 99 587 90 595 q 119 578 107 578 l 334 578 l 334 0 q 327 -37 334 -20 q 307 -66 319 -54 q 277 -86 294 -79 q 240 -93 260 -93 l 119 -93 q 99 -101 107 -93 q 90 -122 90 -110 l 90 -366 q 99 -386 90 -377 q 119 -395 107 -395 l 240 -395 q 433 -315 354 -395 q 493 -227 474 -275 q 513 -122 513 -180 z "},"k":{"ha":907,"x_min":61,"x_max":842,"o":"m 692 600 q 695 622 694 612 q 697 644 697 633 l 697 764 l 692 764 l 692 607 l 692 600 m 205 29 l 211 29 l 211 334 l 484 334 q 560 314 526 334 q 614 261 594 295 l 648 227 q 680 179 668 205 q 692 121 692 153 l 692 29 l 697 29 l 697 207 q 684 270 697 239 q 648 330 671 301 q 622 348 636 340 q 593 364 608 357 l 541 416 q 532 421 536 418 q 524 425 528 423 q 596 469 564 444 q 571 463 583 464 q 545 461 558 461 l 277 461 l 218 518 l 211 518 l 211 947 l 205 947 l 205 29 m 355 606 l 484 606 q 509 610 497 606 q 529 624 520 615 q 543 644 538 632 q 547 668 547 655 l 547 850 q 552 872 547 862 q 565 891 557 883 q 583 903 572 899 q 606 908 593 908 l 726 908 q 760 898 745 908 q 781 871 774 888 l 825 828 q 837 811 833 821 q 842 790 842 801 l 842 583 q 818 463 842 520 q 749 364 793 406 l 753 359 q 819 263 795 318 q 842 146 842 208 l 842 -61 q 837 -82 842 -72 q 825 -99 833 -92 q 808 -111 818 -106 q 787 -115 798 -115 l 665 -115 q 645 -111 655 -115 q 627 -100 634 -107 l 579 -53 q 556 -31 564 -45 q 547 0 547 -17 l 547 182 l 547 189 l 355 189 l 355 -61 q 351 -82 355 -72 q 339 -99 347 -92 q 322 -111 332 -106 q 301 -115 312 -115 l 179 -115 q 158 -111 169 -115 q 140 -100 148 -107 l 93 -53 q 70 -31 79 -45 q 61 0 61 -17 l 61 1034 q 66 1056 61 1045 q 78 1074 71 1066 q 97 1087 86 1082 q 119 1092 107 1092 l 240 1092 q 274 1081 259 1092 q 294 1054 288 1069 l 339 1010 q 351 992 347 1002 q 355 972 355 983 l 355 606 m 606 0 l 606 182 q 596 231 606 208 q 570 269 587 253 q 532 295 554 286 q 484 304 509 304 l 240 304 l 240 0 l 119 0 l 119 1034 l 240 1034 l 240 547 l 484 547 q 532 556 509 547 q 570 582 554 566 q 596 620 587 598 q 606 668 606 642 l 606 850 l 726 850 l 726 644 q 717 576 726 609 q 690 514 707 543 q 648 463 673 486 q 591 425 623 440 q 648 387 623 410 q 690 336 673 364 q 717 274 707 307 q 726 207 726 241 l 726 0 l 606 0 m 726 -29 q 747 -20 739 -29 q 755 0 755 -12 l 755 207 q 727 329 755 272 q 647 425 699 387 q 727 520 699 463 q 755 644 755 578 l 755 850 q 747 871 755 863 q 726 879 739 879 l 606 879 q 585 871 593 879 q 576 850 576 863 l 576 668 q 569 632 576 648 q 550 603 562 615 q 520 584 537 591 q 484 576 503 576 l 269 576 l 269 1034 q 261 1054 269 1045 q 240 1063 253 1063 l 119 1063 q 99 1054 107 1063 q 90 1034 90 1045 l 90 0 q 99 -20 90 -12 q 119 -29 107 -29 l 240 -29 q 261 -20 253 -29 q 269 0 269 -12 l 269 275 l 484 275 q 520 268 503 275 q 550 249 537 261 q 569 219 562 236 q 576 182 576 201 l 576 0 q 585 -20 576 -12 q 606 -29 593 -29 l 726 -29 z "},"l":{"ha":511,"x_min":61,"x_max":478,"o":"m 277 239 q 229 292 246 260 q 211 364 211 324 l 211 947 l 205 947 l 205 182 q 212 122 205 151 q 235 69 219 94 q 334 32 277 38 l 334 186 q 325 192 328 189 q 318 199 321 195 l 277 239 m 355 301 l 363 301 q 395 291 380 301 q 415 264 409 281 l 461 220 q 473 203 469 212 q 478 182 478 193 l 478 -72 l 433 -115 q 310 -94 366 -115 q 211 -29 255 -73 l 183 -1 q 165 13 174 5 q 149 29 157 21 q 82 126 104 74 q 61 243 61 179 l 61 1034 q 66 1056 61 1045 q 78 1074 71 1066 q 97 1087 86 1082 q 119 1092 107 1092 l 240 1092 q 274 1081 259 1092 q 294 1054 288 1069 l 339 1010 q 351 992 347 1002 q 355 972 355 983 l 355 301 m 363 0 q 189 71 262 0 q 119 243 119 140 l 119 1034 l 240 1034 l 240 364 q 250 316 240 338 q 275 278 259 294 q 314 252 292 262 q 363 243 336 243 l 363 0 m 392 0 l 392 243 q 383 263 392 254 q 363 272 374 272 q 326 279 343 272 q 296 299 309 286 q 276 328 283 311 q 269 364 269 345 l 269 1034 q 261 1054 269 1045 q 240 1063 253 1063 l 119 1063 q 99 1054 107 1063 q 90 1034 90 1045 l 90 243 q 110 138 90 185 q 170 50 129 90 q 257 -10 210 9 q 363 -29 305 -29 l 392 0 z "},"m":{"ha":1393,"x_min":61,"x_max":1328,"o":"m 957 764 q 898 752 927 764 q 843 721 869 741 q 793 670 817 700 q 751 604 770 641 q 795 628 770 620 q 848 636 820 636 l 970 636 q 1043 618 1010 636 q 1096 568 1076 600 l 1135 529 q 1166 483 1154 509 q 1178 425 1178 456 l 1178 29 l 1183 29 l 1183 607 q 1141 733 1183 679 q 1089 756 1116 748 q 1031 764 1062 764 l 957 764 m 692 29 l 697 29 l 697 486 q 702 523 697 505 q 714 555 707 540 l 668 600 q 667 596 667 598 q 665 591 667 594 q 633 669 652 633 q 590 733 614 705 q 544 756 567 748 q 496 764 521 764 l 422 764 q 340 748 378 764 q 269 700 302 732 q 222 630 238 667 q 205 547 205 592 l 205 29 l 211 29 l 211 486 q 223 545 211 517 q 255 593 235 572 q 303 625 275 613 q 363 636 331 636 l 484 636 q 560 617 526 636 q 614 566 594 598 l 648 529 q 680 483 668 509 q 692 425 692 456 l 692 29 m 93 -53 q 70 -31 79 -45 q 61 0 61 -17 l 61 607 q 83 723 61 671 q 150 821 105 776 q 363 908 237 908 l 435 908 q 562 880 502 908 q 665 802 621 852 q 769 880 709 852 q 897 908 828 908 l 970 908 q 1085 886 1034 908 q 1182 821 1137 865 q 1214 782 1200 802 l 1240 757 q 1328 547 1328 669 l 1328 -61 q 1323 -82 1328 -72 q 1312 -99 1319 -92 q 1294 -111 1304 -106 q 1274 -115 1284 -115 l 1152 -115 q 1130 -111 1141 -115 q 1112 -100 1120 -107 l 1065 -53 q 1042 -31 1050 -45 q 1034 0 1034 -17 l 1034 486 l 1034 492 l 908 492 q 861 473 880 492 q 842 425 842 454 l 842 -61 q 837 -82 842 -72 q 825 -99 833 -92 q 808 -111 818 -106 q 787 -115 798 -115 l 665 -115 q 645 -111 655 -115 q 627 -100 634 -107 l 579 -53 q 556 -31 564 -45 q 547 0 547 -17 l 547 486 l 547 492 l 422 492 q 397 486 409 492 q 375 472 385 481 q 361 451 366 463 q 355 425 355 439 l 355 -61 q 351 -82 355 -72 q 339 -99 347 -92 q 322 -111 332 -106 q 301 -115 312 -115 l 179 -115 q 158 -111 169 -115 q 140 -100 148 -107 l 93 -53 m 1092 0 l 1092 486 q 1082 533 1092 511 q 1056 572 1072 555 q 1017 597 1039 588 q 970 607 995 607 l 848 607 q 800 598 823 607 q 762 572 778 589 q 736 534 745 556 q 726 486 726 512 l 726 0 l 606 0 l 606 486 q 596 534 606 512 q 570 572 587 556 q 532 598 554 589 q 484 607 509 607 l 363 607 q 315 597 338 607 q 276 572 293 588 q 250 533 260 555 q 240 486 240 511 l 240 0 l 119 0 l 119 607 q 191 779 119 708 q 363 850 260 850 l 435 850 q 511 838 474 850 q 578 805 547 827 q 631 753 608 784 q 665 685 653 723 q 701 753 677 723 q 754 805 724 784 q 821 838 785 827 q 897 850 857 850 l 970 850 q 1141 779 1070 850 q 1213 607 1213 708 l 1213 0 l 1092 0 m 1213 -29 q 1233 -20 1225 -29 q 1242 0 1242 -12 l 1242 607 q 1222 712 1242 665 q 1161 800 1202 760 q 970 879 1081 879 l 897 879 q 827 870 861 879 q 764 845 793 861 q 709 805 734 829 q 665 753 684 782 q 622 805 647 782 q 567 845 597 829 q 504 870 537 861 q 435 879 470 879 l 363 879 q 258 859 305 879 q 170 800 210 840 q 110 712 130 760 q 90 607 90 665 l 90 0 q 99 -20 90 -12 q 119 -29 107 -29 l 240 -29 q 261 -20 253 -29 q 269 0 269 -12 l 269 486 q 277 522 269 505 q 297 551 284 539 q 326 571 309 564 q 363 578 343 578 l 484 578 q 520 571 503 578 q 550 552 537 564 q 569 523 562 540 q 576 486 576 506 l 576 0 q 585 -20 576 -12 q 606 -29 593 -29 l 726 -29 q 747 -20 739 -29 q 755 0 755 -12 l 755 486 q 763 523 755 506 q 782 552 770 540 q 812 571 795 564 q 848 578 829 578 l 970 578 q 1006 571 989 578 q 1035 551 1023 564 q 1055 522 1048 539 q 1063 486 1063 505 l 1063 0 q 1071 -20 1063 -12 q 1092 -29 1079 -29 l 1213 -29 z "},"n":{"ha":907,"x_min":61,"x_max":842,"o":"m 205 29 l 211 29 l 211 486 q 223 545 211 517 q 255 593 235 572 q 303 625 275 613 q 363 636 331 636 l 484 636 q 560 617 526 636 q 614 566 594 598 l 648 529 q 680 483 668 509 q 692 425 692 456 l 692 29 l 697 29 l 697 607 q 688 675 697 644 q 657 733 678 706 q 604 756 632 748 q 545 764 576 764 l 422 764 q 339 748 378 764 q 268 700 300 732 q 205 547 205 635 l 205 29 m 93 -53 q 70 -31 79 -45 q 61 0 61 -17 l 61 607 q 82 723 61 671 q 149 821 104 776 q 246 886 193 865 q 363 908 299 908 l 484 908 q 600 887 547 908 q 697 821 652 865 q 729 783 718 804 l 755 758 q 821 662 800 714 q 842 547 842 610 l 842 -61 q 837 -82 842 -72 q 825 -99 833 -92 q 808 -111 818 -106 q 787 -115 798 -115 l 665 -115 q 645 -111 655 -115 q 627 -100 634 -107 l 579 -53 q 556 -31 564 -45 q 547 0 547 -17 l 547 486 l 547 492 l 422 492 q 397 486 409 492 q 375 472 385 481 q 361 451 366 463 q 355 425 355 439 l 355 -61 q 351 -82 355 -72 q 339 -99 347 -92 q 322 -111 332 -106 q 301 -115 312 -115 l 179 -115 q 158 -111 169 -115 q 140 -100 148 -107 l 93 -53 m 606 0 l 606 486 q 596 534 606 512 q 570 572 587 556 q 532 598 554 589 q 484 607 509 607 l 363 607 q 315 597 338 607 q 276 572 293 588 q 250 533 260 555 q 240 486 240 511 l 240 0 l 119 0 l 119 607 q 189 779 119 709 q 363 850 260 850 l 484 850 q 577 833 534 850 q 656 781 620 817 q 709 701 692 745 q 726 607 726 658 l 726 0 l 606 0 m 726 -29 q 747 -20 739 -29 q 755 0 755 -12 l 755 607 q 736 713 755 666 q 676 802 717 761 q 589 860 637 842 q 484 879 541 879 l 363 879 q 170 800 250 879 q 110 712 129 760 q 90 607 90 665 l 90 0 q 99 -20 90 -12 q 119 -29 107 -29 l 240 -29 q 261 -20 253 -29 q 269 0 269 -12 l 269 486 q 277 522 269 505 q 297 551 284 539 q 326 571 309 564 q 363 578 343 578 l 484 578 q 520 571 503 578 q 550 552 537 564 q 569 523 562 540 q 576 486 576 506 l 576 0 q 585 -20 576 -12 q 606 -29 593 -29 l 726 -29 z "},"o":{"ha":907,"x_min":61,"x_max":842,"o":"m 547 486 l 547 492 l 422 492 q 397 486 409 492 q 375 472 385 481 q 361 451 366 463 q 355 425 355 439 l 355 301 l 363 301 l 484 301 q 529 319 511 301 q 547 364 547 338 l 547 486 m 279 237 q 229 291 248 258 q 211 364 211 324 l 211 486 q 223 545 211 517 q 255 593 235 572 q 303 625 275 613 q 363 636 331 636 l 484 636 q 557 618 524 636 q 610 568 590 600 l 648 529 q 680 483 668 509 q 692 425 692 456 l 692 304 q 681 245 692 273 q 649 199 669 218 q 603 168 629 179 q 545 157 576 157 l 422 157 q 365 168 392 157 q 318 199 338 179 l 279 237 m 697 607 q 656 733 697 680 q 603 756 631 748 q 545 764 576 764 l 422 764 q 339 748 378 764 q 268 700 300 732 q 205 547 205 635 l 205 182 q 212 123 205 151 q 235 69 219 95 q 294 39 262 50 q 363 29 327 29 l 484 29 q 636 92 574 29 q 697 243 697 154 l 697 607 m 184 -3 q 166 12 175 3 q 149 29 157 20 q 82 127 104 74 q 61 243 61 180 l 61 607 q 82 723 61 671 q 149 821 104 776 q 246 886 193 865 q 363 908 299 908 l 484 908 q 599 886 547 908 q 696 821 651 865 q 728 782 714 802 l 754 757 q 842 547 842 669 l 842 182 q 821 67 842 119 q 755 -29 800 15 q 545 -115 669 -115 l 422 -115 q 308 -94 361 -115 q 211 -29 255 -73 l 184 -3 m 606 486 q 596 533 606 511 q 569 572 586 555 q 531 597 553 588 q 484 607 509 607 l 363 607 q 315 597 338 607 q 276 572 293 588 q 250 533 260 555 q 240 486 240 511 l 240 364 q 250 317 240 339 q 276 278 260 295 q 315 252 293 262 q 363 243 338 243 l 484 243 q 532 252 509 243 q 570 278 554 262 q 596 316 587 294 q 606 364 606 338 l 606 486 m 726 243 q 709 149 726 192 q 656 71 692 106 q 484 0 584 0 l 363 0 q 189 71 262 0 q 136 150 153 106 q 119 243 119 193 l 119 607 q 189 779 119 709 q 363 850 260 850 l 484 850 q 656 779 583 850 q 726 607 726 707 l 726 243 m 755 243 l 755 607 q 735 712 755 665 q 675 800 715 760 q 484 879 596 879 l 363 879 q 170 800 250 879 q 110 712 129 760 q 90 607 90 665 l 90 243 q 110 138 90 186 q 170 50 129 90 q 257 -10 210 9 q 363 -29 305 -29 l 484 -29 q 589 -10 541 -29 q 676 50 637 9 q 736 138 717 90 q 755 243 755 185 m 576 364 q 569 328 576 345 q 550 299 562 311 q 520 279 537 286 q 484 272 503 272 l 363 272 q 326 279 343 272 q 297 299 309 287 q 277 329 284 312 q 269 364 269 345 l 269 486 q 277 522 269 505 q 297 551 284 539 q 326 571 309 564 q 363 578 343 578 l 484 578 q 519 571 503 578 q 549 551 536 564 q 569 522 562 539 q 576 486 576 505 l 576 364 z "},"p":{"ha":907,"x_min":61,"x_max":842,"o":"m 547 486 l 547 492 l 422 492 q 396 487 408 492 q 375 472 384 481 q 360 451 366 463 q 355 425 355 439 l 355 301 l 363 301 l 484 301 q 508 306 496 301 q 528 320 519 311 q 542 340 537 328 q 547 364 547 351 l 547 486 m 279 237 q 229 291 248 258 q 211 364 211 324 l 211 486 q 222 546 211 519 q 254 594 234 574 q 302 625 275 614 q 363 636 330 636 l 484 636 q 557 618 524 636 q 610 568 590 600 l 648 529 q 680 483 668 509 q 692 425 692 456 l 692 304 q 680 247 692 274 q 649 200 669 220 q 602 168 629 180 q 545 157 575 157 l 422 157 q 365 168 392 157 q 318 199 338 179 l 279 237 m 697 607 q 656 733 697 680 q 603 756 631 748 q 545 764 576 764 l 422 764 q 268 701 332 764 q 205 547 205 637 l 205 -214 l 211 -214 l 211 86 l 269 87 q 271 79 269 82 l 313 37 q 336 31 323 33 q 363 29 349 29 l 484 29 q 565 45 528 29 q 635 92 603 61 q 681 161 665 123 q 697 243 697 199 l 697 607 m 93 -296 q 70 -274 79 -288 q 61 -243 61 -260 l 61 607 q 82 724 61 672 q 149 821 104 777 q 245 887 193 865 q 363 908 298 908 l 484 908 q 599 886 547 908 q 696 821 651 865 q 728 782 714 802 l 754 757 q 842 547 842 669 l 842 182 q 754 -28 842 60 q 545 -115 667 -115 l 422 -115 q 388 -113 406 -115 q 355 -106 371 -111 l 355 -304 q 351 -325 355 -315 q 339 -342 347 -335 q 322 -354 332 -349 q 301 -358 312 -358 l 179 -358 q 158 -354 169 -358 q 140 -343 148 -351 l 93 -296 m 606 486 q 596 533 606 511 q 569 572 586 555 q 531 597 553 588 q 484 607 509 607 l 363 607 q 314 598 336 607 q 275 572 292 589 q 250 534 259 556 q 240 486 240 512 l 240 364 q 250 317 240 339 q 276 278 260 295 q 315 252 293 262 q 363 243 338 243 l 484 243 q 531 252 509 243 q 569 278 553 262 q 596 317 586 295 q 606 364 606 339 l 606 486 m 726 243 q 656 72 726 144 q 484 0 583 0 l 363 0 q 322 4 342 0 q 285 20 302 9 q 240 82 242 43 l 240 -243 l 119 -243 l 119 607 q 136 701 119 658 q 189 781 153 745 q 269 833 226 817 q 363 850 311 850 l 484 850 q 656 779 583 850 q 726 607 726 707 l 726 243 m 755 243 l 755 607 q 735 712 755 665 q 675 800 715 760 q 484 879 596 879 l 363 879 q 257 860 305 879 q 170 802 210 842 q 110 713 129 761 q 90 607 90 666 l 90 -243 q 99 -263 90 -254 q 119 -272 107 -272 l 240 -272 q 261 -263 253 -272 q 269 -243 269 -254 l 269 -5 q 313 -24 289 -18 q 363 -29 337 -29 l 484 -29 q 675 52 597 -29 q 755 243 755 130 m 576 364 q 569 329 576 345 q 549 299 562 312 q 519 279 536 287 q 484 272 503 272 l 363 272 q 326 279 343 272 q 297 299 309 287 q 277 329 284 312 q 269 364 269 345 l 269 486 q 276 523 269 506 q 296 552 283 540 q 326 571 309 564 q 363 578 343 578 l 484 578 q 519 571 503 578 q 549 551 536 564 q 569 522 562 539 q 576 486 576 505 l 576 364 z "},"q":{"ha":907,"x_min":61,"x_max":842,"o":"m 547 486 l 547 492 l 422 492 q 397 486 409 492 q 375 472 385 481 q 361 451 366 463 q 355 425 355 439 l 355 301 l 363 301 l 484 301 q 508 306 496 301 q 528 320 519 311 q 542 340 537 328 q 547 364 547 351 l 547 486 m 279 237 q 229 291 248 258 q 211 364 211 324 l 211 486 q 223 545 211 517 q 255 593 235 572 q 303 625 275 613 q 363 636 331 636 l 484 636 q 560 617 526 636 q 614 566 594 598 l 648 529 q 680 483 668 509 q 692 425 692 456 l 692 304 q 680 247 692 274 q 649 200 669 220 q 602 168 629 180 q 545 157 575 157 l 422 157 q 365 168 392 157 q 318 199 338 179 l 279 237 m 635 79 l 692 22 l 692 -214 l 697 -214 l 697 607 q 688 675 697 644 q 657 733 678 706 q 604 756 632 748 q 545 764 576 764 l 422 764 q 340 748 378 764 q 269 700 302 732 q 222 630 238 667 q 205 547 205 592 l 205 182 q 236 71 205 118 q 295 39 263 50 q 363 29 327 29 l 484 29 q 517 33 501 29 q 546 45 532 36 q 576 87 574 58 l 635 86 l 635 79 m 186 -1 q 168 13 176 5 q 150 31 159 21 q 61 243 61 119 l 61 607 q 83 723 61 671 q 150 821 105 776 q 363 908 237 908 l 484 908 q 600 887 547 908 q 697 821 652 865 q 729 783 718 804 l 755 758 q 821 662 800 714 q 842 547 842 610 l 842 -304 q 837 -325 842 -315 q 825 -342 833 -335 q 808 -354 818 -349 q 787 -358 798 -358 l 665 -358 q 645 -354 655 -358 q 627 -343 634 -351 l 579 -296 q 556 -274 564 -288 q 547 -243 547 -260 l 547 -115 l 422 -115 q 212 -28 300 -115 l 186 -1 m 606 486 q 596 534 606 512 q 570 572 587 556 q 532 598 554 589 q 484 607 509 607 l 363 607 q 315 597 338 607 q 276 572 293 588 q 250 533 260 555 q 240 486 240 511 l 240 364 q 250 317 240 339 q 276 278 260 295 q 315 252 293 262 q 363 243 338 243 l 484 243 q 531 252 509 243 q 569 278 553 262 q 596 317 586 295 q 606 364 606 339 l 606 486 m 606 -243 l 606 82 q 561 20 604 43 q 525 4 545 9 q 484 0 505 0 l 363 0 q 191 72 260 0 q 119 243 119 143 l 119 607 q 191 779 119 708 q 363 850 260 850 l 484 850 q 577 833 534 850 q 656 781 620 817 q 709 701 692 745 q 726 607 726 658 l 726 -243 l 606 -243 m 726 -272 q 747 -263 739 -272 q 755 -243 755 -254 l 755 607 q 736 713 755 666 q 676 802 717 761 q 589 860 637 842 q 484 879 541 879 l 363 879 q 258 859 305 879 q 170 800 210 840 q 110 712 130 760 q 90 607 90 665 l 90 243 q 170 52 90 131 q 258 -9 210 11 q 363 -29 305 -29 l 484 -29 q 532 -24 509 -29 q 576 -5 555 -18 l 576 -243 q 585 -263 576 -254 q 606 -272 593 -272 l 726 -272 m 576 364 q 569 329 576 345 q 549 299 562 312 q 519 279 536 287 q 484 272 503 272 l 363 272 q 326 279 343 272 q 297 299 309 287 q 277 329 284 312 q 269 364 269 345 l 269 486 q 277 522 269 505 q 297 551 284 539 q 326 571 309 564 q 363 578 343 578 l 484 578 q 520 571 503 578 q 550 552 537 564 q 569 523 562 540 q 576 486 576 506 l 576 364 z "},"r":{"ha":754,"x_min":61,"x_max":721,"o":"m 576 636 l 576 764 l 422 764 q 388 760 405 764 q 357 749 370 757 q 326 705 328 731 l 277 707 l 218 764 l 205 764 l 205 29 l 211 29 l 211 486 q 223 545 211 517 q 255 593 235 572 q 303 625 275 613 q 363 636 331 636 l 576 636 m 93 -53 q 70 -31 79 -45 q 61 0 61 -17 l 61 850 q 66 872 61 862 q 78 891 71 883 q 97 903 86 899 q 119 908 107 908 l 240 908 q 259 904 250 908 q 277 895 269 901 q 318 905 296 902 q 363 908 339 908 l 606 908 q 637 898 623 908 q 659 871 652 888 l 704 828 q 716 811 711 821 q 721 790 721 801 l 721 547 q 716 526 721 536 q 704 509 711 516 q 686 496 696 501 q 665 492 676 492 l 422 492 q 397 486 409 492 q 375 472 385 481 q 361 451 366 463 q 355 425 355 439 l 355 -61 q 351 -82 355 -72 q 339 -99 347 -92 q 322 -111 332 -106 q 301 -115 312 -115 l 179 -115 q 158 -111 169 -115 q 140 -100 148 -107 l 93 -53 m 363 607 q 315 597 338 607 q 276 572 293 588 q 250 533 260 555 q 240 486 240 511 l 240 0 l 119 0 l 119 850 l 240 850 l 240 770 q 285 831 242 807 q 322 845 302 841 q 363 850 342 850 l 606 850 l 606 607 l 363 607 m 606 578 q 626 587 617 578 q 635 607 635 595 l 635 850 q 626 871 635 863 q 606 879 617 879 l 363 879 q 313 874 337 879 q 269 857 289 869 l 268 857 q 259 873 267 867 q 240 879 251 879 l 119 879 q 99 871 107 879 q 90 850 90 863 l 90 0 q 99 -20 90 -12 q 119 -29 107 -29 l 240 -29 q 261 -20 253 -29 q 269 0 269 -12 l 269 486 q 277 522 269 505 q 297 551 284 539 q 326 571 309 564 q 363 578 343 578 l 606 578 z "},"s":{"ha":907,"x_min":61,"x_max":842,"o":"m 697 243 q 687 311 697 279 q 656 370 677 342 q 603 392 631 384 q 545 400 576 400 l 422 400 q 390 407 406 400 q 363 425 374 414 l 318 469 q 284 502 297 481 q 272 547 272 522 q 279 583 272 566 q 298 611 286 599 q 327 629 310 623 q 363 636 343 636 l 697 636 l 697 764 l 422 764 q 340 748 378 764 q 269 700 302 732 q 222 630 238 667 q 205 547 205 592 q 213 488 205 515 q 236 435 220 460 q 295 404 263 415 q 363 393 327 393 l 484 393 q 529 380 509 393 q 561 347 549 367 l 606 304 q 624 276 617 292 q 631 243 631 260 q 624 209 631 224 q 606 182 617 193 q 578 163 594 170 q 545 157 563 157 l 205 157 l 205 29 l 484 29 q 565 45 528 29 q 635 92 603 61 q 681 161 665 123 q 697 243 697 199 m 654 492 q 675 475 665 484 q 696 456 686 466 q 713 437 705 446 q 728 418 720 429 l 754 393 q 842 182 842 306 q 754 -28 842 60 q 545 -115 667 -115 l 179 -115 q 158 -111 169 -115 q 140 -100 148 -107 l 93 -53 q 70 -31 79 -45 q 61 0 61 -17 l 61 243 q 66 266 61 255 q 78 284 71 276 q 97 297 86 292 q 119 301 107 301 l 253 301 q 232 317 242 309 q 212 336 222 326 l 186 363 q 150 395 168 377 q 61 607 61 484 q 83 723 61 671 q 150 821 105 776 q 363 908 237 908 l 726 908 q 760 898 745 908 q 781 871 774 888 l 825 828 q 837 811 833 821 q 842 790 842 801 l 842 547 q 837 526 842 536 q 825 509 833 516 q 808 496 818 501 q 787 492 798 492 l 654 492 m 726 243 q 656 72 726 144 q 484 0 583 0 l 119 0 l 119 243 l 484 243 q 527 260 509 243 q 545 304 545 278 q 540 328 545 317 q 527 347 535 338 q 507 359 518 355 q 484 364 496 364 l 363 364 q 191 436 261 364 q 119 607 119 507 q 191 779 119 708 q 363 850 260 850 l 726 850 l 726 607 l 363 607 q 319 590 336 607 q 301 547 301 572 q 319 504 301 522 q 363 486 337 486 l 484 486 q 576 468 534 486 q 656 414 619 450 q 726 243 726 343 m 755 243 q 675 435 755 356 q 484 515 597 515 l 363 515 q 340 525 349 515 q 330 547 330 534 q 340 569 330 561 q 363 578 349 578 l 726 578 q 747 587 739 578 q 755 607 755 595 l 755 850 q 747 871 755 863 q 726 879 739 879 l 363 879 q 258 859 305 879 q 170 800 210 840 q 110 712 130 760 q 90 607 90 665 q 110 503 90 550 q 170 415 130 456 q 258 355 210 376 q 363 335 305 335 l 484 335 q 506 326 496 335 q 515 304 515 317 q 506 281 515 291 q 484 272 497 272 l 119 272 q 99 263 107 272 q 90 243 90 254 l 90 0 q 99 -20 90 -12 q 119 -29 107 -29 l 484 -29 q 675 52 597 -29 q 755 243 755 130 z "},"t":{"ha":754,"x_min":61,"x_max":721,"o":"m 576 29 l 576 157 l 422 157 q 364 168 391 157 q 318 199 338 179 l 283 235 q 230 288 250 254 q 211 364 211 321 l 211 758 l 454 758 l 454 764 l 277 764 l 218 821 l 211 821 l 211 886 l 205 886 l 205 182 q 212 122 205 151 q 235 69 219 94 q 363 29 289 29 l 576 29 m 355 301 l 363 301 l 606 301 q 637 291 623 301 q 659 264 652 281 l 704 220 q 716 203 711 212 q 721 182 721 193 l 721 -61 q 716 -82 721 -72 q 704 -99 711 -92 q 686 -111 696 -106 q 665 -115 676 -115 l 422 -115 q 307 -94 359 -115 q 211 -29 255 -73 l 184 -3 q 166 12 175 3 q 149 29 157 20 q 82 126 104 74 q 61 243 61 179 l 61 972 q 66 995 61 985 q 78 1014 71 1006 q 97 1026 86 1021 q 119 1031 107 1031 l 240 1031 q 274 1020 259 1031 q 294 993 288 1010 l 339 949 q 351 932 347 941 q 355 911 355 922 l 355 908 l 484 908 q 517 898 503 908 q 538 871 531 888 l 582 828 q 594 811 589 821 q 599 790 599 801 l 599 668 q 594 647 599 657 q 583 630 590 637 q 565 618 575 623 q 545 614 555 614 l 355 614 l 355 301 m 363 0 q 189 71 262 0 q 119 243 119 140 l 119 972 l 240 972 l 240 850 l 484 850 l 484 729 l 240 729 l 240 364 q 250 316 240 338 q 275 278 259 294 q 314 252 292 262 q 363 243 336 243 l 606 243 l 606 0 l 363 0 m 606 -29 q 626 -20 617 -29 q 635 0 635 -12 l 635 243 q 626 263 635 254 q 606 272 617 272 l 363 272 q 326 279 343 272 q 296 299 309 286 q 276 328 283 311 q 269 364 269 345 l 269 700 l 484 700 q 504 709 496 700 q 513 729 513 718 l 513 850 q 504 871 513 863 q 484 879 496 879 l 269 879 l 269 972 q 261 993 269 984 q 240 1002 253 1002 l 119 1002 q 99 993 107 1002 q 90 972 90 984 l 90 243 q 110 138 90 185 q 170 50 129 90 q 257 -10 210 9 q 363 -29 305 -29 l 606 -29 z "},"u":{"ha":907,"x_min":61,"x_max":842,"o":"m 697 764 l 692 764 l 692 304 q 681 245 692 273 q 649 199 669 218 q 603 168 629 179 q 545 157 576 157 l 422 157 q 365 168 392 157 q 318 199 338 179 l 279 237 q 229 291 248 258 q 211 364 211 324 l 211 764 l 205 764 l 205 182 q 212 123 205 151 q 235 69 219 95 q 294 39 262 50 q 363 29 327 29 l 484 29 q 636 92 574 29 q 697 243 697 154 l 697 764 m 355 301 l 363 301 l 484 301 q 529 319 511 301 q 547 364 547 338 l 547 850 q 552 872 547 862 q 565 891 557 883 q 583 903 572 899 q 606 908 593 908 l 726 908 q 760 898 745 908 q 781 871 774 888 l 825 828 q 837 811 833 821 q 842 790 842 801 l 842 182 q 821 67 842 119 q 755 -29 800 15 q 545 -115 669 -115 l 422 -115 q 308 -94 361 -115 q 211 -29 255 -73 l 184 -3 q 166 12 175 3 q 149 29 157 20 q 82 127 104 74 q 61 243 61 180 l 61 850 q 66 872 61 862 q 78 891 71 883 q 97 903 86 899 q 119 908 107 908 l 240 908 q 274 898 259 908 q 294 871 288 888 l 339 828 q 351 811 347 821 q 355 790 355 801 l 355 301 m 726 243 q 709 149 726 192 q 656 71 692 106 q 484 0 584 0 l 363 0 q 189 71 262 0 q 136 150 153 106 q 119 243 119 193 l 119 850 l 240 850 l 240 364 q 250 317 240 339 q 276 278 260 295 q 315 252 293 262 q 363 243 338 243 l 484 243 q 532 252 509 243 q 570 278 554 262 q 596 316 587 294 q 606 364 606 338 l 606 850 l 726 850 l 726 243 m 755 243 l 755 850 q 747 871 755 863 q 726 879 739 879 l 606 879 q 585 871 593 879 q 576 850 576 863 l 576 364 q 569 328 576 345 q 550 299 562 311 q 520 279 537 286 q 484 272 503 272 l 363 272 q 326 279 343 272 q 297 299 309 287 q 277 329 284 312 q 269 364 269 345 l 269 850 q 261 871 269 863 q 240 879 253 879 l 119 879 q 99 871 107 879 q 90 850 90 863 l 90 243 q 110 138 90 186 q 170 50 129 90 q 257 -10 210 9 q 363 -29 305 -29 l 484 -29 q 589 -10 541 -29 q 676 50 637 9 q 736 138 717 90 q 755 243 755 185 z "},"v":{"ha":907,"x_min":61,"x_max":842,"o":"m 697 764 l 692 764 l 692 304 q 681 245 692 273 q 649 199 669 218 q 603 168 629 179 q 545 157 576 157 l 277 157 l 218 214 l 211 214 l 211 764 l 205 764 l 205 29 l 484 29 q 636 92 574 29 q 697 243 697 154 l 697 764 m 355 301 l 484 301 q 529 319 511 301 q 547 364 547 338 l 547 850 q 552 872 547 862 q 565 891 557 883 q 583 903 572 899 q 606 908 593 908 l 726 908 q 760 898 745 908 q 781 871 774 888 l 825 828 q 837 811 833 821 q 842 790 842 801 l 842 182 q 821 67 842 119 q 755 -29 800 15 q 545 -115 669 -115 l 179 -115 q 158 -111 169 -115 q 140 -100 148 -107 l 93 -53 q 70 -31 79 -45 q 61 0 61 -17 l 61 850 q 66 872 61 862 q 78 891 71 883 q 97 903 86 899 q 119 908 107 908 l 240 908 q 274 898 259 908 q 294 871 288 888 l 339 828 q 351 811 347 821 q 355 790 355 801 l 355 301 m 726 243 q 709 149 726 192 q 656 71 692 106 q 484 0 584 0 l 119 0 l 119 850 l 240 850 l 240 243 l 484 243 q 532 252 509 243 q 570 278 554 262 q 596 316 587 294 q 606 364 606 338 l 606 850 l 726 850 l 726 243 m 755 243 l 755 850 q 747 871 755 863 q 726 879 739 879 l 606 879 q 585 871 593 879 q 576 850 576 863 l 576 364 q 569 328 576 345 q 550 299 562 311 q 520 279 537 286 q 484 272 503 272 l 269 272 l 269 850 q 261 871 269 863 q 240 879 253 879 l 119 879 q 99 871 107 879 q 90 850 90 863 l 90 0 q 99 -20 90 -12 q 119 -29 107 -29 l 484 -29 q 589 -10 541 -29 q 676 50 637 9 q 736 138 717 90 q 755 243 755 185 z "},"w":{"ha":1393,"x_min":61,"x_max":1328,"o":"m 205 182 q 236 71 205 118 q 295 39 263 50 q 363 29 327 29 l 435 29 q 492 40 463 29 q 546 71 520 51 q 595 121 572 92 q 636 187 618 151 q 594 165 617 173 q 545 157 570 157 l 422 157 q 365 168 392 157 q 318 199 338 179 l 279 237 q 229 291 248 258 q 211 364 211 324 l 211 764 l 205 764 l 205 182 m 1183 764 l 1178 764 l 1178 304 q 1166 247 1178 274 q 1135 200 1155 220 q 1088 168 1115 180 q 1031 157 1061 157 l 908 157 q 850 168 877 157 q 804 199 824 179 l 770 235 q 716 288 736 254 q 697 364 697 321 l 697 764 l 692 764 l 692 304 q 687 268 692 285 q 675 236 682 252 l 726 186 q 749 128 736 155 q 778 78 762 101 q 836 42 805 54 q 897 29 866 29 l 970 29 q 1052 45 1014 29 q 1121 92 1089 61 q 1167 161 1152 123 q 1183 243 1183 199 l 1183 764 m 842 301 l 848 301 l 970 301 q 994 306 983 301 q 1015 320 1006 311 q 1028 340 1023 328 q 1034 364 1034 351 l 1034 850 q 1038 872 1034 862 q 1051 891 1043 883 q 1069 903 1059 899 q 1092 908 1080 908 l 1213 908 q 1246 898 1232 908 q 1267 871 1260 888 l 1311 828 q 1323 811 1318 821 q 1328 790 1328 801 l 1328 182 q 1240 -28 1328 60 q 1031 -115 1153 -115 l 957 -115 q 842 -93 896 -115 q 746 -29 788 -70 l 725 -8 q 624 -87 683 -59 q 496 -115 565 -115 l 422 -115 q 212 -28 300 -115 l 186 -1 q 168 13 176 5 q 150 31 159 21 q 61 243 61 119 l 61 850 q 66 872 61 862 q 78 891 71 883 q 97 903 86 899 q 119 908 107 908 l 240 908 q 274 898 259 908 q 294 871 288 888 l 339 828 q 351 811 347 821 q 355 790 355 801 l 355 301 l 363 301 l 484 301 q 529 319 511 301 q 547 364 547 338 l 547 850 q 552 872 547 862 q 565 891 557 883 q 583 903 572 899 q 606 908 593 908 l 726 908 q 760 898 745 908 q 781 871 774 888 l 825 828 q 837 811 833 821 q 842 790 842 801 l 842 301 m 1213 243 q 1141 72 1213 143 q 970 0 1069 0 l 897 0 q 821 12 857 0 q 754 44 785 23 q 701 97 724 66 q 665 165 677 127 q 631 97 653 127 q 578 44 608 66 q 511 12 547 23 q 435 0 474 0 l 363 0 q 191 72 260 0 q 119 243 119 143 l 119 850 l 240 850 l 240 364 q 250 317 240 339 q 276 278 260 295 q 315 252 293 262 q 363 243 338 243 l 484 243 q 532 252 509 243 q 570 278 554 262 q 596 316 587 294 q 606 364 606 338 l 606 850 l 726 850 l 726 364 q 736 316 726 338 q 762 278 745 294 q 800 252 778 262 q 848 243 823 243 l 970 243 q 1017 252 995 243 q 1056 278 1039 262 q 1082 317 1072 295 q 1092 364 1092 339 l 1092 850 l 1213 850 l 1213 243 m 1242 243 l 1242 850 q 1233 871 1242 863 q 1213 879 1225 879 l 1092 879 q 1071 871 1079 879 q 1063 850 1063 863 l 1063 364 q 1055 329 1063 345 q 1035 299 1048 312 q 1006 279 1023 287 q 970 272 989 272 l 848 272 q 812 279 829 272 q 782 299 795 286 q 763 328 770 311 q 755 364 755 345 l 755 850 q 747 871 755 863 q 726 879 739 879 l 606 879 q 585 871 593 879 q 576 850 576 863 l 576 364 q 569 328 576 345 q 550 299 562 311 q 520 279 537 286 q 484 272 503 272 l 363 272 q 326 279 343 272 q 297 299 309 287 q 277 329 284 312 q 269 364 269 345 l 269 850 q 261 871 269 863 q 240 879 253 879 l 119 879 q 99 871 107 879 q 90 850 90 863 l 90 243 q 170 52 90 131 q 258 -9 210 11 q 363 -29 305 -29 l 435 -29 q 504 -21 470 -29 q 567 4 537 -12 q 622 44 597 20 q 665 97 647 67 q 709 44 684 67 q 764 4 734 20 q 827 -21 793 -12 q 897 -29 861 -29 l 970 -29 q 1161 52 1082 -29 q 1242 243 1242 130 z "},"x":{"ha":907,"x_min":61,"x_max":842,"o":"m 205 29 q 258 39 233 31 q 307 62 284 47 q 354 113 332 81 q 396 192 376 144 q 353 166 377 175 q 301 157 329 157 l 205 157 l 205 29 m 587 722 q 544 675 566 705 q 504 599 523 645 q 550 626 524 616 q 606 636 576 636 l 697 636 l 697 764 q 640 751 667 762 q 587 722 612 740 m 697 29 l 697 157 l 665 157 q 608 168 635 157 q 561 199 581 179 l 522 237 q 473 291 491 258 q 454 364 454 324 l 454 486 q 469 551 454 520 l 425 596 q 424 591 424 593 q 422 587 424 589 q 355 736 391 684 q 306 756 332 749 q 253 764 280 764 l 205 764 l 205 636 l 240 636 q 314 618 281 636 q 367 568 347 600 l 406 529 q 437 483 425 509 q 449 425 449 456 l 449 304 q 444 271 449 287 q 433 240 439 255 l 484 191 q 510 117 496 149 q 539 61 524 85 q 594 37 565 45 q 654 29 624 29 l 697 29 m 599 301 l 606 301 l 726 301 q 760 291 745 301 q 781 264 774 281 l 825 220 q 837 203 833 212 q 842 182 842 193 l 842 -61 q 837 -82 842 -72 q 825 -99 833 -92 q 808 -111 818 -106 q 787 -115 798 -115 l 714 -115 q 539 -60 617 -115 q 522 -45 530 -52 q 504 -29 513 -37 l 482 -7 q 456 -35 471 -22 q 427 -60 442 -48 q 253 -115 348 -115 l 179 -115 q 158 -111 169 -115 q 140 -100 148 -107 l 93 -53 q 70 -31 79 -45 q 61 0 61 -17 l 61 243 q 66 266 61 255 q 78 284 71 276 q 97 297 86 292 q 119 301 107 301 l 240 301 q 265 306 253 301 q 286 320 277 311 q 299 340 294 328 q 304 364 304 351 l 304 486 l 304 492 l 179 492 q 158 496 169 492 q 140 509 148 501 l 93 555 q 70 576 79 563 q 61 607 61 590 l 61 850 q 66 872 61 862 q 78 891 71 883 q 97 903 86 899 q 119 908 107 908 l 192 908 q 259 901 227 908 q 322 878 291 893 l 322 884 q 339 871 332 877 q 355 859 347 865 q 365 852 361 855 q 374 846 370 849 l 372 844 q 399 821 387 833 q 422 799 412 809 q 445 821 433 809 q 472 844 458 833 l 471 846 q 480 852 476 849 q 489 859 484 855 q 506 871 497 865 q 524 884 514 877 l 524 878 q 588 901 555 893 q 654 908 620 908 l 726 908 q 760 898 745 908 q 781 871 774 888 l 825 828 q 837 811 833 821 q 842 790 842 801 l 842 547 q 837 526 842 536 q 825 509 833 516 q 808 496 818 501 q 787 492 798 492 l 665 492 q 640 486 652 492 q 619 472 628 481 q 604 451 610 463 q 599 425 599 439 l 599 301 m 654 0 q 511 46 576 0 q 457 100 479 70 q 422 168 435 130 q 389 100 411 130 q 335 46 366 70 q 192 0 269 0 l 119 0 l 119 243 l 240 243 q 288 252 265 243 q 327 278 310 262 q 353 317 343 295 q 363 364 363 339 l 363 486 q 353 533 363 511 q 327 572 343 555 q 288 597 310 588 q 240 607 265 607 l 119 607 l 119 850 l 192 850 q 335 803 271 850 q 389 750 366 780 q 422 684 411 721 q 457 750 435 721 q 511 803 479 780 q 579 838 544 827 q 654 850 614 850 l 726 850 l 726 607 l 606 607 q 558 597 581 607 q 520 572 536 588 q 493 533 503 555 q 484 486 484 511 l 484 364 q 493 317 484 339 q 520 278 503 295 q 558 252 536 262 q 606 243 581 243 l 726 243 l 726 0 l 654 0 m 726 -29 q 747 -20 739 -29 q 755 0 755 -12 l 755 243 q 747 263 755 254 q 726 272 739 272 l 606 272 q 569 279 586 272 q 540 299 553 287 q 520 329 527 312 q 513 364 513 345 l 513 486 q 520 522 513 505 q 540 551 527 539 q 569 571 553 564 q 606 578 586 578 l 726 578 q 747 587 739 578 q 755 607 755 595 l 755 850 q 747 871 755 863 q 726 879 739 879 l 654 879 q 494 827 566 879 l 494 828 q 422 751 450 796 q 351 828 396 796 l 351 827 q 192 879 281 879 l 119 879 q 99 871 107 879 q 90 850 90 863 l 90 607 q 99 587 90 595 q 119 578 107 578 l 240 578 q 276 571 259 578 q 306 551 294 564 q 326 522 319 539 q 334 486 334 505 l 334 364 q 326 329 334 345 q 306 299 319 312 q 276 279 294 287 q 240 272 259 272 l 119 272 q 99 263 107 272 q 90 243 90 254 l 90 0 q 99 -20 90 -12 q 119 -29 107 -29 l 192 -29 q 276 -16 236 -29 q 351 22 316 -3 q 422 98 395 53 q 494 22 451 53 q 570 -16 530 -3 q 654 -29 610 -29 l 726 -29 z "},"y":{"ha":907,"x_min":61,"x_max":842,"o":"m 697 764 l 692 764 l 692 304 q 681 245 692 273 q 649 199 669 218 q 603 168 629 179 q 545 157 576 157 l 422 157 q 365 168 392 157 q 318 199 338 179 l 279 237 q 229 291 248 258 q 211 364 211 324 l 211 764 l 205 764 l 205 182 q 236 71 205 118 q 295 39 263 50 q 363 29 327 29 l 484 29 q 517 33 501 29 q 546 45 532 36 q 576 87 574 58 l 635 86 l 635 79 l 692 22 l 692 -61 q 681 -119 692 -92 q 649 -166 669 -146 q 603 -197 629 -186 q 545 -208 576 -208 l 449 -208 l 449 -336 l 484 -336 q 636 -273 574 -336 q 697 -122 697 -210 l 697 764 m 355 301 l 363 301 l 484 301 q 529 319 511 301 q 547 364 547 338 l 547 850 q 552 872 547 862 q 565 891 557 883 q 583 903 572 899 q 606 908 593 908 l 726 908 q 760 898 745 908 q 781 871 774 888 l 825 828 q 837 811 833 821 q 842 790 842 801 l 842 -182 q 821 -298 842 -245 q 755 -395 800 -351 q 545 -481 669 -481 l 422 -481 q 401 -476 412 -481 q 383 -464 391 -471 l 336 -416 q 313 -395 321 -409 q 304 -366 304 -381 l 304 -122 q 306 -108 304 -115 q 310 -94 307 -101 q 259 -67 284 -84 q 212 -28 234 -50 l 186 -1 q 168 13 176 5 q 150 31 159 21 q 61 243 61 119 l 61 850 q 66 872 61 862 q 78 891 71 883 q 97 903 86 899 q 119 908 107 908 l 240 908 q 274 898 259 908 q 294 871 288 888 l 339 828 q 351 811 347 821 q 355 790 355 801 l 355 301 m 726 -122 q 709 -216 726 -174 q 656 -294 692 -259 q 484 -366 585 -366 l 363 -366 l 363 -122 l 484 -122 q 532 -113 509 -122 q 570 -87 554 -103 q 596 -48 587 -71 q 606 0 606 -26 l 606 82 q 561 20 604 43 q 525 4 545 9 q 484 0 505 0 l 363 0 q 191 72 260 0 q 119 243 119 143 l 119 850 l 240 850 l 240 364 q 250 317 240 339 q 276 278 260 295 q 315 252 293 262 q 363 243 338 243 l 484 243 q 532 252 509 243 q 570 278 554 262 q 596 316 587 294 q 606 364 606 338 l 606 850 l 726 850 l 726 -122 m 755 -122 l 755 850 q 747 871 755 863 q 726 879 739 879 l 606 879 q 585 871 593 879 q 576 850 576 863 l 576 364 q 569 328 576 345 q 550 299 562 311 q 520 279 537 286 q 484 272 503 272 l 363 272 q 326 279 343 272 q 297 299 309 287 q 277 329 284 312 q 269 364 269 345 l 269 850 q 261 871 269 863 q 240 879 253 879 l 119 879 q 99 871 107 879 q 90 850 90 863 l 90 243 q 170 52 90 131 q 258 -9 210 11 q 363 -29 305 -29 l 484 -29 q 532 -24 509 -29 q 576 -5 555 -18 q 567 -40 575 -24 q 547 -67 559 -56 q 518 -86 534 -79 q 484 -93 502 -93 l 363 -93 q 342 -101 350 -93 q 334 -122 334 -110 l 334 -366 q 342 -386 334 -377 q 363 -395 350 -395 l 484 -395 q 676 -315 597 -395 q 736 -227 717 -275 q 755 -122 755 -180 z "},"z":{"ha":907,"x_min":61,"x_max":842,"o":"m 574 631 l 632 572 l 205 171 l 205 29 l 697 29 l 697 157 l 335 157 l 278 214 l 267 214 l 697 618 l 697 764 l 205 764 l 205 636 l 579 636 l 574 631 m 606 301 l 726 301 q 760 291 745 301 q 781 264 774 281 l 825 220 q 837 203 833 212 q 842 182 842 193 l 842 -61 q 837 -82 842 -72 q 825 -99 833 -92 q 808 -111 818 -106 q 787 -115 798 -115 l 179 -115 q 158 -111 169 -115 q 140 -100 148 -107 l 93 -53 q 70 -31 79 -45 q 61 0 61 -17 l 61 243 q 63 253 61 247 q 67 266 64 259 q 73 278 70 273 q 79 286 77 283 l 300 492 l 179 492 q 158 496 169 492 q 140 509 148 501 l 93 555 q 70 576 79 563 q 61 607 61 590 l 61 850 q 66 872 61 862 q 78 891 71 883 q 97 903 86 899 q 119 908 107 908 l 726 908 q 760 898 745 908 q 781 871 774 888 l 825 828 q 837 811 833 821 q 842 790 842 801 l 842 547 q 840 538 842 544 q 836 527 838 533 q 829 515 833 521 q 823 507 826 510 l 606 301 m 119 0 l 119 243 l 509 607 l 119 607 l 119 850 l 726 850 l 726 607 l 338 243 l 726 243 l 726 0 l 119 0 m 726 -29 q 747 -20 739 -29 q 755 0 755 -12 l 755 243 q 747 263 755 254 q 726 272 739 272 l 412 272 l 746 586 q 752 596 749 588 q 755 607 755 604 l 755 850 q 747 871 755 863 q 726 879 739 879 l 119 879 q 99 871 107 879 q 90 850 90 863 l 90 607 q 99 587 90 595 q 119 578 107 578 l 433 578 l 100 265 q 93 254 96 262 q 90 243 90 246 l 90 0 q 99 -20 90 -12 q 119 -29 107 -29 l 726 -29 z "},"{":{"ha":724,"x_min":61,"x_max":599,"o":"m 205 454 l 269 454 l 269 447 l 326 390 l 326 61 q 357 -50 326 -1 q 454 -90 397 -80 l 454 64 q 446 70 450 67 q 440 78 442 73 l 395 121 q 350 174 366 142 q 334 243 334 205 l 334 729 q 342 780 334 756 q 367 824 351 804 q 406 856 383 843 q 454 875 428 869 l 454 986 q 421 968 437 979 q 392 943 406 957 q 343 873 359 911 q 326 790 326 835 l 326 461 l 205 461 l 205 454 m 478 179 l 484 179 q 517 169 503 179 q 538 142 531 159 l 582 98 q 594 81 589 91 q 599 61 599 72 l 599 -193 l 555 -237 q 433 -216 488 -237 q 335 -150 379 -194 l 306 -122 q 288 -107 297 -115 q 271 -92 279 -100 q 182 121 182 -3 l 182 310 l 179 310 q 158 314 169 310 q 140 325 148 317 l 93 374 q 70 395 79 381 q 61 425 61 408 l 61 547 q 66 569 61 559 q 78 588 71 580 q 97 601 86 596 q 119 606 107 606 l 182 606 l 182 850 q 271 1064 182 975 q 484 1152 360 1152 q 517 1141 503 1152 q 538 1114 531 1131 l 582 1071 q 594 1054 589 1063 q 599 1034 599 1044 l 599 790 q 594 769 599 779 q 583 751 590 759 q 565 739 575 744 q 545 734 555 734 q 519 729 531 734 q 498 714 507 724 q 484 693 489 705 q 478 668 478 682 l 478 179 m 484 -122 q 390 -104 433 -122 q 313 -50 348 -85 q 258 28 277 -14 q 240 121 240 71 l 240 425 l 119 425 l 119 547 l 240 547 l 240 850 q 313 1022 240 951 q 484 1093 382 1093 l 484 850 q 436 840 458 850 q 398 814 414 831 q 372 776 382 798 q 363 729 363 754 l 363 243 q 372 196 363 218 q 398 157 382 174 q 436 131 414 140 q 484 121 458 121 l 484 -122 m 513 -122 l 513 121 q 504 142 513 134 q 484 150 496 150 q 447 157 464 150 q 418 177 431 165 q 399 207 406 190 q 392 243 392 224 l 392 729 q 399 765 392 748 q 418 794 406 782 q 447 813 431 806 q 484 821 464 821 q 504 829 496 821 q 513 850 513 838 l 513 1093 q 504 1114 513 1105 q 484 1122 496 1122 q 292 1043 371 1122 q 231 955 251 1002 q 211 850 211 907 l 211 576 l 119 576 q 99 568 107 576 q 90 547 90 559 l 90 425 q 99 405 90 414 q 119 396 107 396 l 211 396 l 211 121 q 292 -71 211 9 q 484 -151 372 -151 l 513 -122 z "},"|":{"ha":421,"x_min":61,"x_max":355,"o":"m 205 -93 l 211 -93 l 211 1007 l 205 1007 l 205 -93 m 93 -174 q 70 -152 79 -166 q 61 -122 61 -138 l 61 1093 q 66 1116 61 1105 q 78 1134 71 1126 q 97 1147 86 1142 q 119 1152 107 1152 l 240 1152 q 274 1141 259 1152 q 294 1114 288 1131 l 339 1071 q 351 1054 347 1063 q 355 1034 355 1044 l 355 -182 q 351 -203 355 -193 q 339 -220 347 -213 q 322 -233 332 -228 q 301 -237 312 -237 l 179 -237 q 158 -233 169 -237 q 140 -221 148 -229 l 93 -174 m 119 -122 l 119 1093 l 240 1093 l 240 -122 l 119 -122 m 240 -151 q 261 -142 253 -151 q 269 -122 269 -134 l 269 1093 q 261 1114 269 1105 q 240 1122 253 1122 l 119 1122 q 99 1114 107 1122 q 90 1093 90 1105 l 90 -122 q 99 -142 90 -134 q 119 -151 107 -151 l 240 -151 z "},"}":{"ha":724,"x_min":121,"x_max":660,"o":"m 515 454 l 515 461 l 458 461 l 401 518 l 393 518 l 393 850 q 383 917 393 886 q 353 977 372 948 q 267 1006 310 1002 l 267 850 q 268 847 267 848 q 285 834 277 841 q 300 818 292 827 l 345 772 q 376 726 366 753 q 387 668 387 699 l 387 182 q 378 131 387 155 q 353 87 369 106 q 314 55 336 68 q 267 37 292 42 l 267 -74 q 300 -55 284 -66 q 330 -29 316 -43 q 393 121 393 33 l 393 454 l 515 454 m 539 606 l 545 606 q 576 595 562 606 q 597 568 591 584 l 643 524 q 655 506 650 516 q 660 486 660 496 l 660 364 q 655 343 660 353 q 644 326 651 334 q 626 314 636 319 q 606 310 616 310 l 539 310 l 539 61 q 452 -150 539 -62 q 240 -237 364 -237 q 219 -233 230 -237 q 201 -221 209 -229 l 154 -174 q 130 -152 140 -166 q 121 -122 121 -138 l 121 121 q 125 143 121 133 q 138 162 130 154 q 157 174 146 170 q 179 179 168 179 q 203 184 192 179 q 224 198 215 189 q 238 218 233 207 q 243 243 243 230 l 243 729 l 243 734 l 240 734 q 219 739 230 734 q 201 751 209 744 l 154 799 q 130 820 140 806 q 121 850 121 833 l 121 1093 q 125 1116 121 1105 q 138 1134 130 1126 q 157 1147 146 1142 q 179 1152 168 1152 q 296 1130 243 1152 q 393 1064 349 1108 q 424 1025 410 1045 l 450 1002 l 449 1002 l 452 1000 q 539 790 539 913 l 539 606 m 422 425 l 422 121 q 351 -50 422 21 q 273 -104 316 -85 q 179 -122 231 -122 l 179 121 q 227 131 205 121 q 266 157 250 140 q 292 196 282 174 q 301 243 301 218 l 301 729 q 292 776 301 754 q 266 814 282 798 q 227 840 250 831 q 179 850 205 850 l 179 1093 q 351 1022 281 1093 q 422 850 422 951 l 422 547 l 545 547 l 545 425 l 422 425 m 545 396 q 565 405 556 396 q 574 425 574 414 l 574 547 q 565 568 574 559 q 545 576 556 576 l 452 576 l 452 850 q 432 955 452 907 q 372 1043 412 1002 q 284 1103 332 1083 q 179 1122 237 1122 q 159 1114 168 1122 q 150 1093 150 1105 l 150 850 q 159 829 150 838 q 179 821 168 821 q 215 813 198 821 q 245 794 232 806 q 265 765 258 782 q 272 729 272 748 l 272 243 q 265 207 272 224 q 245 177 258 190 q 215 157 232 165 q 179 150 198 150 q 159 142 168 150 q 150 121 150 134 l 150 -122 q 159 -142 150 -134 q 179 -151 168 -151 q 284 -131 237 -151 q 372 -71 332 -111 q 452 121 452 9 l 452 396 l 545 396 z "},"~":{"ha":810,"x_min":61,"x_max":745,"o":"m 425 414 q 395 426 408 420 q 371 433 381 431 q 378 431 374 432 q 385 428 381 429 q 414 416 400 420 q 439 408 427 412 q 432 411 435 410 q 425 414 429 412 m 94 322 q 71 342 80 328 q 61 376 61 357 l 61 473 q 64 487 61 479 q 70 501 66 494 q 79 514 74 508 q 87 522 83 519 q 184 567 134 553 q 289 581 234 581 q 338 573 311 581 q 397 551 365 565 q 435 537 419 542 q 460 532 452 532 q 532 542 498 532 q 597 572 566 553 q 613 578 606 576 q 631 581 620 581 q 663 572 648 581 q 684 546 677 563 l 729 500 q 741 484 736 492 q 745 461 745 475 l 745 358 l 724 322 q 519 261 629 261 q 471 269 498 261 q 412 290 445 277 q 375 306 391 301 q 350 310 359 310 q 275 299 310 310 q 208 269 241 289 q 179 261 194 261 q 158 265 168 261 q 140 277 148 269 l 94 322 m 629 425 q 460 376 551 376 q 374 401 429 376 q 326 419 347 413 q 289 425 304 425 q 200 413 243 425 q 119 376 158 401 l 119 473 q 200 511 158 499 q 289 522 243 522 q 374 498 319 522 q 423 480 402 486 q 460 473 444 473 q 629 522 551 473 l 629 425 m 659 425 l 659 522 q 654 538 659 532 q 644 549 650 545 q 629 552 637 552 q 614 547 622 552 q 541 514 579 526 q 460 503 503 503 q 386 525 435 503 q 332 545 355 538 q 289 551 309 551 q 103 498 187 551 q 94 487 98 495 q 90 473 90 479 l 90 376 q 94 361 90 368 q 105 351 98 354 q 119 347 111 347 q 135 353 127 347 q 289 396 203 396 q 319 391 302 396 q 363 374 337 385 q 417 354 393 361 q 460 347 440 347 q 556 360 511 347 q 646 401 602 373 l 659 425 z "},"€":{"ha":907,"x_min":61,"x_max":842,"o":"m 697 29 l 697 157 l 422 157 q 371 168 395 157 q 328 199 347 179 l 290 235 q 233 300 254 258 q 211 393 211 342 l 245 393 l 218 421 l 211 421 l 211 551 l 245 551 l 218 578 l 211 578 q 223 647 211 614 q 255 705 235 680 q 303 744 275 730 q 363 758 331 758 l 697 758 l 697 886 l 422 886 q 269 821 335 886 q 222 751 238 789 q 205 668 205 713 l 205 182 q 236 71 205 118 q 295 39 263 50 q 363 29 327 29 l 697 29 m 721 301 l 726 301 q 760 291 745 301 q 781 264 774 281 l 825 220 q 837 203 833 212 q 842 182 842 193 l 842 -61 q 837 -82 842 -72 q 825 -99 833 -92 q 808 -111 818 -106 q 787 -115 798 -115 l 422 -115 q 212 -28 300 -115 l 186 -1 q 168 13 176 5 q 150 31 159 21 q 61 243 61 119 l 61 729 q 150 942 61 852 q 363 1031 237 1031 l 726 1031 q 760 1020 745 1031 q 781 993 774 1010 l 825 949 q 837 932 833 941 q 842 911 842 922 l 842 668 q 837 647 842 657 q 825 630 833 637 q 808 618 818 623 q 787 614 798 614 l 675 614 l 704 585 q 716 567 711 577 q 721 547 721 557 l 721 461 q 716 441 721 450 q 704 424 711 431 q 716 408 711 416 q 721 389 721 399 l 721 301 m 363 0 q 191 72 260 0 q 119 243 119 143 l 119 729 q 191 900 119 829 q 363 972 262 972 l 726 972 l 726 729 l 363 729 q 315 720 338 729 q 276 693 293 710 q 250 654 260 677 q 240 607 240 632 l 606 607 l 606 522 l 240 522 l 240 450 l 606 450 l 606 364 l 240 364 q 250 317 240 339 q 276 278 260 295 q 315 252 293 262 q 363 243 338 243 l 726 243 l 726 0 l 363 0 m 726 -29 q 747 -20 739 -29 q 755 0 755 -12 l 755 243 q 747 263 755 254 q 726 272 739 272 l 363 272 q 307 289 331 272 q 275 335 283 307 l 606 335 q 626 344 617 335 q 635 364 635 353 l 635 450 q 626 471 635 462 q 606 479 617 479 l 269 479 l 269 493 l 606 493 q 626 502 617 493 q 635 522 635 511 l 635 607 q 626 628 635 620 q 606 636 617 636 l 275 636 q 307 682 283 665 q 363 700 331 700 l 726 700 q 747 709 739 700 q 755 729 755 718 l 755 972 q 747 993 755 984 q 726 1002 739 1002 l 363 1002 q 258 982 305 1002 q 170 921 210 962 q 90 729 90 842 l 90 243 q 170 52 90 131 q 258 -9 210 11 q 363 -29 305 -29 l 726 -29 z "},"‚":{"ha":469,"x_min":61,"x_max":404,"o":"m 205 29 l 260 29 l 260 83 l 205 83 l 205 29 m 142 -174 q 118 -152 127 -166 q 110 -122 110 -138 l 110 -74 l 110 -68 l 93 -53 q 70 -32 79 -45 q 61 0 61 -18 l 61 170 q 66 192 61 182 q 78 211 71 203 q 97 223 86 218 q 119 228 107 228 l 289 228 q 322 217 308 228 q 343 191 337 207 l 387 147 q 399 130 395 140 q 404 110 404 120 l 404 -182 q 400 -203 404 -193 q 388 -220 395 -213 q 371 -233 380 -228 q 350 -237 361 -237 l 228 -237 q 207 -233 217 -237 q 189 -221 197 -229 l 142 -174 m 168 -122 l 168 -74 l 240 -74 l 240 0 l 119 0 l 119 170 l 289 170 l 289 -122 l 168 -122 m 289 -151 q 310 -142 302 -151 q 318 -122 318 -134 l 318 170 q 310 190 318 182 q 289 199 302 199 l 119 199 q 99 190 107 199 q 90 170 90 182 l 90 0 q 99 -20 90 -12 q 119 -29 107 -29 l 211 -29 l 211 -45 l 168 -45 q 147 -53 155 -45 q 139 -74 139 -61 l 139 -122 q 147 -142 139 -134 q 168 -151 155 -151 l 289 -151 z "},"ƒ":{"ha":876,"x_min":-182,"x_max":842,"o":"m 296 518 l 288 518 l 288 519 l 240 -24 q 241 -10 240 -16 q 243 3 241 -3 l 283 454 l 525 454 l 525 461 l 353 461 l 296 518 m -29 -336 l -3 -336 q 155 -275 90 -336 q 207 -205 188 -245 q 232 -118 226 -165 q 236 -69 234 -91 q 219 -124 233 -99 q 184 -169 205 -150 q 137 -198 163 -187 q 79 -208 110 -208 l -18 -208 l -29 -336 m 301 671 q 320 731 307 703 q 354 778 334 758 q 402 808 375 798 q 463 819 430 819 l 677 819 l 689 947 l 545 947 q 383 884 452 947 q 306 726 316 819 l 301 671 m -150 -416 q -173 -395 -165 -409 q -182 -366 -182 -381 l -182 -359 l -161 -117 q -143 -79 -160 -95 q -103 -64 -126 -64 l 18 -64 q 45 -58 33 -64 q 68 -44 58 -53 q 84 -22 78 -35 q 92 4 90 -10 l 161 794 q 193 909 167 857 q 267 1006 218 961 q 369 1071 315 1050 q 484 1092 422 1092 l 726 1092 q 760 1081 745 1092 q 781 1054 774 1069 l 825 1010 q 837 992 833 1002 q 842 972 842 983 l 842 966 l 821 724 q 803 689 819 704 q 766 675 787 675 l 524 675 q 472 655 492 675 q 447 606 452 636 l 562 606 q 595 595 581 606 q 616 568 609 584 l 661 524 q 673 506 669 516 q 677 486 677 496 l 677 482 l 668 359 q 650 325 666 340 q 614 310 635 310 l 421 310 l 387 -65 q 384 -101 386 -80 q 380 -147 382 -121 q 378 -168 379 -157 q 376 -191 378 -179 q 343 -304 369 -252 q 271 -399 318 -357 q 58 -481 180 -481 l -64 -481 q -85 -476 -75 -481 q -103 -464 -96 -471 l -150 -416 m 705 790 l 463 790 q 414 781 436 790 q 374 756 391 772 q 346 718 357 740 q 330 668 334 695 q 326 635 329 665 q 319 547 323 605 l 562 547 l 553 425 l 310 425 l 272 0 q 268 -50 270 -20 q 261 -122 265 -80 q 234 -217 255 -174 q 175 -296 213 -260 q -3 -366 101 -366 l -123 -366 l -103 -122 l 18 -122 q 67 -113 44 -122 q 108 -87 90 -103 q 137 -48 125 -71 q 150 0 148 -26 l 220 790 q 306 962 230 893 q 484 1034 380 1034 l 726 1034 l 705 790 m 755 1031 q 748 1053 757 1043 q 726 1063 739 1063 l 484 1063 q 286 985 372 1063 q 219 897 242 944 q 191 791 196 849 l 121 3 q 111 -35 119 -18 q 88 -65 102 -53 q 57 -85 75 -78 q 18 -93 39 -93 l -103 -93 q -123 -100 -115 -93 q -132 -119 -132 -108 l -153 -363 q -145 -385 -154 -375 q -123 -395 -137 -395 l -3 -395 q 105 -375 56 -395 q 196 -317 154 -355 l 195 -317 q 260 -231 237 -279 q 290 -125 283 -182 q 297 -53 294 -84 q 301 -3 299 -22 l 336 396 l 553 396 q 572 404 564 396 q 582 422 581 412 l 591 545 q 584 567 593 557 q 562 576 575 576 l 351 576 q 357 641 355 617 q 361 669 359 664 q 393 735 366 710 q 463 761 420 761 l 705 761 q 725 768 717 761 q 734 787 733 776 l 755 1031 z "},"„":{"ha":736,"x_min":61,"x_max":672,"o":"m 472 29 l 528 29 l 528 83 l 472 83 l 472 29 m 205 29 l 260 29 l 260 83 l 205 83 l 205 29 m 142 -174 q 118 -152 127 -166 q 110 -122 110 -138 l 110 -74 l 110 -68 l 93 -53 q 70 -32 79 -45 q 61 0 61 -18 l 61 170 q 66 192 61 182 q 78 211 71 203 q 97 223 86 218 q 119 228 107 228 l 289 228 q 338 200 320 228 q 358 221 345 214 q 386 228 370 228 l 557 228 q 589 217 574 228 q 610 191 604 207 l 656 147 q 668 130 663 140 q 672 110 672 120 l 672 -182 q 667 -203 672 -193 q 655 -220 663 -213 q 637 -233 648 -228 q 616 -237 627 -237 l 496 -237 q 474 -233 484 -237 q 457 -221 465 -229 l 410 -174 q 407 -172 408 -172 q 404 -171 406 -171 l 404 -182 q 400 -203 404 -193 q 388 -220 395 -213 q 371 -233 380 -228 q 350 -237 361 -237 l 228 -237 q 207 -233 217 -237 q 189 -221 197 -229 l 142 -174 m 168 -122 l 168 -74 l 240 -74 l 240 0 l 119 0 l 119 170 l 289 170 l 289 -122 l 168 -122 m 435 -122 l 435 -74 l 509 -74 l 509 0 l 386 0 l 386 170 l 557 170 l 557 -122 l 435 -122 m 557 -151 q 577 -142 568 -151 q 586 -122 586 -134 l 586 170 q 577 190 586 182 q 557 199 568 199 l 386 199 q 366 190 374 199 q 357 170 357 182 l 357 0 q 366 -20 357 -12 q 386 -29 374 -29 l 479 -29 l 479 -45 l 435 -45 q 414 -53 423 -45 q 406 -74 406 -61 l 406 -122 q 414 -142 406 -134 q 435 -151 423 -151 l 557 -151 m 289 -151 q 310 -142 302 -151 q 318 -122 318 -134 l 318 170 q 310 190 318 182 q 289 199 302 199 l 119 199 q 99 190 107 199 q 90 170 90 182 l 90 0 q 99 -20 90 -12 q 119 -29 107 -29 l 211 -29 l 211 -45 l 168 -45 q 147 -53 155 -45 q 139 -74 139 -61 l 139 -122 q 147 -142 139 -134 q 168 -151 155 -151 l 289 -151 z "},"…":{"ha":1053,"x_min":61,"x_max":987,"o":"m 205 29 l 260 29 l 260 83 l 205 83 l 205 29 m 789 29 l 843 29 l 843 83 l 789 83 l 789 29 m 497 29 l 551 29 l 551 83 l 497 83 l 497 29 m 93 -53 q 70 -31 79 -45 q 61 0 61 -17 l 61 170 q 66 192 61 182 q 78 211 71 203 q 97 223 86 218 q 119 228 107 228 l 289 228 q 322 217 308 228 q 345 189 337 205 l 353 179 q 373 214 356 200 q 411 228 390 228 l 581 228 q 614 217 600 228 q 636 189 629 205 l 644 179 q 665 214 648 200 q 703 228 682 228 l 872 228 q 906 217 891 228 q 926 191 920 207 l 971 147 q 983 130 979 140 q 987 110 987 120 l 987 -61 q 983 -82 987 -72 q 971 -99 979 -92 q 954 -111 964 -106 q 933 -115 944 -115 l 762 -115 q 742 -111 752 -115 q 724 -100 731 -107 l 694 -71 q 676 -102 691 -88 q 642 -115 661 -115 l 471 -115 q 450 -111 460 -115 q 432 -100 439 -107 l 403 -71 q 384 -102 399 -88 q 350 -115 369 -115 l 179 -115 q 158 -111 169 -115 q 140 -100 148 -107 l 93 -53 m 119 0 l 119 170 l 289 170 l 289 0 l 119 0 m 411 0 l 411 170 l 581 170 l 581 0 l 411 0 m 703 0 l 703 170 l 872 170 l 872 0 l 703 0 m 872 -29 q 893 -20 885 -29 q 901 0 901 -12 l 901 170 q 893 190 901 182 q 872 199 885 199 l 703 199 q 682 190 690 199 q 673 170 673 182 l 673 0 q 682 -20 673 -12 q 703 -29 690 -29 l 872 -29 m 289 -29 q 310 -20 302 -29 q 318 0 318 -12 l 318 170 q 310 190 318 182 q 289 199 302 199 l 119 199 q 99 190 107 199 q 90 170 90 182 l 90 0 q 99 -20 90 -12 q 119 -29 107 -29 l 289 -29 m 581 -29 q 602 -20 593 -29 q 610 0 610 -12 l 610 170 q 602 190 610 182 q 581 199 593 199 l 411 199 q 390 190 399 199 q 382 170 382 182 l 382 0 q 390 -20 382 -12 q 411 -29 399 -29 l 581 -29 z "},"†":{"ha":785,"x_min":61,"x_max":721,"o":"m 576 636 l 576 643 l 458 643 l 401 700 l 393 700 l 393 886 l 387 886 l 387 643 l 205 643 l 205 636 l 330 636 l 330 629 l 387 572 l 387 -214 l 393 -214 l 393 636 l 576 636 m 539 787 l 606 787 q 637 777 623 787 q 659 750 652 767 l 704 705 q 716 689 711 698 q 721 668 721 680 l 721 547 q 716 526 721 536 q 704 509 711 516 q 686 496 696 501 q 665 492 676 492 l 539 492 l 539 -304 q 534 -325 539 -315 q 522 -342 530 -335 q 505 -354 515 -349 q 484 -358 494 -358 l 363 -358 q 323 -343 340 -358 l 277 -296 q 252 -274 262 -288 q 243 -243 243 -260 l 243 492 l 179 492 q 158 496 169 492 q 140 509 148 501 l 93 555 q 70 576 79 563 q 61 607 61 590 l 61 729 q 66 752 61 741 q 78 770 71 762 q 97 783 86 778 q 119 787 107 787 l 243 787 l 243 972 q 248 995 243 985 q 260 1014 252 1006 q 278 1026 268 1021 q 301 1031 289 1031 l 422 1031 q 455 1020 441 1031 q 476 993 470 1010 l 521 949 q 534 932 528 941 q 539 911 539 922 l 539 787 m 422 607 l 422 -243 l 301 -243 l 301 607 l 119 607 l 119 729 l 301 729 l 301 972 l 422 972 l 422 729 l 606 729 l 606 607 l 422 607 m 606 578 q 626 587 617 578 q 635 607 635 595 l 635 729 q 626 749 635 741 q 606 758 617 758 l 452 758 l 452 972 q 443 993 452 984 q 422 1002 435 1002 l 301 1002 q 281 993 290 1002 q 272 972 272 984 l 272 758 l 119 758 q 99 749 107 758 q 90 729 90 741 l 90 607 q 99 587 90 595 q 119 578 107 578 l 272 578 l 272 -243 q 281 -263 272 -254 q 301 -272 290 -272 l 422 -272 q 443 -263 435 -272 q 452 -243 452 -254 l 452 578 l 606 578 z "}}}
